<svg width="706" height="169" viewBox="0 0 706 169" fill="none" xmlns="http://www.w3.org/2000/svg">
<path d="M122.049 90.344L95.9212 41.768L69.4252 90.344H122.049ZM135.665 115.736H56.3612L44.2172 138H2.63321L71.0812 15.272H121.497L188.473 138H147.257L135.665 115.736ZM238.909 110.216H306.437C308.891 110.216 311.099 110.093 313.061 109.848C315.147 109.603 316.925 109.112 318.397 108.376C319.869 107.517 320.973 106.291 321.709 104.696C322.568 103.101 322.997 100.955 322.997 98.256C322.997 93.9627 321.709 91.1413 319.133 89.792C316.557 88.4427 312.509 87.768 306.989 87.768H238.909V110.216ZM238.909 63.48H302.941C307.848 63.48 311.589 62.8053 314.165 61.456C316.864 60.1067 318.213 57.1013 318.213 52.44C318.213 45.5707 314.595 42.136 307.357 42.136H238.909V63.48ZM201.925 137.816V15.272H317.661C330.664 15.272 340.232 17.7253 346.365 22.632C352.621 27.416 355.749 35.512 355.749 46.92C355.749 51.9493 355.32 56.0587 354.461 59.248C353.603 62.4373 352.253 65.0747 350.413 67.16C348.696 69.2453 346.488 70.9013 343.789 72.128C341.091 73.3547 337.84 74.4587 334.037 75.44C338.085 76.0533 341.765 76.7893 345.077 77.648C348.389 78.5067 351.149 79.9173 353.357 81.88C355.688 83.72 357.467 86.296 358.693 89.608C359.92 92.92 360.533 97.2747 360.533 102.672C360.533 109.296 359.736 114.877 358.141 119.416C356.669 123.832 354.277 127.451 350.965 130.272C347.653 132.971 343.36 134.933 338.085 136.16C332.933 137.264 326.739 137.816 319.501 137.816H201.925ZM395.84 93.836C395.84 97.984 395.88 101.481 395.962 104.328C396.124 107.175 396.45 109.533 396.938 111.404C397.507 113.275 398.32 114.698 399.378 115.674C400.516 116.65 402.062 117.382 404.014 117.87C406.047 118.358 408.528 118.643 411.456 118.724C414.465 118.805 418.084 118.846 422.314 118.846C430.772 118.846 437.36 118.765 442.078 118.602C446.795 118.358 450.252 117.545 452.448 116.162C454.725 114.779 456.108 112.543 456.596 109.452C457.084 106.28 457.328 101.807 457.328 96.032C457.328 91.3147 457.084 87.614 456.596 84.93C456.189 82.1647 455.254 80.1313 453.79 78.83C452.326 77.4473 450.17 76.5933 447.324 76.268C444.477 75.9427 440.695 75.78 435.978 75.78C427.438 75.78 420.524 75.78 415.238 75.78C409.951 75.78 405.884 76.3087 403.038 77.366C400.191 78.342 398.28 80.0907 397.304 82.612C396.328 85.1333 395.84 88.8747 395.84 93.836ZM370.586 105.06C370.586 97.3333 370.667 90.7047 370.83 85.174C371.074 79.562 371.846 74.8447 373.148 71.022C374.53 67.1993 376.645 64.19 379.492 61.994C382.42 59.7167 386.568 58.09 391.936 57.114C395.596 56.4633 402.224 56.0973 411.822 56.016C421.5 55.8533 434.148 55.772 449.764 55.772C454.888 55.772 459.32 56.2193 463.062 57.114C466.803 58.0087 469.934 59.432 472.456 61.384C475.058 63.2547 477.092 65.7353 478.556 68.826C480.02 71.9167 481.036 75.658 481.606 80.05C481.931 82.3273 482.094 85.296 482.094 88.956C482.175 92.616 482.216 96.886 482.216 101.766C482.216 107.703 481.85 112.746 481.118 116.894C480.386 120.961 479.125 124.377 477.336 127.142C475.546 129.907 473.147 132.063 470.138 133.608C467.21 135.153 463.509 136.333 459.036 137.146C454.562 137.878 449.276 138.325 443.176 138.488C437.157 138.732 430.122 138.854 422.07 138.854C412.96 138.854 405.152 138.569 398.646 138C392.139 137.512 386.812 136.17 382.664 133.974C378.516 131.697 375.466 128.321 373.514 123.848C371.562 119.293 370.586 113.031 370.586 105.06ZM573.049 56.626H598.059V107.866C598.059 115.755 596.717 121.977 594.033 126.532C591.349 131.087 586.957 134.381 580.857 136.414C577.36 137.553 573.131 138.244 568.169 138.488C563.208 138.732 557.515 138.854 551.089 138.854C544.339 138.854 538.198 138.813 532.667 138.732C527.218 138.732 522.338 138.488 518.027 138C513.798 137.431 510.097 136.536 506.925 135.316C503.835 134.015 501.273 132.185 499.239 129.826C497.206 127.386 495.701 124.295 494.725 120.554C493.749 116.813 493.261 112.177 493.261 106.646V56.626H518.271V99.326C518.271 102.742 518.353 105.589 518.515 107.866C518.759 110.062 519.207 111.892 519.857 113.356C520.508 114.82 521.443 115.918 522.663 116.65C523.965 117.382 525.673 117.911 527.787 118.236C529.902 118.561 532.505 118.765 535.595 118.846C538.686 118.846 542.427 118.846 546.819 118.846C550.073 118.846 552.96 118.846 555.481 118.846C558.003 118.846 560.199 118.765 562.069 118.602C564.021 118.358 565.648 117.992 566.949 117.504C568.332 116.935 569.471 116.081 570.365 114.942C571.748 113.315 572.521 111.282 572.683 108.842C572.927 106.402 573.049 103.352 573.049 99.692V56.626ZM668.159 77V138H643.149V77H606.671V56.626H704.027V77H668.159Z" fill="black"/>
<path d="M394.07 35.472C394.051 34.8727 393.964 34.4183 393.809 34.109C393.654 33.7997 393.364 33.5773 392.939 33.442C392.514 33.3067 391.905 33.239 391.112 33.239C390.339 33.2197 389.314 33.21 388.038 33.21C386.588 33.21 385.418 33.2293 384.529 33.268C383.64 33.2873 382.944 33.4227 382.441 33.674C381.938 33.9253 381.6 34.3507 381.426 34.95C381.252 35.53 381.165 36.3807 381.165 37.502C381.165 38.9327 381.204 40.0443 381.281 40.837C381.378 41.6103 381.639 42.1903 382.064 42.577C382.509 42.9443 383.185 43.1667 384.094 43.244C385.003 43.302 386.269 43.331 387.893 43.331C389.111 43.331 390.126 43.331 390.938 43.331C391.75 43.331 392.388 43.2537 392.852 43.099C393.335 42.9443 393.674 42.6833 393.867 42.316C394.08 41.9293 394.186 41.359 394.186 40.605H399.986C399.986 40.7597 399.986 40.9047 399.986 41.04C400.005 41.156 400.015 41.2913 400.015 41.446C400.015 42.432 399.947 43.302 399.812 44.056C399.696 44.81 399.483 45.448 399.174 45.97C398.865 46.492 398.449 46.9077 397.927 47.217C397.405 47.5263 396.757 47.7197 395.984 47.797C394.727 47.9323 393.538 48.029 392.417 48.087C391.315 48.1643 390.3 48.203 389.372 48.203C386.337 48.203 383.504 48.116 380.875 47.942C379.85 47.884 378.98 47.6617 378.265 47.275C377.55 46.8883 376.97 46.3277 376.525 45.593C376.08 44.839 375.752 43.9013 375.539 42.78C375.346 41.6587 375.249 40.315 375.249 38.749C375.249 37.763 375.259 36.864 375.278 36.052C375.297 35.2207 375.365 34.4667 375.481 33.79C375.616 33.094 375.81 32.4657 376.061 31.905C376.332 31.325 376.709 30.803 377.192 30.339C377.675 29.875 378.236 29.5173 378.874 29.266C379.531 29.0147 380.295 28.831 381.165 28.715C382.035 28.599 383.021 28.5313 384.123 28.512C385.225 28.4733 386.462 28.454 387.835 28.454C390.213 28.454 392.166 28.5023 393.693 28.599C395.24 28.6957 396.458 28.9663 397.347 29.411C398.236 29.8557 398.855 30.5517 399.203 31.499C399.551 32.4463 399.735 33.7707 399.754 35.472H394.07ZM419.999 40.489L415.881 32.833L411.705 40.489H419.999ZM422.145 44.491H409.646L407.732 48H401.178L411.966 28.657H419.912L430.468 48H423.972L422.145 44.491ZM449.495 34.573C449.476 34.1283 449.399 33.7803 449.263 33.529C449.128 33.2583 448.886 33.065 448.538 32.949C448.21 32.8137 447.765 32.7267 447.204 32.688C446.663 32.6493 445.957 32.63 445.087 32.63C444.933 32.63 444.807 32.63 444.71 32.63C444.614 32.63 444.488 32.6397 444.333 32.659C443.077 32.717 442.023 32.746 441.172 32.746C440.322 32.746 439.635 32.7943 439.113 32.891C438.591 32.9683 438.214 33.123 437.982 33.355C437.75 33.587 437.634 33.9737 437.634 34.515C437.634 34.9983 437.808 35.3657 438.156 35.617C438.504 35.849 438.988 35.9747 439.606 35.994C440.476 36.0133 441.298 36.0327 442.071 36.052C442.864 36.0713 443.599 36.081 444.275 36.081C444.681 36.081 445.097 36.081 445.522 36.081C445.967 36.0617 446.383 36.052 446.769 36.052C448.374 36.052 449.766 36.1003 450.945 36.197C452.125 36.2743 453.091 36.5063 453.845 36.893C454.619 37.2797 455.189 37.8693 455.556 38.662C455.924 39.4547 456.107 40.5663 456.107 41.997C456.107 43.0023 456.011 43.853 455.817 44.549C455.624 45.245 455.315 45.825 454.889 46.289C454.483 46.7337 453.961 47.0817 453.323 47.333C452.685 47.5843 451.922 47.7583 451.032 47.855C450.51 47.913 449.505 47.9807 448.016 48.058C446.528 48.1353 444.623 48.174 442.303 48.174C440.022 48.174 438.156 48.1063 436.706 47.971C435.276 47.8357 434.232 47.536 433.574 47.072C433.11 46.7433 432.762 46.3953 432.53 46.028C432.318 45.6413 432.163 45.2353 432.066 44.81C431.989 44.3847 431.95 43.9303 431.95 43.447C431.95 42.9443 431.95 42.403 431.95 41.823H437.779C437.779 42.0357 437.779 42.258 437.779 42.49C437.779 42.722 437.828 42.9347 437.924 43.128C438.021 43.302 438.195 43.4663 438.446 43.621C438.698 43.7563 439.084 43.8433 439.606 43.882C439.858 43.9013 440.322 43.9207 440.998 43.94C441.694 43.9593 442.564 43.969 443.608 43.969C444.962 43.969 446.064 43.9593 446.914 43.94C447.784 43.9207 448.461 43.853 448.944 43.737C449.428 43.621 449.756 43.447 449.93 43.215C450.104 42.983 450.191 42.6447 450.191 42.2C450.191 41.7747 450.104 41.446 449.93 41.214C449.756 40.9627 449.505 40.7887 449.176 40.692C448.848 40.576 448.451 40.5083 447.987 40.489C447.543 40.4697 447.05 40.46 446.508 40.46C444.614 40.4407 442.932 40.4407 441.462 40.46C439.993 40.46 438.717 40.4213 437.634 40.344C436.552 40.2667 435.633 40.1313 434.879 39.938C434.145 39.7447 433.545 39.4353 433.081 39.01C432.637 38.5847 432.308 38.024 432.095 37.328C431.902 36.632 431.805 35.7523 431.805 34.689C431.805 33.7417 431.883 32.92 432.037 32.224C432.211 31.528 432.492 30.948 432.878 30.484C433.265 30.0007 433.768 29.6333 434.386 29.382C435.024 29.1113 435.807 28.918 436.735 28.802C437.354 28.7247 438.35 28.6473 439.722 28.57C441.114 28.4927 442.854 28.454 444.942 28.454C446.044 28.454 447.03 28.4637 447.9 28.483C448.79 28.483 449.573 28.5217 450.249 28.599C450.945 28.6763 451.554 28.7923 452.076 28.947C452.598 29.0823 453.053 29.295 453.439 29.585C453.865 29.8943 454.193 30.223 454.425 30.571C454.677 30.919 454.86 31.296 454.976 31.702C455.092 32.108 455.17 32.5527 455.208 33.036C455.247 33.5 455.266 34.0123 455.266 34.573H449.495ZM464.56 28.657V48H458.615V28.657H464.56ZM473.123 37.502C473.123 38.488 473.133 39.3193 473.152 39.996C473.191 40.6727 473.268 41.2333 473.384 41.678C473.52 42.1227 473.713 42.461 473.964 42.693C474.235 42.925 474.602 43.099 475.066 43.215C475.55 43.331 476.139 43.3987 476.835 43.418C477.551 43.4373 478.411 43.447 479.416 43.447C481.427 43.447 482.993 43.4277 484.114 43.389C485.236 43.331 486.057 43.1377 486.579 42.809C487.121 42.4803 487.449 41.9487 487.565 41.214C487.681 40.46 487.739 39.3967 487.739 38.024C487.739 36.9027 487.681 36.023 487.565 35.385C487.469 34.7277 487.246 34.2443 486.898 33.935C486.55 33.6063 486.038 33.4033 485.361 33.326C484.685 33.2487 483.786 33.21 482.664 33.21C480.634 33.21 478.991 33.21 477.734 33.21C476.478 33.21 475.511 33.3357 474.834 33.587C474.158 33.819 473.703 34.2347 473.471 34.834C473.239 35.4333 473.123 36.3227 473.123 37.502ZM467.12 40.17C467.12 38.3333 467.14 36.7577 467.178 35.443C467.236 34.109 467.42 32.9877 467.729 32.079C468.058 31.1703 468.561 30.455 469.237 29.933C469.933 29.3917 470.919 29.005 472.195 28.773C473.065 28.6183 474.641 28.5313 476.922 28.512C479.223 28.4733 482.229 28.454 485.941 28.454C487.159 28.454 488.213 28.5603 489.102 28.773C489.992 28.9857 490.736 29.324 491.335 29.788C491.954 30.2327 492.437 30.8223 492.785 31.557C493.133 32.2917 493.375 33.181 493.51 34.225C493.588 34.7663 493.626 35.472 493.626 36.342C493.646 37.212 493.655 38.227 493.655 39.387C493.655 40.7983 493.568 41.997 493.394 42.983C493.22 43.9497 492.921 44.7617 492.495 45.419C492.07 46.0763 491.5 46.5887 490.784 46.956C490.088 47.3233 489.209 47.6037 488.145 47.797C487.082 47.971 485.825 48.0773 484.375 48.116C482.945 48.174 481.272 48.203 479.358 48.203C477.193 48.203 475.337 48.1353 473.79 48C472.244 47.884 470.977 47.565 469.991 47.043C469.005 46.5017 468.28 45.6993 467.816 44.636C467.352 43.5533 467.12 42.0647 467.12 40.17ZM514.29 35.472C514.27 34.8727 514.183 34.4183 514.029 34.109C513.874 33.7997 513.584 33.5773 513.159 33.442C512.733 33.3067 512.124 33.239 511.332 33.239C510.558 33.2197 509.534 33.21 508.258 33.21C506.808 33.21 505.638 33.2293 504.749 33.268C503.859 33.2873 503.163 33.4227 502.661 33.674C502.158 33.9253 501.82 34.3507 501.646 34.95C501.472 35.53 501.385 36.3807 501.385 37.502C501.385 38.9327 501.423 40.0443 501.501 40.837C501.597 41.6103 501.858 42.1903 502.284 42.577C502.728 42.9443 503.405 43.1667 504.314 43.244C505.222 43.302 506.489 43.331 508.113 43.331C509.331 43.331 510.346 43.331 511.158 43.331C511.97 43.331 512.608 43.2537 513.072 43.099C513.555 42.9443 513.893 42.6833 514.087 42.316C514.299 41.9293 514.406 41.359 514.406 40.605H520.206C520.206 40.7597 520.206 40.9047 520.206 41.04C520.225 41.156 520.235 41.2913 520.235 41.446C520.235 42.432 520.167 43.302 520.032 44.056C519.916 44.81 519.703 45.448 519.394 45.97C519.084 46.492 518.669 46.9077 518.147 47.217C517.625 47.5263 516.977 47.7197 516.204 47.797C514.947 47.9323 513.758 48.029 512.637 48.087C511.535 48.1643 510.52 48.203 509.592 48.203C506.556 48.203 503.724 48.116 501.095 47.942C500.07 47.884 499.2 47.6617 498.485 47.275C497.769 46.8883 497.189 46.3277 496.745 45.593C496.3 44.839 495.971 43.9013 495.759 42.78C495.565 41.6587 495.469 40.315 495.469 38.749C495.469 37.763 495.478 36.864 495.498 36.052C495.517 35.2207 495.585 34.4667 495.701 33.79C495.836 33.094 496.029 32.4657 496.281 31.905C496.551 31.325 496.928 30.803 497.412 30.339C497.895 29.875 498.456 29.5173 499.094 29.266C499.751 29.0147 500.515 28.831 501.385 28.715C502.255 28.599 503.241 28.5313 504.343 28.512C505.445 28.4733 506.682 28.454 508.055 28.454C510.433 28.454 512.385 28.5023 513.913 28.599C515.459 28.6957 516.677 28.9663 517.567 29.411C518.456 29.8557 519.075 30.5517 519.423 31.499C519.771 32.4463 519.954 33.7707 519.974 35.472H514.29ZM527.923 37.502C527.923 38.488 527.933 39.3193 527.952 39.996C527.991 40.6727 528.068 41.2333 528.184 41.678C528.319 42.1227 528.513 42.461 528.764 42.693C529.035 42.925 529.402 43.099 529.866 43.215C530.349 43.331 530.939 43.3987 531.635 43.418C532.35 43.4373 533.211 43.447 534.216 43.447C536.227 43.447 537.793 43.4277 538.914 43.389C540.035 43.331 540.857 43.1377 541.379 42.809C541.92 42.4803 542.249 41.9487 542.365 41.214C542.481 40.46 542.539 39.3967 542.539 38.024C542.539 36.9027 542.481 36.023 542.365 35.385C542.268 34.7277 542.046 34.2443 541.698 33.935C541.35 33.6063 540.838 33.4033 540.161 33.326C539.484 33.2487 538.585 33.21 537.464 33.21C535.434 33.21 533.791 33.21 532.534 33.21C531.277 33.21 530.311 33.3357 529.634 33.587C528.957 33.819 528.503 34.2347 528.271 34.834C528.039 35.4333 527.923 36.3227 527.923 37.502ZM521.92 40.17C521.92 38.3333 521.939 36.7577 521.978 35.443C522.036 34.109 522.22 32.9877 522.529 32.079C522.858 31.1703 523.36 30.455 524.037 29.933C524.733 29.3917 525.719 29.005 526.995 28.773C527.865 28.6183 529.441 28.5313 531.722 28.512C534.023 28.4733 537.029 28.454 540.741 28.454C541.959 28.454 543.013 28.5603 543.902 28.773C544.791 28.9857 545.536 29.324 546.135 29.788C546.754 30.2327 547.237 30.8223 547.585 31.557C547.933 32.2917 548.175 33.181 548.31 34.225C548.387 34.7663 548.426 35.472 548.426 36.342C548.445 37.212 548.455 38.227 548.455 39.387C548.455 40.7983 548.368 41.997 548.194 42.983C548.02 43.9497 547.72 44.7617 547.295 45.419C546.87 46.0763 546.299 46.5887 545.584 46.956C544.888 47.3233 544.008 47.6037 542.945 47.797C541.882 47.971 540.625 48.0773 539.175 48.116C537.744 48.174 536.072 48.203 534.158 48.203C531.993 48.203 530.137 48.1353 528.59 48C527.043 47.884 525.777 47.565 524.791 47.043C523.805 46.5017 523.08 45.6993 522.616 44.636C522.152 43.5533 521.92 42.0647 521.92 40.17ZM557.026 28.657V48H551.081V28.657H557.026ZM586.962 28.657V48H577.595L565.966 33.471V48H560.398V28.657H569.765L581.394 43.157V28.657H586.962Z" fill="black"/>
</svg>
