<svg width="1104" height="970" viewBox="0 0 1104 970" fill="none" xmlns="http://www.w3.org/2000/svg">
<path d="M310.912 491.013L283.506 440.061L255.714 491.013H310.912ZM325.194 517.647H242.011L229.273 541H185.655L257.451 412.269H310.333L380.585 541H337.353L325.194 517.647ZM433.488 511.857H504.319C506.892 511.857 509.208 511.728 511.267 511.471C513.454 511.214 515.32 510.699 516.864 509.927C518.408 509.026 519.566 507.74 520.338 506.067C521.239 504.394 521.689 502.143 521.689 499.312C521.689 494.809 520.338 491.849 517.636 490.434C514.934 489.019 510.688 488.311 504.898 488.311H433.488V511.857ZM433.488 462.835H500.652C505.799 462.835 509.723 462.127 512.425 460.712C515.256 459.297 516.671 456.144 516.671 451.255C516.671 444.05 512.875 440.447 505.284 440.447H433.488V462.835ZM394.695 540.807V412.269H516.092C529.731 412.269 539.767 414.842 546.2 419.989C552.762 425.007 556.043 433.499 556.043 445.465C556.043 450.74 555.593 455.051 554.692 458.396C553.791 461.741 552.376 464.508 550.446 466.695C548.645 468.882 546.329 470.619 543.498 471.906C540.667 473.193 537.258 474.351 533.269 475.38C537.515 476.023 541.375 476.795 544.849 477.696C548.323 478.597 551.218 480.076 553.534 482.135C555.979 484.065 557.844 486.767 559.131 490.241C560.418 493.715 561.061 498.283 561.061 503.944C561.061 510.892 560.225 516.746 558.552 521.507C557.008 526.139 554.499 529.935 551.025 532.894C547.551 535.725 543.048 537.783 537.515 539.07C532.111 540.228 525.613 540.807 518.022 540.807H394.695ZM613.572 471.134C613.572 477.696 613.637 483.229 613.765 487.732C614.023 492.235 614.537 495.967 615.309 498.926C616.21 501.885 617.497 504.137 619.169 505.681C620.971 507.225 623.415 508.383 626.503 509.155C629.72 509.927 633.644 510.377 638.276 510.506C643.037 510.635 648.763 510.699 655.453 510.699C668.835 510.699 679.257 510.57 686.719 510.313C694.182 509.927 699.65 508.64 703.124 506.453C706.727 504.266 708.914 500.727 709.686 495.838C710.458 490.82 710.844 483.743 710.844 474.608C710.844 467.145 710.458 461.291 709.686 457.045C709.043 452.67 707.563 449.454 705.247 447.395C702.931 445.208 699.522 443.857 695.018 443.342C690.515 442.827 684.532 442.57 677.069 442.57C663.559 442.57 652.623 442.57 644.259 442.57C635.896 442.57 629.463 443.406 624.959 445.079C620.456 446.623 617.432 449.389 615.888 453.378C614.344 457.367 613.572 463.285 613.572 471.134ZM573.621 488.89C573.621 476.667 573.75 466.18 574.007 457.431C574.393 448.553 575.616 441.09 577.674 435.043C579.862 428.996 583.207 424.235 587.71 420.761C592.342 417.158 598.904 414.585 607.396 413.041C613.186 412.012 623.673 411.433 638.855 411.304C654.167 411.047 674.174 410.918 698.878 410.918C706.984 410.918 713.997 411.626 719.915 413.041C725.834 414.456 730.788 416.708 734.776 419.796C738.894 422.755 742.11 426.68 744.426 431.569C746.742 436.458 748.351 442.377 749.251 449.325C749.766 452.928 750.023 457.624 750.023 463.414C750.152 469.204 750.216 475.959 750.216 483.679C750.216 493.072 749.637 501.049 748.479 507.611C747.321 514.044 745.327 519.448 742.496 523.823C739.666 528.198 735.87 531.607 731.109 534.052C726.477 536.497 720.623 538.362 713.546 539.649C706.47 540.807 698.106 541.515 688.456 541.772C678.935 542.158 667.805 542.351 655.067 542.351C640.657 542.351 628.305 541.901 618.011 541C607.718 540.228 599.29 538.105 592.728 534.631C586.166 531.028 581.341 525.689 578.253 518.612C575.165 511.407 573.621 501.499 573.621 488.89ZM893.912 412.269H933.477V493.329C933.477 505.81 931.354 515.653 927.108 522.858C922.862 530.063 915.914 535.274 906.264 538.491C900.732 540.292 894.041 541.386 886.192 541.772C878.344 542.158 869.337 542.351 859.172 542.351C848.493 542.351 838.779 542.287 830.029 542.158C821.409 542.158 813.689 541.772 806.869 541C800.179 540.099 794.324 538.684 789.306 536.754C784.417 534.695 780.364 531.8 777.147 528.069C773.931 524.209 771.55 519.32 770.006 513.401C768.462 507.482 767.69 500.148 767.69 491.399V412.269H807.255V479.819C807.255 485.223 807.384 489.726 807.641 493.329C808.027 496.803 808.735 499.698 809.764 502.014C810.794 504.33 812.273 506.067 814.203 507.225C816.262 508.383 818.964 509.219 822.309 509.734C825.655 510.249 829.772 510.57 834.661 510.699C839.551 510.699 845.469 510.699 852.417 510.699C857.564 510.699 862.132 510.699 866.12 510.699C870.109 510.699 873.583 510.57 876.542 510.313C879.63 509.927 882.204 509.348 884.262 508.576C886.45 507.675 888.251 506.324 889.666 504.523C891.854 501.95 893.076 498.733 893.333 494.873C893.719 491.013 893.912 486.188 893.912 480.398V412.269ZM1044.37 444.5V541H1004.81V444.5H947.1V412.269H1101.11V444.5H1044.37Z" fill="black" fill-opacity="0.06"/>
<path d="M127.912 293.013L100.506 242.061L72.714 293.013H127.912ZM142.194 319.647H59.011L46.273 343H2.655L74.451 214.269H127.333L197.585 343H154.353L142.194 319.647ZM250.488 313.857H321.319C323.892 313.857 326.208 313.728 328.267 313.471C330.454 313.214 332.32 312.699 333.864 311.927C335.408 311.026 336.566 309.74 337.338 308.067C338.239 306.394 338.689 304.143 338.689 301.312C338.689 296.809 337.338 293.849 334.636 292.434C331.934 291.019 327.688 290.311 321.898 290.311H250.488V313.857ZM250.488 264.835H317.652C322.799 264.835 326.723 264.127 329.425 262.712C332.256 261.297 333.671 258.144 333.671 253.255C333.671 246.05 329.875 242.447 322.284 242.447H250.488V264.835ZM211.695 342.807V214.269H333.092C346.731 214.269 356.767 216.842 363.2 221.989C369.762 227.007 373.043 235.499 373.043 247.465C373.043 252.74 372.593 257.051 371.692 260.396C370.791 263.741 369.376 266.508 367.446 268.695C365.645 270.882 363.329 272.619 360.498 273.906C357.667 275.193 354.258 276.351 350.269 277.38C354.515 278.023 358.375 278.795 361.849 279.696C365.323 280.597 368.218 282.076 370.534 284.135C372.979 286.065 374.844 288.767 376.131 292.241C377.418 295.715 378.061 300.283 378.061 305.944C378.061 312.892 377.225 318.746 375.552 323.507C374.008 328.139 371.499 331.935 368.025 334.894C364.551 337.725 360.048 339.783 354.515 341.07C349.111 342.228 342.613 342.807 335.022 342.807H211.695ZM430.572 273.134C430.572 279.696 430.637 285.229 430.765 289.732C431.023 294.235 431.537 297.967 432.309 300.926C433.21 303.885 434.497 306.137 436.169 307.681C437.971 309.225 440.415 310.383 443.503 311.155C446.72 311.927 450.644 312.377 455.276 312.506C460.037 312.635 465.763 312.699 472.453 312.699C485.835 312.699 496.257 312.57 503.719 312.313C511.182 311.927 516.65 310.64 520.124 308.453C523.727 306.266 525.914 302.727 526.686 297.838C527.458 292.82 527.844 285.743 527.844 276.608C527.844 269.145 527.458 263.291 526.686 259.045C526.043 254.67 524.563 251.454 522.247 249.395C519.931 247.208 516.522 245.857 512.018 245.342C507.515 244.827 501.532 244.57 494.069 244.57C480.559 244.57 469.623 244.57 461.259 244.57C452.896 244.57 446.463 245.406 441.959 247.079C437.456 248.623 434.432 251.389 432.888 255.378C431.344 259.367 430.572 265.285 430.572 273.134ZM390.621 290.89C390.621 278.667 390.75 268.18 391.007 259.431C391.393 250.553 392.616 243.09 394.674 237.043C396.862 230.996 400.207 226.235 404.71 222.761C409.342 219.158 415.904 216.585 424.396 215.041C430.186 214.012 440.673 213.433 455.855 213.304C471.167 213.047 491.174 212.918 515.878 212.918C523.984 212.918 530.997 213.626 536.915 215.041C542.834 216.456 547.788 218.708 551.776 221.796C555.894 224.755 559.11 228.68 561.426 233.569C563.742 238.458 565.351 244.377 566.251 251.325C566.766 254.928 567.023 259.624 567.023 265.414C567.152 271.204 567.216 277.959 567.216 285.679C567.216 295.072 566.637 303.049 565.479 309.611C564.321 316.044 562.327 321.448 559.496 325.823C556.666 330.198 552.87 333.607 548.109 336.052C543.477 338.497 537.623 340.362 530.546 341.649C523.47 342.807 515.106 343.515 505.456 343.772C495.935 344.158 484.805 344.351 472.067 344.351C457.657 344.351 445.305 343.901 435.011 343C424.718 342.228 416.29 340.105 409.728 336.631C403.166 333.028 398.341 327.689 395.253 320.612C392.165 313.407 390.621 303.499 390.621 290.89ZM710.912 214.269H750.477V295.329C750.477 307.81 748.354 317.653 744.108 324.858C739.862 332.063 732.914 337.274 723.264 340.491C717.732 342.292 711.041 343.386 703.192 343.772C695.344 344.158 686.337 344.351 676.172 344.351C665.493 344.351 655.779 344.287 647.029 344.158C638.409 344.158 630.689 343.772 623.869 343C617.179 342.099 611.324 340.684 606.306 338.754C601.417 336.695 597.364 333.8 594.147 330.069C590.931 326.209 588.55 321.32 587.006 315.401C585.462 309.482 584.69 302.148 584.69 293.399V214.269H624.255V281.819C624.255 287.223 624.384 291.726 624.641 295.329C625.027 298.803 625.735 301.698 626.764 304.014C627.794 306.33 629.273 308.067 631.203 309.225C633.262 310.383 635.964 311.219 639.309 311.734C642.655 312.249 646.772 312.57 651.661 312.699C656.551 312.699 662.469 312.699 669.417 312.699C674.564 312.699 679.132 312.699 683.12 312.699C687.109 312.699 690.583 312.57 693.542 312.313C696.63 311.927 699.204 311.348 701.262 310.576C703.45 309.675 705.251 308.324 706.666 306.523C708.854 303.95 710.076 300.733 710.333 296.873C710.719 293.013 710.912 288.188 710.912 282.398V214.269ZM861.372 246.5V343H821.807V246.5H764.1V214.269H918.114V246.5H861.372Z" fill="black" fill-opacity="0.06"/>
<path d="M310.912 95.013L283.506 44.061L255.714 95.013H310.912ZM325.194 121.647H242.011L229.273 145H185.655L257.451 16.269H310.333L380.585 145H337.353L325.194 121.647ZM433.488 115.857H504.319C506.892 115.857 509.208 115.728 511.267 115.471C513.454 115.214 515.32 114.699 516.864 113.927C518.408 113.026 519.566 111.74 520.338 110.067C521.239 108.394 521.689 106.143 521.689 103.312C521.689 98.8087 520.338 95.8493 517.636 94.434C514.934 93.0187 510.688 92.311 504.898 92.311H433.488V115.857ZM433.488 66.835H500.652C505.799 66.835 509.723 66.1273 512.425 64.712C515.256 63.2967 516.671 60.1443 516.671 55.255C516.671 48.0497 512.875 44.447 505.284 44.447H433.488V66.835ZM394.695 144.807V16.269H516.092C529.731 16.269 539.767 18.8423 546.2 23.989C552.762 29.007 556.043 37.499 556.043 49.465C556.043 54.7403 555.593 59.0507 554.692 62.396C553.791 65.7413 552.376 68.5077 550.446 70.695C548.645 72.8823 546.329 74.6193 543.498 75.906C540.667 77.1927 537.258 78.3507 533.269 79.38C537.515 80.0233 541.375 80.7953 544.849 81.696C548.323 82.5967 551.218 84.0763 553.534 86.135C555.979 88.065 557.844 90.767 559.131 94.241C560.418 97.715 561.061 102.283 561.061 107.944C561.061 114.892 560.225 120.746 558.552 125.507C557.008 130.139 554.499 133.935 551.025 136.894C547.551 139.725 543.048 141.783 537.515 143.07C532.111 144.228 525.613 144.807 518.022 144.807H394.695ZM613.572 75.134C613.572 81.696 613.637 87.2287 613.765 91.732C614.023 96.2353 614.537 99.9667 615.309 102.926C616.21 105.885 617.497 108.137 619.169 109.681C620.971 111.225 623.415 112.383 626.503 113.155C629.72 113.927 633.644 114.377 638.276 114.506C643.037 114.635 648.763 114.699 655.453 114.699C668.835 114.699 679.257 114.57 686.719 114.313C694.182 113.927 699.65 112.64 703.124 110.453C706.727 108.266 708.914 104.727 709.686 99.838C710.458 94.82 710.844 87.7433 710.844 78.608C710.844 71.1453 710.458 65.291 709.686 61.045C709.043 56.6703 707.563 53.4537 705.247 51.395C702.931 49.2077 699.522 47.8567 695.018 47.342C690.515 46.8273 684.532 46.57 677.069 46.57C663.559 46.57 652.623 46.57 644.259 46.57C635.896 46.57 629.463 47.4063 624.959 49.079C620.456 50.623 617.432 53.3893 615.888 57.378C614.344 61.3667 613.572 67.2853 613.572 75.134ZM573.621 92.89C573.621 80.6667 573.75 70.1803 574.007 61.431C574.393 52.553 575.616 45.0903 577.674 39.043C579.862 32.9957 583.207 28.235 587.71 24.761C592.342 21.1583 598.904 18.585 607.396 17.041C613.186 16.0117 623.673 15.4327 638.855 15.304C654.167 15.0467 674.174 14.918 698.878 14.918C706.984 14.918 713.997 15.6257 719.915 17.041C725.834 18.4563 730.788 20.708 734.776 23.796C738.894 26.7553 742.11 30.6797 744.426 35.569C746.742 40.4583 748.351 46.377 749.251 53.325C749.766 56.9277 750.023 61.624 750.023 67.414C750.152 73.204 750.216 79.959 750.216 87.679C750.216 97.0717 749.637 105.049 748.479 111.611C747.321 118.044 745.327 123.448 742.496 127.823C739.666 132.198 735.87 135.607 731.109 138.052C726.477 140.497 720.623 142.362 713.546 143.649C706.47 144.807 698.106 145.515 688.456 145.772C678.935 146.158 667.805 146.351 655.067 146.351C640.657 146.351 628.305 145.901 618.011 145C607.718 144.228 599.29 142.105 592.728 138.631C586.166 135.028 581.341 129.689 578.253 122.612C575.165 115.407 573.621 105.499 573.621 92.89ZM893.912 16.269H933.477V97.329C933.477 109.81 931.354 119.653 927.108 126.858C922.862 134.063 915.914 139.274 906.264 142.491C900.732 144.292 894.041 145.386 886.192 145.772C878.344 146.158 869.337 146.351 859.172 146.351C848.493 146.351 838.779 146.287 830.029 146.158C821.409 146.158 813.689 145.772 806.869 145C800.179 144.099 794.324 142.684 789.306 140.754C784.417 138.695 780.364 135.8 777.147 132.069C773.931 128.209 771.55 123.32 770.006 117.401C768.462 111.482 767.69 104.148 767.69 95.399V16.269H807.255V83.819C807.255 89.223 807.384 93.7263 807.641 97.329C808.027 100.803 808.735 103.698 809.764 106.014C810.794 108.33 812.273 110.067 814.203 111.225C816.262 112.383 818.964 113.219 822.309 113.734C825.655 114.249 829.772 114.57 834.661 114.699C839.551 114.699 845.469 114.699 852.417 114.699C857.564 114.699 862.132 114.699 866.12 114.699C870.109 114.699 873.583 114.57 876.542 114.313C879.63 113.927 882.204 113.348 884.262 112.576C886.45 111.675 888.251 110.324 889.666 108.523C891.854 105.95 893.076 102.733 893.333 98.873C893.719 95.013 893.912 90.188 893.912 84.398V16.269ZM1044.37 48.5V145H1004.81V48.5H947.1V16.269H1101.11V48.5H1044.37Z" fill="black" fill-opacity="0.06"/>
<path d="M127.912 689.013L100.506 638.061L72.714 689.013H127.912ZM142.194 715.647H59.011L46.273 739H2.655L74.451 610.269H127.333L197.585 739H154.353L142.194 715.647ZM250.488 709.857H321.319C323.892 709.857 326.208 709.728 328.267 709.471C330.454 709.214 332.32 708.699 333.864 707.927C335.408 707.026 336.566 705.74 337.338 704.067C338.239 702.394 338.689 700.143 338.689 697.312C338.689 692.809 337.338 689.849 334.636 688.434C331.934 687.019 327.688 686.311 321.898 686.311H250.488V709.857ZM250.488 660.835H317.652C322.799 660.835 326.723 660.127 329.425 658.712C332.256 657.297 333.671 654.144 333.671 649.255C333.671 642.05 329.875 638.447 322.284 638.447H250.488V660.835ZM211.695 738.807V610.269H333.092C346.731 610.269 356.767 612.842 363.2 617.989C369.762 623.007 373.043 631.499 373.043 643.465C373.043 648.74 372.593 653.051 371.692 656.396C370.791 659.741 369.376 662.508 367.446 664.695C365.645 666.882 363.329 668.619 360.498 669.906C357.667 671.193 354.258 672.351 350.269 673.38C354.515 674.023 358.375 674.795 361.849 675.696C365.323 676.597 368.218 678.076 370.534 680.135C372.979 682.065 374.844 684.767 376.131 688.241C377.418 691.715 378.061 696.283 378.061 701.944C378.061 708.892 377.225 714.746 375.552 719.507C374.008 724.139 371.499 727.935 368.025 730.894C364.551 733.725 360.048 735.783 354.515 737.07C349.111 738.228 342.613 738.807 335.022 738.807H211.695ZM430.572 669.134C430.572 675.696 430.637 681.229 430.765 685.732C431.023 690.235 431.537 693.967 432.309 696.926C433.21 699.885 434.497 702.137 436.169 703.681C437.971 705.225 440.415 706.383 443.503 707.155C446.72 707.927 450.644 708.377 455.276 708.506C460.037 708.635 465.763 708.699 472.453 708.699C485.835 708.699 496.257 708.57 503.719 708.313C511.182 707.927 516.65 706.64 520.124 704.453C523.727 702.266 525.914 698.727 526.686 693.838C527.458 688.82 527.844 681.743 527.844 672.608C527.844 665.145 527.458 659.291 526.686 655.045C526.043 650.67 524.563 647.454 522.247 645.395C519.931 643.208 516.522 641.857 512.018 641.342C507.515 640.827 501.532 640.57 494.069 640.57C480.559 640.57 469.623 640.57 461.259 640.57C452.896 640.57 446.463 641.406 441.959 643.079C437.456 644.623 434.432 647.389 432.888 651.378C431.344 655.367 430.572 661.285 430.572 669.134ZM390.621 686.89C390.621 674.667 390.75 664.18 391.007 655.431C391.393 646.553 392.616 639.09 394.674 633.043C396.862 626.996 400.207 622.235 404.71 618.761C409.342 615.158 415.904 612.585 424.396 611.041C430.186 610.012 440.673 609.433 455.855 609.304C471.167 609.047 491.174 608.918 515.878 608.918C523.984 608.918 530.997 609.626 536.915 611.041C542.834 612.456 547.788 614.708 551.776 617.796C555.894 620.755 559.11 624.68 561.426 629.569C563.742 634.458 565.351 640.377 566.251 647.325C566.766 650.928 567.023 655.624 567.023 661.414C567.152 667.204 567.216 673.959 567.216 681.679C567.216 691.072 566.637 699.049 565.479 705.611C564.321 712.044 562.327 717.448 559.496 721.823C556.666 726.198 552.87 729.607 548.109 732.052C543.477 734.497 537.623 736.362 530.546 737.649C523.47 738.807 515.106 739.515 505.456 739.772C495.935 740.158 484.805 740.351 472.067 740.351C457.657 740.351 445.305 739.901 435.011 739C424.718 738.228 416.29 736.105 409.728 732.631C403.166 729.028 398.341 723.689 395.253 716.612C392.165 709.407 390.621 699.499 390.621 686.89ZM710.912 610.269H750.477V691.329C750.477 703.81 748.354 713.653 744.108 720.858C739.862 728.063 732.914 733.274 723.264 736.491C717.732 738.292 711.041 739.386 703.192 739.772C695.344 740.158 686.337 740.351 676.172 740.351C665.493 740.351 655.779 740.287 647.029 740.158C638.409 740.158 630.689 739.772 623.869 739C617.179 738.099 611.324 736.684 606.306 734.754C601.417 732.695 597.364 729.8 594.147 726.069C590.931 722.209 588.55 717.32 587.006 711.401C585.462 705.482 584.69 698.148 584.69 689.399V610.269H624.255V677.819C624.255 683.223 624.384 687.726 624.641 691.329C625.027 694.803 625.735 697.698 626.764 700.014C627.794 702.33 629.273 704.067 631.203 705.225C633.262 706.383 635.964 707.219 639.309 707.734C642.655 708.249 646.772 708.57 651.661 708.699C656.551 708.699 662.469 708.699 669.417 708.699C674.564 708.699 679.132 708.699 683.12 708.699C687.109 708.699 690.583 708.57 693.542 708.313C696.63 707.927 699.204 707.348 701.262 706.576C703.45 705.675 705.251 704.324 706.666 702.523C708.854 699.95 710.076 696.733 710.333 692.873C710.719 689.013 710.912 684.188 710.912 678.398V610.269ZM861.372 642.5V739H821.807V642.5H764.1V610.269H918.114V642.5H861.372Z" fill="black" fill-opacity="0.06"/>
<path d="M310.912 887.013L283.506 836.061L255.714 887.013H310.912ZM325.194 913.647H242.011L229.273 937H185.655L257.451 808.269H310.333L380.585 937H337.353L325.194 913.647ZM433.488 907.857H504.319C506.892 907.857 509.208 907.728 511.267 907.471C513.454 907.214 515.32 906.699 516.864 905.927C518.408 905.026 519.566 903.74 520.338 902.067C521.239 900.394 521.689 898.143 521.689 895.312C521.689 890.809 520.338 887.849 517.636 886.434C514.934 885.019 510.688 884.311 504.898 884.311H433.488V907.857ZM433.488 858.835H500.652C505.799 858.835 509.723 858.127 512.425 856.712C515.256 855.297 516.671 852.144 516.671 847.255C516.671 840.05 512.875 836.447 505.284 836.447H433.488V858.835ZM394.695 936.807V808.269H516.092C529.731 808.269 539.767 810.842 546.2 815.989C552.762 821.007 556.043 829.499 556.043 841.465C556.043 846.74 555.593 851.051 554.692 854.396C553.791 857.741 552.376 860.508 550.446 862.695C548.645 864.882 546.329 866.619 543.498 867.906C540.667 869.193 537.258 870.351 533.269 871.38C537.515 872.023 541.375 872.795 544.849 873.696C548.323 874.597 551.218 876.076 553.534 878.135C555.979 880.065 557.844 882.767 559.131 886.241C560.418 889.715 561.061 894.283 561.061 899.944C561.061 906.892 560.225 912.746 558.552 917.507C557.008 922.139 554.499 925.935 551.025 928.894C547.551 931.725 543.048 933.783 537.515 935.07C532.111 936.228 525.613 936.807 518.022 936.807H394.695ZM613.572 867.134C613.572 873.696 613.637 879.229 613.765 883.732C614.023 888.235 614.537 891.967 615.309 894.926C616.21 897.885 617.497 900.137 619.169 901.681C620.971 903.225 623.415 904.383 626.503 905.155C629.72 905.927 633.644 906.377 638.276 906.506C643.037 906.635 648.763 906.699 655.453 906.699C668.835 906.699 679.257 906.57 686.719 906.313C694.182 905.927 699.65 904.64 703.124 902.453C706.727 900.266 708.914 896.727 709.686 891.838C710.458 886.82 710.844 879.743 710.844 870.608C710.844 863.145 710.458 857.291 709.686 853.045C709.043 848.67 707.563 845.454 705.247 843.395C702.931 841.208 699.522 839.857 695.018 839.342C690.515 838.827 684.532 838.57 677.069 838.57C663.559 838.57 652.623 838.57 644.259 838.57C635.896 838.57 629.463 839.406 624.959 841.079C620.456 842.623 617.432 845.389 615.888 849.378C614.344 853.367 613.572 859.285 613.572 867.134ZM573.621 884.89C573.621 872.667 573.75 862.18 574.007 853.431C574.393 844.553 575.616 837.09 577.674 831.043C579.862 824.996 583.207 820.235 587.71 816.761C592.342 813.158 598.904 810.585 607.396 809.041C613.186 808.012 623.673 807.433 638.855 807.304C654.167 807.047 674.174 806.918 698.878 806.918C706.984 806.918 713.997 807.626 719.915 809.041C725.834 810.456 730.788 812.708 734.776 815.796C738.894 818.755 742.11 822.68 744.426 827.569C746.742 832.458 748.351 838.377 749.251 845.325C749.766 848.928 750.023 853.624 750.023 859.414C750.152 865.204 750.216 871.959 750.216 879.679C750.216 889.072 749.637 897.049 748.479 903.611C747.321 910.044 745.327 915.448 742.496 919.823C739.666 924.198 735.87 927.607 731.109 930.052C726.477 932.497 720.623 934.362 713.546 935.649C706.47 936.807 698.106 937.515 688.456 937.772C678.935 938.158 667.805 938.351 655.067 938.351C640.657 938.351 628.305 937.901 618.011 937C607.718 936.228 599.29 934.105 592.728 930.631C586.166 927.028 581.341 921.689 578.253 914.612C575.165 907.407 573.621 897.499 573.621 884.89ZM893.912 808.269H933.477V889.329C933.477 901.81 931.354 911.653 927.108 918.858C922.862 926.063 915.914 931.274 906.264 934.491C900.732 936.292 894.041 937.386 886.192 937.772C878.344 938.158 869.337 938.351 859.172 938.351C848.493 938.351 838.779 938.287 830.029 938.158C821.409 938.158 813.689 937.772 806.869 937C800.179 936.099 794.324 934.684 789.306 932.754C784.417 930.695 780.364 927.8 777.147 924.069C773.931 920.209 771.55 915.32 770.006 909.401C768.462 903.482 767.69 896.148 767.69 887.399V808.269H807.255V875.819C807.255 881.223 807.384 885.726 807.641 889.329C808.027 892.803 808.735 895.698 809.764 898.014C810.794 900.33 812.273 902.067 814.203 903.225C816.262 904.383 818.964 905.219 822.309 905.734C825.655 906.249 829.772 906.57 834.661 906.699C839.551 906.699 845.469 906.699 852.417 906.699C857.564 906.699 862.132 906.699 866.12 906.699C870.109 906.699 873.583 906.57 876.542 906.313C879.63 905.927 882.204 905.348 884.262 904.576C886.45 903.675 888.251 902.324 889.666 900.523C891.854 897.95 893.076 894.733 893.333 890.873C893.719 887.013 893.912 882.188 893.912 876.398V808.269ZM1044.37 840.5V937H1004.81V840.5H947.1V808.269H1101.11V840.5H1044.37Z" fill="black" fill-opacity="0.06"/>
</svg>
