<svg width="319" height="77" viewBox="0 0 319 77" fill="none" xmlns="http://www.w3.org/2000/svg">
<mask id="path-1-outside-1_27_135" maskUnits="userSpaceOnUse" x="0" y="0" width="319" height="77" fill="black">
<rect fill="white" width="319" height="77"/>
<path d="M1 11C1 5.47715 5.47715 1 11 1H304C309.523 1 314 5.47715 314 11V62C314 67.5229 309.523 72 304 72H11C5.47715 72 1 67.5229 1 62V11Z"/>
</mask>
<path d="M1 11C1 5.47715 5.47715 1 11 1H304C309.523 1 314 5.47715 314 11V62C314 67.5229 309.523 72 304 72H11C5.47715 72 1 67.5229 1 62V11Z" fill="black"/>
<path d="M0 11C0 4.92487 4.92487 0 11 0H308C314.075 0 319 4.92487 319 11H309C309 6.02944 306.761 2 304 2H11C6.02944 2 2 6.02944 2 11H0ZM319 62C319 70.2843 312.284 77 304 77H11C4.92487 77 0 72.0751 0 66L2 62C2 64.7614 6.02944 67 11 67H304C306.761 67 309 64.7614 309 62H319ZM11 77C4.92487 77 0 72.0751 0 66V11C0 4.92487 4.92487 0 11 0V2C6.02944 2 2 6.02944 2 11V62C2 64.7614 6.02944 67 11 67V77ZM308 0C314.075 0 319 4.92487 319 11V62C319 70.2843 312.284 77 304 77V67C306.761 67 309 64.7614 309 62V11C309 6.02944 306.761 2 304 2L308 0Z" fill="#0068B1" mask="url(#path-1-outside-1_27_135)"/>
<path d="M22.8469 41.074H32.3889C32.7356 41.074 33.0476 41.0567 33.3249 41.022C33.6196 40.9873 33.8709 40.918 34.0789 40.814C34.2869 40.6927 34.4429 40.5193 34.5469 40.294C34.6682 40.0687 34.7289 39.7653 34.7289 39.384C34.7289 38.7773 34.5469 38.3787 34.1829 38.188C33.8189 37.9973 33.2469 37.902 32.4669 37.902H22.8469V41.074ZM22.8469 34.47H31.8949C32.5882 34.47 33.1169 34.3747 33.4809 34.184C33.8622 33.9933 34.0529 33.5687 34.0529 32.91C34.0529 31.9393 33.5416 31.454 32.5189 31.454H22.8469V34.47ZM17.6209 44.974V27.658H33.9749C35.8122 27.658 37.1642 28.0047 38.0309 28.698C38.9149 29.374 39.3569 30.518 39.3569 32.13C39.3569 32.8407 39.2962 33.4213 39.1749 33.872C39.0536 34.3227 38.8629 34.6953 38.6029 34.99C38.3602 35.2847 38.0482 35.5187 37.6669 35.692C37.2856 35.8653 36.8262 36.0213 36.2889 36.16C36.8609 36.2467 37.3809 36.3507 37.8489 36.472C38.3169 36.5933 38.7069 36.7927 39.0189 37.07C39.3482 37.33 39.5996 37.694 39.7729 38.162C39.9462 38.63 40.0329 39.2453 40.0329 40.008C40.0329 40.944 39.9202 41.7327 39.6949 42.374C39.4869 42.998 39.1489 43.5093 38.6809 43.908C38.2129 44.2893 37.6062 44.5667 36.8609 44.74C36.1329 44.896 35.2576 44.974 34.2349 44.974H17.6209ZM59.4569 27.658H64.7869V38.578C64.7869 40.2593 64.5009 41.5853 63.9289 42.556C63.3569 43.5267 62.4209 44.2287 61.1209 44.662C60.3756 44.9047 59.4743 45.052 58.4169 45.104C57.3596 45.156 56.1463 45.182 54.7769 45.182C53.3383 45.182 52.0296 45.1733 50.8509 45.156C49.6896 45.156 48.6496 45.104 47.7309 45C46.8296 44.8787 46.0409 44.688 45.3649 44.428C44.7063 44.1507 44.1603 43.7607 43.7269 43.258C43.2936 42.738 42.9729 42.0793 42.7649 41.282C42.5569 40.4847 42.4529 39.4967 42.4529 38.318V27.658H47.7829V36.758C47.7829 37.486 47.8003 38.0927 47.8349 38.578C47.8869 39.046 47.9823 39.436 48.1209 39.748C48.2596 40.06 48.4589 40.294 48.7189 40.45C48.9963 40.606 49.3603 40.7187 49.8109 40.788C50.2616 40.8573 50.8163 40.9007 51.4749 40.918C52.1336 40.918 52.9309 40.918 53.8669 40.918C54.5603 40.918 55.1756 40.918 55.7129 40.918C56.2503 40.918 56.7183 40.9007 57.1169 40.866C57.5329 40.814 57.8796 40.736 58.1569 40.632C58.4516 40.5107 58.6943 40.3287 58.8849 40.086C59.1796 39.7393 59.3443 39.306 59.3789 38.786C59.4309 38.266 59.4569 37.616 59.4569 36.836V27.658ZM79.1542 34.808L84.9782 27.658H91.6082L81.8842 38.916V45H76.4762V38.916L66.6222 27.658H73.2782L79.1542 34.808ZM115.347 33.768C115.33 33.2307 115.252 32.8233 115.113 32.546C114.974 32.2687 114.714 32.0693 114.333 31.948C113.952 31.8267 113.406 31.766 112.695 31.766C112.002 31.7487 111.083 31.74 109.939 31.74C108.639 31.74 107.59 31.7573 106.793 31.792C105.996 31.8093 105.372 31.9307 104.921 32.156C104.47 32.3813 104.167 32.7627 104.011 33.3C103.855 33.82 103.777 34.5827 103.777 35.588C103.777 36.8707 103.812 37.8673 103.881 38.578C103.968 39.2713 104.202 39.7913 104.583 40.138C104.982 40.4673 105.588 40.6667 106.403 40.736C107.218 40.788 108.353 40.814 109.809 40.814C110.901 40.814 111.811 40.814 112.539 40.814C113.267 40.814 113.839 40.7447 114.255 40.606C114.688 40.4673 114.992 40.2333 115.165 39.904C115.356 39.5573 115.451 39.046 115.451 38.37H120.651C120.651 38.5087 120.651 38.6387 120.651 38.76C120.668 38.864 120.677 38.9853 120.677 39.124C120.677 40.008 120.616 40.788 120.495 41.464C120.391 42.14 120.2 42.712 119.923 43.18C119.646 43.648 119.273 44.0207 118.805 44.298C118.337 44.5753 117.756 44.7487 117.063 44.818C115.936 44.9393 114.87 45.026 113.865 45.078C112.877 45.1473 111.967 45.182 111.135 45.182C108.414 45.182 105.874 45.104 103.517 44.948C102.598 44.896 101.818 44.6967 101.177 44.35C100.536 44.0033 100.016 43.5007 99.617 42.842C99.2183 42.166 98.9237 41.3253 98.733 40.32C98.5597 39.3147 98.473 38.11 98.473 36.706C98.473 35.822 98.4817 35.016 98.499 34.288C98.5163 33.5427 98.577 32.8667 98.681 32.26C98.8023 31.636 98.9757 31.0727 99.201 30.57C99.4437 30.05 99.7817 29.582 100.215 29.166C100.648 28.75 101.151 28.4293 101.723 28.204C102.312 27.9787 102.997 27.814 103.777 27.71C104.557 27.606 105.441 27.5453 106.429 27.528C107.417 27.4933 108.526 27.476 109.757 27.476C111.889 27.476 113.64 27.5193 115.009 27.606C116.396 27.6927 117.488 27.9353 118.285 28.334C119.082 28.7327 119.637 29.3567 119.949 30.206C120.261 31.0553 120.426 32.2427 120.443 33.768H115.347ZM138.594 38.266L134.902 31.402L131.158 38.266H138.594ZM140.518 41.854H129.312L127.596 45H121.72L131.392 27.658H138.516L147.98 45H142.156L140.518 41.854ZM165.039 32.962C165.021 32.5633 164.952 32.2513 164.831 32.026C164.709 31.7833 164.493 31.61 164.181 31.506C163.886 31.3847 163.487 31.3067 162.985 31.272C162.499 31.2373 161.867 31.22 161.087 31.22C160.948 31.22 160.835 31.22 160.749 31.22C160.662 31.22 160.549 31.2287 160.411 31.246C159.284 31.298 158.339 31.324 157.577 31.324C156.814 31.324 156.199 31.3673 155.731 31.454C155.263 31.5233 154.925 31.662 154.717 31.87C154.509 32.078 154.405 32.4247 154.405 32.91C154.405 33.3433 154.561 33.6727 154.873 33.898C155.185 34.106 155.618 34.2187 156.173 34.236C156.953 34.2533 157.689 34.2707 158.383 34.288C159.093 34.3053 159.752 34.314 160.359 34.314C160.723 34.314 161.095 34.314 161.477 34.314C161.875 34.2967 162.248 34.288 162.595 34.288C164.033 34.288 165.281 34.3313 166.339 34.418C167.396 34.4873 168.263 34.6953 168.939 35.042C169.632 35.3887 170.143 35.9173 170.473 36.628C170.802 37.3387 170.967 38.3353 170.967 39.618C170.967 40.5193 170.88 41.282 170.707 41.906C170.533 42.53 170.256 43.05 169.875 43.466C169.511 43.8647 169.043 44.1767 168.471 44.402C167.899 44.6273 167.214 44.7833 166.417 44.87C165.949 44.922 165.047 44.9827 163.713 45.052C162.378 45.1213 160.671 45.156 158.591 45.156C156.545 45.156 154.873 45.0953 153.573 44.974C152.29 44.8527 151.354 44.584 150.765 44.168C150.349 43.8733 150.037 43.5613 149.829 43.232C149.638 42.8853 149.499 42.5213 149.413 42.14C149.343 41.7587 149.309 41.3513 149.309 40.918C149.309 40.4673 149.309 39.982 149.309 39.462H154.535C154.535 39.6527 154.535 39.852 154.535 40.06C154.535 40.268 154.578 40.4587 154.665 40.632C154.751 40.788 154.907 40.9353 155.133 41.074C155.358 41.1953 155.705 41.2733 156.173 41.308C156.398 41.3253 156.814 41.3427 157.421 41.36C158.045 41.3773 158.825 41.386 159.761 41.386C160.974 41.386 161.962 41.3773 162.725 41.36C163.505 41.3427 164.111 41.282 164.545 41.178C164.978 41.074 165.273 40.918 165.429 40.71C165.585 40.502 165.663 40.1987 165.663 39.8C165.663 39.4187 165.585 39.124 165.429 38.916C165.273 38.6907 165.047 38.5347 164.753 38.448C164.458 38.344 164.103 38.2833 163.687 38.266C163.288 38.2487 162.846 38.24 162.361 38.24C160.662 38.2227 159.154 38.2227 157.837 38.24C156.519 38.24 155.375 38.2053 154.405 38.136C153.434 38.0667 152.611 37.9453 151.935 37.772C151.276 37.5987 150.739 37.3213 150.323 36.94C149.924 36.5587 149.629 36.056 149.439 35.432C149.265 34.808 149.179 34.0193 149.179 33.066C149.179 32.2167 149.248 31.48 149.387 30.856C149.543 30.232 149.794 29.712 150.141 29.296C150.487 28.8627 150.938 28.5333 151.493 28.308C152.065 28.0653 152.767 27.892 153.599 27.788C154.153 27.7187 155.046 27.6493 156.277 27.58C157.525 27.5107 159.085 27.476 160.957 27.476C161.945 27.476 162.829 27.4847 163.609 27.502C164.406 27.502 165.108 27.5367 165.715 27.606C166.339 27.6753 166.885 27.7793 167.353 27.918C167.821 28.0393 168.228 28.23 168.575 28.49C168.956 28.7673 169.251 29.062 169.459 29.374C169.684 29.686 169.849 30.024 169.953 30.388C170.057 30.752 170.126 31.1507 170.161 31.584C170.195 32 170.213 32.4593 170.213 32.962H165.039ZM178.545 27.658V45H173.215V27.658H178.545ZM186.222 35.588C186.222 36.472 186.231 37.2173 186.248 37.824C186.283 38.4307 186.352 38.9333 186.456 39.332C186.578 39.7307 186.751 40.034 186.976 40.242C187.219 40.45 187.548 40.606 187.964 40.71C188.398 40.814 188.926 40.8747 189.55 40.892C190.192 40.9093 190.963 40.918 191.864 40.918C193.667 40.918 195.071 40.9007 196.076 40.866C197.082 40.814 197.818 40.6407 198.286 40.346C198.772 40.0513 199.066 39.5747 199.17 38.916C199.274 38.24 199.326 37.2867 199.326 36.056C199.326 35.0507 199.274 34.262 199.17 33.69C199.084 33.1007 198.884 32.6673 198.572 32.39C198.26 32.0953 197.801 31.9133 197.194 31.844C196.588 31.7747 195.782 31.74 194.776 31.74C192.956 31.74 191.483 31.74 190.356 31.74C189.23 31.74 188.363 31.8527 187.756 32.078C187.15 32.286 186.742 32.6587 186.534 33.196C186.326 33.7333 186.222 34.5307 186.222 35.588ZM180.84 37.98C180.84 36.3333 180.858 34.9207 180.892 33.742C180.944 32.546 181.109 31.5407 181.386 30.726C181.681 29.9113 182.132 29.27 182.738 28.802C183.362 28.3167 184.246 27.97 185.39 27.762C186.17 27.6233 187.583 27.5453 189.628 27.528C191.691 27.4933 194.386 27.476 197.714 27.476C198.806 27.476 199.751 27.5713 200.548 27.762C201.346 27.9527 202.013 28.256 202.55 28.672C203.105 29.0707 203.538 29.5993 203.85 30.258C204.162 30.9167 204.379 31.714 204.5 32.65C204.57 33.1353 204.604 33.768 204.604 34.548C204.622 35.328 204.63 36.238 204.63 37.278C204.63 38.5433 204.552 39.618 204.396 40.502C204.24 41.3687 203.972 42.0967 203.59 42.686C203.209 43.2753 202.698 43.7347 202.056 44.064C201.432 44.3933 200.644 44.6447 199.69 44.818C198.737 44.974 197.61 45.0693 196.31 45.104C195.028 45.156 193.528 45.182 191.812 45.182C189.871 45.182 188.207 45.1213 186.82 45C185.434 44.896 184.298 44.61 183.414 44.142C182.53 43.6567 181.88 42.9373 181.464 41.984C181.048 41.0133 180.84 39.6787 180.84 37.98ZM223.13 33.768C223.113 33.2307 223.035 32.8233 222.896 32.546C222.758 32.2687 222.498 32.0693 222.116 31.948C221.735 31.8267 221.189 31.766 220.478 31.766C219.785 31.7487 218.866 31.74 217.722 31.74C216.422 31.74 215.374 31.7573 214.576 31.792C213.779 31.8093 213.155 31.9307 212.704 32.156C212.254 32.3813 211.95 32.7627 211.794 33.3C211.638 33.82 211.56 34.5827 211.56 35.588C211.56 36.8707 211.595 37.8673 211.664 38.578C211.751 39.2713 211.985 39.7913 212.366 40.138C212.765 40.4673 213.372 40.6667 214.186 40.736C215.001 40.788 216.136 40.814 217.592 40.814C218.684 40.814 219.594 40.814 220.322 40.814C221.05 40.814 221.622 40.7447 222.038 40.606C222.472 40.4673 222.775 40.2333 222.948 39.904C223.139 39.5573 223.234 39.046 223.234 38.37H228.434C228.434 38.5087 228.434 38.6387 228.434 38.76C228.452 38.864 228.46 38.9853 228.46 39.124C228.46 40.008 228.4 40.788 228.278 41.464C228.174 42.14 227.984 42.712 227.706 43.18C227.429 43.648 227.056 44.0207 226.588 44.298C226.12 44.5753 225.54 44.7487 224.846 44.818C223.72 44.9393 222.654 45.026 221.648 45.078C220.66 45.1473 219.75 45.182 218.918 45.182C216.197 45.182 213.658 45.104 211.3 44.948C210.382 44.896 209.602 44.6967 208.96 44.35C208.319 44.0033 207.799 43.5007 207.4 42.842C207.002 42.166 206.707 41.3253 206.516 40.32C206.343 39.3147 206.256 38.11 206.256 36.706C206.256 35.822 206.265 35.016 206.282 34.288C206.3 33.5427 206.36 32.8667 206.464 32.26C206.586 31.636 206.759 31.0727 206.984 30.57C207.227 30.05 207.565 29.582 207.998 29.166C208.432 28.75 208.934 28.4293 209.506 28.204C210.096 27.9787 210.78 27.814 211.56 27.71C212.34 27.606 213.224 27.5453 214.212 27.528C215.2 27.4933 216.31 27.476 217.54 27.476C219.672 27.476 221.423 27.5193 222.792 27.606C224.179 27.6927 225.271 27.9353 226.068 28.334C226.866 28.7327 227.42 29.3567 227.732 30.206C228.044 31.0553 228.209 32.2427 228.226 33.768H223.13ZM235.353 35.588C235.353 36.472 235.362 37.2173 235.379 37.824C235.414 38.4307 235.483 38.9333 235.587 39.332C235.708 39.7307 235.882 40.034 236.107 40.242C236.35 40.45 236.679 40.606 237.095 40.71C237.528 40.814 238.057 40.8747 238.681 40.892C239.322 40.9093 240.094 40.918 240.995 40.918C242.798 40.918 244.202 40.9007 245.207 40.866C246.212 40.814 246.949 40.6407 247.417 40.346C247.902 40.0513 248.197 39.5747 248.301 38.916C248.405 38.24 248.457 37.2867 248.457 36.056C248.457 35.0507 248.405 34.262 248.301 33.69C248.214 33.1007 248.015 32.6673 247.703 32.39C247.391 32.0953 246.932 31.9133 246.325 31.844C245.718 31.7747 244.912 31.74 243.907 31.74C242.087 31.74 240.614 31.74 239.487 31.74C238.36 31.74 237.494 31.8527 236.887 32.078C236.28 32.286 235.873 32.6587 235.665 33.196C235.457 33.7333 235.353 34.5307 235.353 35.588ZM229.971 37.98C229.971 36.3333 229.988 34.9207 230.023 33.742C230.075 32.546 230.24 31.5407 230.517 30.726C230.812 29.9113 231.262 29.27 231.869 28.802C232.493 28.3167 233.377 27.97 234.521 27.762C235.301 27.6233 236.714 27.5453 238.759 27.528C240.822 27.4933 243.517 27.476 246.845 27.476C247.937 27.476 248.882 27.5713 249.679 27.762C250.476 27.9527 251.144 28.256 251.681 28.672C252.236 29.0707 252.669 29.5993 252.981 30.258C253.293 30.9167 253.51 31.714 253.631 32.65C253.7 33.1353 253.735 33.768 253.735 34.548C253.752 35.328 253.761 36.238 253.761 37.278C253.761 38.5433 253.683 39.618 253.527 40.502C253.371 41.3687 253.102 42.0967 252.721 42.686C252.34 43.2753 251.828 43.7347 251.187 44.064C250.563 44.3933 249.774 44.6447 248.821 44.818C247.868 44.974 246.741 45.0693 245.441 45.104C244.158 45.156 242.659 45.182 240.943 45.182C239.002 45.182 237.338 45.1213 235.951 45C234.564 44.896 233.429 44.61 232.545 44.142C231.661 43.6567 231.011 42.9373 230.595 41.984C230.179 41.0133 229.971 39.6787 229.971 37.98ZM261.445 27.658V45H256.115V27.658H261.445ZM288.285 27.658V45H279.887L269.461 31.974V45H264.469V27.658H272.867L283.293 40.658V27.658H288.285ZM296.844 27.658L296.558 37.902H291.956L291.722 27.658H296.844ZM296.818 40.164V45H291.592V40.164H296.818Z" fill="#008DF0"/>
</svg>
