<svg width="264" height="76" viewBox="0 0 264 76" fill="none" xmlns="http://www.w3.org/2000/svg">
<mask id="path-1-outside-1_16_33" maskUnits="userSpaceOnUse" x="0" y="0" width="264" height="76" fill="black">
<rect fill="white" width="264" height="76"/>
<path d="M0 10C0 4.47715 4.47715 0 10 0H249C254.523 0 259 4.47715 259 10V61C259 66.5229 254.523 71 249 71H10C4.47715 71 0 66.5229 0 61V10Z"/>
</mask>
<path d="M0 10C0 4.47715 4.47715 0 10 0H249C254.523 0 259 4.47715 259 10V61C259 66.5229 254.523 71 249 71H10C4.47715 71 0 66.5229 0 61V10Z" fill="#008DF0"/>
<path d="M0 0H259H0ZM264 61C264 69.2843 257.284 76 249 76H15C6.71573 76 0 69.2843 0 61C0 63.7614 4.47715 66 10 66H249C251.761 66 254 63.7614 254 61H264ZM0 71V0V71ZM249 0C257.284 0 264 6.71573 264 15V61C264 69.2843 257.284 76 249 76V66C251.761 66 254 63.7614 254 61V10C254 4.47715 251.761 0 249 0Z" fill="#0068B1" mask="url(#path-1-outside-1_16_33)"/>
<path d="M43.9192 40.074H53.4612C53.8078 40.074 54.1198 40.0567 54.3972 40.022C54.6918 39.9873 54.9432 39.918 55.1512 39.814C55.3592 39.6927 55.5152 39.5193 55.6192 39.294C55.7405 39.0687 55.8012 38.7653 55.8012 38.384C55.8012 37.7773 55.6192 37.3787 55.2552 37.188C54.8912 36.9973 54.3192 36.902 53.5392 36.902H43.9192V40.074ZM43.9192 33.47H52.9672C53.6605 33.47 54.1892 33.3747 54.5532 33.184C54.9345 32.9933 55.1252 32.5687 55.1252 31.91C55.1252 30.9393 54.6138 30.454 53.5912 30.454H43.9192V33.47ZM38.6932 43.974V26.658H55.0472C56.8845 26.658 58.2365 27.0047 59.1032 27.698C59.9872 28.374 60.4292 29.518 60.4292 31.13C60.4292 31.8407 60.3685 32.4213 60.2472 32.872C60.1258 33.3227 59.9352 33.6953 59.6752 33.99C59.4325 34.2847 59.1205 34.5187 58.7392 34.692C58.3578 34.8653 57.8985 35.0213 57.3612 35.16C57.9332 35.2467 58.4532 35.3507 58.9212 35.472C59.3892 35.5933 59.7792 35.7927 60.0912 36.07C60.4205 36.33 60.6718 36.694 60.8452 37.162C61.0185 37.63 61.1052 38.2453 61.1052 39.008C61.1052 39.944 60.9925 40.7327 60.7672 41.374C60.5592 41.998 60.2212 42.5093 59.7532 42.908C59.2852 43.2893 58.6785 43.5667 57.9332 43.74C57.2052 43.896 56.3298 43.974 55.3072 43.974H38.6932ZM80.5292 26.658H85.8592V37.578C85.8592 39.2593 85.5732 40.5853 85.0012 41.556C84.4292 42.5267 83.4932 43.2287 82.1932 43.662C81.4479 43.9047 80.5465 44.052 79.4892 44.104C78.4319 44.156 77.2185 44.182 75.8492 44.182C74.4105 44.182 73.1019 44.1733 71.9232 44.156C70.7619 44.156 69.7219 44.104 68.8032 44C67.9019 43.8787 67.1132 43.688 66.4372 43.428C65.7785 43.1507 65.2325 42.7607 64.7992 42.258C64.3659 41.738 64.0452 41.0793 63.8372 40.282C63.6292 39.4847 63.5252 38.4967 63.5252 37.318V26.658H68.8552V35.758C68.8552 36.486 68.8725 37.0927 68.9072 37.578C68.9592 38.046 69.0545 38.436 69.1932 38.748C69.3319 39.06 69.5312 39.294 69.7912 39.45C70.0685 39.606 70.4325 39.7187 70.8832 39.788C71.3339 39.8573 71.8885 39.9007 72.5472 39.918C73.2059 39.918 74.0032 39.918 74.9392 39.918C75.6325 39.918 76.2479 39.918 76.7852 39.918C77.3225 39.918 77.7905 39.9007 78.1892 39.866C78.6052 39.814 78.9519 39.736 79.2292 39.632C79.5239 39.5107 79.7665 39.3287 79.9572 39.086C80.2519 38.7393 80.4165 38.306 80.4512 37.786C80.5032 37.266 80.5292 36.616 80.5292 35.836V26.658ZM100.226 33.808L106.05 26.658H112.68L102.956 37.916V44H97.5484V37.916L87.6944 26.658H94.3504L100.226 33.808ZM149.802 26.658V44H141.404L130.978 30.974V44H125.986V26.658H134.384L144.81 39.658V26.658H149.802ZM157.503 34.588C157.503 35.472 157.512 36.2173 157.529 36.824C157.564 37.4307 157.633 37.9333 157.737 38.332C157.859 38.7307 158.032 39.034 158.257 39.242C158.5 39.45 158.829 39.606 159.245 39.71C159.679 39.814 160.207 39.8747 160.831 39.892C161.473 39.9093 162.244 39.918 163.145 39.918C164.948 39.918 166.352 39.9007 167.357 39.866C168.363 39.814 169.099 39.6407 169.567 39.346C170.053 39.0513 170.347 38.5747 170.451 37.916C170.555 37.24 170.607 36.2867 170.607 35.056C170.607 34.0507 170.555 33.262 170.451 32.69C170.365 32.1007 170.165 31.6673 169.853 31.39C169.541 31.0953 169.082 30.9133 168.475 30.844C167.869 30.7747 167.063 30.74 166.057 30.74C164.237 30.74 162.764 30.74 161.637 30.74C160.511 30.74 159.644 30.8527 159.037 31.078C158.431 31.286 158.023 31.6587 157.815 32.196C157.607 32.7333 157.503 33.5307 157.503 34.588ZM152.121 36.98C152.121 35.3333 152.139 33.9207 152.173 32.742C152.225 31.546 152.39 30.5407 152.667 29.726C152.962 28.9113 153.413 28.27 154.019 27.802C154.643 27.3167 155.527 26.97 156.671 26.762C157.451 26.6233 158.864 26.5453 160.909 26.528C162.972 26.4933 165.667 26.476 168.995 26.476C170.087 26.476 171.032 26.5713 171.829 26.762C172.627 26.9527 173.294 27.256 173.831 27.672C174.386 28.0707 174.819 28.5993 175.131 29.258C175.443 29.9167 175.66 30.714 175.781 31.65C175.851 32.1353 175.885 32.768 175.885 33.548C175.903 34.328 175.911 35.238 175.911 36.278C175.911 37.5433 175.833 38.618 175.677 39.502C175.521 40.3687 175.253 41.0967 174.871 41.686C174.49 42.2753 173.979 42.7347 173.337 43.064C172.713 43.3933 171.925 43.6447 170.971 43.818C170.018 43.974 168.891 44.0693 167.591 44.104C166.309 44.156 164.809 44.182 163.093 44.182C161.152 44.182 159.488 44.1213 158.101 44C156.715 43.896 155.579 43.61 154.695 43.142C153.811 42.6567 153.161 41.9373 152.745 40.984C152.329 40.0133 152.121 38.6787 152.121 36.98ZM213.391 26.658L206.241 44H199.065L195.217 31.702L191.213 44H184.115L177.069 26.658H182.503L187.547 39.814L192.097 26.658H198.467L202.783 39.814L208.009 26.658H213.391ZM220.772 26.658L220.486 36.902H215.884L215.65 26.658H220.772ZM220.746 39.164V44H215.52V39.164H220.746Z" fill="black"/>
</svg>
