<svg width="1319" height="879" viewBox="0 0 1319 879" fill="none" xmlns="http://www.w3.org/2000/svg">
<path d="M216.969 394.624C216.757 388.052 215.803 383.07 214.107 379.678C212.411 376.286 209.231 373.848 204.567 372.364C199.903 370.88 193.225 370.138 184.533 370.138C176.053 369.926 164.817 369.82 150.825 369.82C134.925 369.82 122.099 370.032 112.347 370.456C102.595 370.668 94.9625 372.152 89.4505 374.908C83.9385 377.664 80.2285 382.328 78.3205 388.9C76.4125 395.26 75.4585 404.588 75.4585 416.884C75.4585 432.572 75.8825 444.762 76.7305 453.454C77.7905 461.934 80.6525 468.294 85.3165 472.534C90.1925 476.562 97.6125 479 107.577 479.848C117.541 480.484 131.427 480.802 149.235 480.802C162.591 480.802 173.721 480.802 182.625 480.802C191.529 480.802 198.525 479.954 203.613 478.258C208.913 476.562 212.623 473.7 214.743 469.672C217.075 465.432 218.241 459.178 218.241 450.91H281.841C281.841 452.606 281.841 454.196 281.841 455.68C282.053 456.952 282.159 458.436 282.159 460.132C282.159 470.944 281.417 480.484 279.933 488.752C278.661 497.02 276.329 504.016 272.937 509.74C269.545 515.464 264.987 520.022 259.263 523.414C253.539 526.806 246.437 528.926 237.957 529.774C224.177 531.258 211.139 532.318 198.843 532.954C186.759 533.802 175.629 534.226 165.453 534.226C132.169 534.226 101.111 533.272 72.2785 531.364C61.0425 530.728 51.5025 528.29 43.6585 524.05C35.8145 519.81 29.4545 513.662 24.5785 505.606C19.7025 497.338 16.0985 487.056 13.7665 474.76C11.6465 462.464 10.5865 447.73 10.5865 430.558C10.5865 419.746 10.6925 409.888 10.9045 400.984C11.1165 391.868 11.8585 383.6 13.1305 376.18C14.6145 368.548 16.7345 361.658 19.4905 355.51C22.4585 349.15 26.5925 343.426 31.8925 338.338C37.1925 333.25 43.3405 329.328 50.3365 326.572C57.5445 323.816 65.9185 321.802 75.4585 320.53C84.9985 319.258 95.8105 318.516 107.895 318.304C119.979 317.88 133.547 317.668 148.599 317.668C174.675 317.668 196.087 318.198 212.835 319.258C229.795 320.318 243.151 323.286 252.903 328.162C262.655 333.038 269.439 340.67 273.255 351.058C277.071 361.446 279.085 375.968 279.297 394.624H216.969ZM501.295 449.638L456.139 365.686L410.347 449.638H501.295ZM524.827 493.522H387.769L366.781 532H294.913L413.209 319.894H500.341L616.093 532H544.861L524.827 493.522ZM824.736 384.766C824.524 379.89 823.676 376.074 822.192 373.318C820.708 370.35 818.058 368.23 814.242 366.958C810.638 365.474 805.762 364.52 799.614 364.096C793.678 363.672 785.94 363.46 776.4 363.46C774.704 363.46 773.326 363.46 772.266 363.46C771.206 363.46 769.828 363.566 768.132 363.778C754.352 364.414 742.798 364.732 733.47 364.732C724.142 364.732 716.616 365.262 710.892 366.322C705.168 367.17 701.034 368.866 698.49 371.41C695.946 373.954 694.674 378.194 694.674 384.13C694.674 389.43 696.582 393.458 700.398 396.214C704.214 398.758 709.514 400.136 716.298 400.348C725.838 400.56 734.848 400.772 743.328 400.984C752.02 401.196 760.076 401.302 767.496 401.302C771.948 401.302 776.506 401.302 781.17 401.302C786.046 401.09 790.604 400.984 794.844 400.984C812.44 400.984 827.704 401.514 840.636 402.574C853.568 403.422 864.168 405.966 872.436 410.206C880.916 414.446 887.17 420.912 891.198 429.604C895.226 438.296 897.24 450.486 897.24 466.174C897.24 477.198 896.18 486.526 894.06 494.158C891.94 501.79 888.548 508.15 883.884 513.238C879.432 518.114 873.708 521.93 866.712 524.686C859.716 527.442 851.342 529.35 841.59 530.41C835.866 531.046 824.842 531.788 808.518 532.636C792.194 533.484 771.312 533.908 745.872 533.908C720.856 533.908 700.398 533.166 684.498 531.682C668.81 530.198 657.362 526.912 650.154 521.824C645.066 518.22 641.25 514.404 638.706 510.376C636.374 506.136 634.678 501.684 633.618 497.02C632.77 492.356 632.346 487.374 632.346 482.074C632.346 476.562 632.346 470.626 632.346 464.266H696.264C696.264 466.598 696.264 469.036 696.264 471.58C696.264 474.124 696.794 476.456 697.854 478.576C698.914 480.484 700.822 482.286 703.578 483.982C706.334 485.466 710.574 486.42 716.298 486.844C719.054 487.056 724.142 487.268 731.562 487.48C739.194 487.692 748.734 487.798 760.182 487.798C775.022 487.798 787.106 487.692 796.434 487.48C805.974 487.268 813.394 486.526 818.694 485.254C823.994 483.982 827.598 482.074 829.506 479.53C831.414 476.986 832.368 473.276 832.368 468.4C832.368 463.736 831.414 460.132 829.506 457.588C827.598 454.832 824.842 452.924 821.238 451.864C817.634 450.592 813.288 449.85 808.2 449.638C803.324 449.426 797.918 449.32 791.982 449.32C771.206 449.108 752.762 449.108 736.65 449.32C720.538 449.32 706.546 448.896 694.674 448.048C682.802 447.2 672.732 445.716 664.464 443.596C656.408 441.476 649.836 438.084 644.748 433.42C639.872 428.756 636.268 422.608 633.936 414.976C631.816 407.344 630.756 397.698 630.756 386.038C630.756 375.65 631.604 366.64 633.3 359.008C635.208 351.376 638.282 345.016 642.522 339.928C646.762 334.628 652.274 330.6 659.058 327.844C666.054 324.876 674.64 322.756 684.816 321.484C691.6 320.636 702.518 319.788 717.57 318.94C732.834 318.092 751.914 317.668 774.81 317.668C786.894 317.668 797.706 317.774 807.246 317.986C816.998 317.986 825.584 318.41 833.004 319.258C840.636 320.106 847.314 321.378 853.038 323.074C858.762 324.558 863.744 326.89 867.984 330.07C872.648 333.462 876.252 337.066 878.796 340.882C881.552 344.698 883.566 348.832 884.838 353.284C886.11 357.736 886.958 362.612 887.382 367.912C887.806 373 888.018 378.618 888.018 384.766H824.736ZM989.925 319.894V532H924.735V319.894H989.925ZM1083.83 416.884C1083.83 427.696 1083.93 436.812 1084.14 444.232C1084.57 451.652 1085.42 457.8 1086.69 462.676C1088.17 467.552 1090.29 471.262 1093.05 473.806C1096.02 476.35 1100.04 478.258 1105.13 479.53C1110.43 480.802 1116.9 481.544 1124.53 481.756C1132.37 481.968 1141.81 482.074 1152.83 482.074C1174.88 482.074 1192.05 481.862 1204.35 481.438C1216.64 480.802 1225.65 478.682 1231.38 475.078C1237.31 471.474 1240.92 465.644 1242.19 457.588C1243.46 449.32 1244.1 437.66 1244.1 422.608C1244.1 410.312 1243.46 400.666 1242.19 393.67C1241.13 386.462 1238.69 381.162 1234.88 377.77C1231.06 374.166 1225.44 371.94 1218.02 371.092C1210.6 370.244 1200.74 369.82 1188.45 369.82C1166.19 369.82 1148.17 369.82 1134.39 369.82C1120.61 369.82 1110.01 371.198 1102.59 373.954C1095.17 376.498 1090.19 381.056 1087.64 387.628C1085.1 394.2 1083.83 403.952 1083.83 416.884ZM1018 446.14C1018 426 1018.21 408.722 1018.64 394.306C1019.27 379.678 1021.29 367.382 1024.68 357.418C1028.28 347.454 1033.79 339.61 1041.21 333.886C1048.85 327.95 1059.66 323.71 1073.65 321.166C1083.19 319.47 1100.47 318.516 1125.48 318.304C1150.71 317.88 1183.68 317.668 1224.38 317.668C1237.74 317.668 1249.29 318.834 1259.04 321.166C1268.8 323.498 1276.96 327.208 1283.53 332.296C1290.31 337.172 1295.61 343.638 1299.43 351.694C1303.25 359.75 1305.9 369.502 1307.38 380.95C1308.23 386.886 1308.65 394.624 1308.65 404.164C1308.86 413.704 1308.97 424.834 1308.97 437.554C1308.97 453.03 1308.02 466.174 1306.11 476.986C1304.2 487.586 1300.91 496.49 1296.25 503.698C1291.59 510.906 1285.33 516.524 1277.49 520.552C1269.86 524.58 1260.21 527.654 1248.55 529.774C1236.89 531.682 1223.11 532.848 1207.21 533.272C1191.52 533.908 1173.18 534.226 1152.2 534.226C1128.45 534.226 1108.1 533.484 1091.14 532C1074.18 530.728 1060.29 527.23 1049.48 521.506C1038.67 515.57 1030.72 506.772 1025.63 495.112C1020.54 483.24 1018 466.916 1018 446.14Z" fill="#008DF0" fill-opacity="0.06"/>
<path d="M216.969 101.624C216.757 95.052 215.803 90.07 214.107 86.678C212.411 83.286 209.231 80.848 204.567 79.364C199.903 77.88 193.225 77.138 184.533 77.138C176.053 76.926 164.817 76.82 150.825 76.82C134.925 76.82 122.099 77.032 112.347 77.456C102.595 77.668 94.9625 79.152 89.4505 81.908C83.9385 84.664 80.2285 89.328 78.3205 95.9C76.4125 102.26 75.4585 111.588 75.4585 123.884C75.4585 139.572 75.8825 151.762 76.7305 160.454C77.7905 168.934 80.6525 175.294 85.3165 179.534C90.1925 183.562 97.6125 186 107.577 186.848C117.541 187.484 131.427 187.802 149.235 187.802C162.591 187.802 173.721 187.802 182.625 187.802C191.529 187.802 198.525 186.954 203.613 185.258C208.913 183.562 212.623 180.7 214.743 176.672C217.075 172.432 218.241 166.178 218.241 157.91H281.841C281.841 159.606 281.841 161.196 281.841 162.68C282.053 163.952 282.159 165.436 282.159 167.132C282.159 177.944 281.417 187.484 279.933 195.752C278.661 204.02 276.329 211.016 272.937 216.74C269.545 222.464 264.987 227.022 259.263 230.414C253.539 233.806 246.437 235.926 237.957 236.774C224.177 238.258 211.139 239.318 198.843 239.954C186.759 240.802 175.629 241.226 165.453 241.226C132.169 241.226 101.111 240.272 72.2785 238.364C61.0425 237.728 51.5025 235.29 43.6585 231.05C35.8145 226.81 29.4545 220.662 24.5785 212.606C19.7025 204.338 16.0985 194.056 13.7665 181.76C11.6465 169.464 10.5865 154.73 10.5865 137.558C10.5865 126.746 10.6925 116.888 10.9045 107.984C11.1165 98.868 11.8585 90.6 13.1305 83.18C14.6145 75.548 16.7345 68.658 19.4905 62.51C22.4585 56.15 26.5925 50.426 31.8925 45.338C37.1925 40.25 43.3405 36.328 50.3365 33.572C57.5445 30.816 65.9185 28.802 75.4585 27.53C84.9985 26.258 95.8105 25.516 107.895 25.304C119.979 24.88 133.547 24.668 148.599 24.668C174.675 24.668 196.087 25.198 212.835 26.258C229.795 27.318 243.151 30.286 252.903 35.162C262.655 40.038 269.439 47.67 273.255 58.058C277.071 68.446 279.085 82.968 279.297 101.624H216.969ZM501.295 156.638L456.139 72.686L410.347 156.638H501.295ZM524.827 200.522H387.769L366.781 239H294.913L413.209 26.894H500.341L616.093 239H544.861L524.827 200.522ZM824.736 91.766C824.524 86.89 823.676 83.074 822.192 80.318C820.708 77.35 818.058 75.23 814.242 73.958C810.638 72.474 805.762 71.52 799.614 71.096C793.678 70.672 785.94 70.46 776.4 70.46C774.704 70.46 773.326 70.46 772.266 70.46C771.206 70.46 769.828 70.566 768.132 70.778C754.352 71.414 742.798 71.732 733.47 71.732C724.142 71.732 716.616 72.262 710.892 73.322C705.168 74.17 701.034 75.866 698.49 78.41C695.946 80.954 694.674 85.194 694.674 91.13C694.674 96.43 696.582 100.458 700.398 103.214C704.214 105.758 709.514 107.136 716.298 107.348C725.838 107.56 734.848 107.772 743.328 107.984C752.02 108.196 760.076 108.302 767.496 108.302C771.948 108.302 776.506 108.302 781.17 108.302C786.046 108.09 790.604 107.984 794.844 107.984C812.44 107.984 827.704 108.514 840.636 109.574C853.568 110.422 864.168 112.966 872.436 117.206C880.916 121.446 887.17 127.912 891.198 136.604C895.226 145.296 897.24 157.486 897.24 173.174C897.24 184.198 896.18 193.526 894.06 201.158C891.94 208.79 888.548 215.15 883.884 220.238C879.432 225.114 873.708 228.93 866.712 231.686C859.716 234.442 851.342 236.35 841.59 237.41C835.866 238.046 824.842 238.788 808.518 239.636C792.194 240.484 771.312 240.908 745.872 240.908C720.856 240.908 700.398 240.166 684.498 238.682C668.81 237.198 657.362 233.912 650.154 228.824C645.066 225.22 641.25 221.404 638.706 217.376C636.374 213.136 634.678 208.684 633.618 204.02C632.77 199.356 632.346 194.374 632.346 189.074C632.346 183.562 632.346 177.626 632.346 171.266H696.264C696.264 173.598 696.264 176.036 696.264 178.58C696.264 181.124 696.794 183.456 697.854 185.576C698.914 187.484 700.822 189.286 703.578 190.982C706.334 192.466 710.574 193.42 716.298 193.844C719.054 194.056 724.142 194.268 731.562 194.48C739.194 194.692 748.734 194.798 760.182 194.798C775.022 194.798 787.106 194.692 796.434 194.48C805.974 194.268 813.394 193.526 818.694 192.254C823.994 190.982 827.598 189.074 829.506 186.53C831.414 183.986 832.368 180.276 832.368 175.4C832.368 170.736 831.414 167.132 829.506 164.588C827.598 161.832 824.842 159.924 821.238 158.864C817.634 157.592 813.288 156.85 808.2 156.638C803.324 156.426 797.918 156.32 791.982 156.32C771.206 156.108 752.762 156.108 736.65 156.32C720.538 156.32 706.546 155.896 694.674 155.048C682.802 154.2 672.732 152.716 664.464 150.596C656.408 148.476 649.836 145.084 644.748 140.42C639.872 135.756 636.268 129.608 633.936 121.976C631.816 114.344 630.756 104.698 630.756 93.038C630.756 82.65 631.604 73.64 633.3 66.008C635.208 58.376 638.282 52.016 642.522 46.928C646.762 41.628 652.274 37.6 659.058 34.844C666.054 31.876 674.64 29.756 684.816 28.484C691.6 27.636 702.518 26.788 717.57 25.94C732.834 25.092 751.914 24.668 774.81 24.668C786.894 24.668 797.706 24.774 807.246 24.986C816.998 24.986 825.584 25.41 833.004 26.258C840.636 27.106 847.314 28.378 853.038 30.074C858.762 31.558 863.744 33.89 867.984 37.07C872.648 40.462 876.252 44.066 878.796 47.882C881.552 51.698 883.566 55.832 884.838 60.284C886.11 64.736 886.958 69.612 887.382 74.912C887.806 80 888.018 85.618 888.018 91.766H824.736ZM989.925 26.894V239H924.735V26.894H989.925ZM1083.83 123.884C1083.83 134.696 1083.93 143.812 1084.14 151.232C1084.57 158.652 1085.42 164.8 1086.69 169.676C1088.17 174.552 1090.29 178.262 1093.05 180.806C1096.02 183.35 1100.04 185.258 1105.13 186.53C1110.43 187.802 1116.9 188.544 1124.53 188.756C1132.37 188.968 1141.81 189.074 1152.83 189.074C1174.88 189.074 1192.05 188.862 1204.35 188.438C1216.64 187.802 1225.65 185.682 1231.38 182.078C1237.31 178.474 1240.92 172.644 1242.19 164.588C1243.46 156.32 1244.1 144.66 1244.1 129.608C1244.1 117.312 1243.46 107.666 1242.19 100.67C1241.13 93.462 1238.69 88.162 1234.88 84.77C1231.06 81.166 1225.44 78.94 1218.02 78.092C1210.6 77.244 1200.74 76.82 1188.45 76.82C1166.19 76.82 1148.17 76.82 1134.39 76.82C1120.61 76.82 1110.01 78.198 1102.59 80.954C1095.17 83.498 1090.19 88.056 1087.64 94.628C1085.1 101.2 1083.83 110.952 1083.83 123.884ZM1018 153.14C1018 133 1018.21 115.722 1018.64 101.306C1019.27 86.678 1021.29 74.382 1024.68 64.418C1028.28 54.454 1033.79 46.61 1041.21 40.886C1048.85 34.95 1059.66 30.71 1073.65 28.166C1083.19 26.47 1100.47 25.516 1125.48 25.304C1150.71 24.88 1183.68 24.668 1224.38 24.668C1237.74 24.668 1249.29 25.834 1259.04 28.166C1268.8 30.498 1276.96 34.208 1283.53 39.296C1290.31 44.172 1295.61 50.638 1299.43 58.694C1303.25 66.75 1305.9 76.502 1307.38 87.95C1308.23 93.886 1308.65 101.624 1308.65 111.164C1308.86 120.704 1308.97 131.834 1308.97 144.554C1308.97 160.03 1308.02 173.174 1306.11 183.986C1304.2 194.586 1300.91 203.49 1296.25 210.698C1291.59 217.906 1285.33 223.524 1277.49 227.552C1269.86 231.58 1260.21 234.654 1248.55 236.774C1236.89 238.682 1223.11 239.848 1207.21 240.272C1191.52 240.908 1173.18 241.226 1152.2 241.226C1128.45 241.226 1108.1 240.484 1091.14 239C1074.18 237.728 1060.29 234.23 1049.48 228.506C1038.67 222.57 1030.72 213.772 1025.63 202.112C1020.54 190.24 1018 173.916 1018 153.14Z" fill="#008DF0" fill-opacity="0.06"/>
<path d="M216.969 687.624C216.757 681.052 215.803 676.07 214.107 672.678C212.411 669.286 209.231 666.848 204.567 665.364C199.903 663.88 193.225 663.138 184.533 663.138C176.053 662.926 164.817 662.82 150.825 662.82C134.925 662.82 122.099 663.032 112.347 663.456C102.595 663.668 94.9625 665.152 89.4505 667.908C83.9385 670.664 80.2285 675.328 78.3205 681.9C76.4125 688.26 75.4585 697.588 75.4585 709.884C75.4585 725.572 75.8825 737.762 76.7305 746.454C77.7905 754.934 80.6525 761.294 85.3165 765.534C90.1925 769.562 97.6125 772 107.577 772.848C117.541 773.484 131.427 773.802 149.235 773.802C162.591 773.802 173.721 773.802 182.625 773.802C191.529 773.802 198.525 772.954 203.613 771.258C208.913 769.562 212.623 766.7 214.743 762.672C217.075 758.432 218.241 752.178 218.241 743.91H281.841C281.841 745.606 281.841 747.196 281.841 748.68C282.053 749.952 282.159 751.436 282.159 753.132C282.159 763.944 281.417 773.484 279.933 781.752C278.661 790.02 276.329 797.016 272.937 802.74C269.545 808.464 264.987 813.022 259.263 816.414C253.539 819.806 246.437 821.926 237.957 822.774C224.177 824.258 211.139 825.318 198.843 825.954C186.759 826.802 175.629 827.226 165.453 827.226C132.169 827.226 101.111 826.272 72.2785 824.364C61.0425 823.728 51.5025 821.29 43.6585 817.05C35.8145 812.81 29.4545 806.662 24.5785 798.606C19.7025 790.338 16.0985 780.056 13.7665 767.76C11.6465 755.464 10.5865 740.73 10.5865 723.558C10.5865 712.746 10.6925 702.888 10.9045 693.984C11.1165 684.868 11.8585 676.6 13.1305 669.18C14.6145 661.548 16.7345 654.658 19.4905 648.51C22.4585 642.15 26.5925 636.426 31.8925 631.338C37.1925 626.25 43.3405 622.328 50.3365 619.572C57.5445 616.816 65.9185 614.802 75.4585 613.53C84.9985 612.258 95.8105 611.516 107.895 611.304C119.979 610.88 133.547 610.668 148.599 610.668C174.675 610.668 196.087 611.198 212.835 612.258C229.795 613.318 243.151 616.286 252.903 621.162C262.655 626.038 269.439 633.67 273.255 644.058C277.071 654.446 279.085 668.968 279.297 687.624H216.969ZM501.295 742.638L456.139 658.686L410.347 742.638H501.295ZM524.827 786.522H387.769L366.781 825H294.913L413.209 612.894H500.341L616.093 825H544.861L524.827 786.522ZM824.736 677.766C824.524 672.89 823.676 669.074 822.192 666.318C820.708 663.35 818.058 661.23 814.242 659.958C810.638 658.474 805.762 657.52 799.614 657.096C793.678 656.672 785.94 656.46 776.4 656.46C774.704 656.46 773.326 656.46 772.266 656.46C771.206 656.46 769.828 656.566 768.132 656.778C754.352 657.414 742.798 657.732 733.47 657.732C724.142 657.732 716.616 658.262 710.892 659.322C705.168 660.17 701.034 661.866 698.49 664.41C695.946 666.954 694.674 671.194 694.674 677.13C694.674 682.43 696.582 686.458 700.398 689.214C704.214 691.758 709.514 693.136 716.298 693.348C725.838 693.56 734.848 693.772 743.328 693.984C752.02 694.196 760.076 694.302 767.496 694.302C771.948 694.302 776.506 694.302 781.17 694.302C786.046 694.09 790.604 693.984 794.844 693.984C812.44 693.984 827.704 694.514 840.636 695.574C853.568 696.422 864.168 698.966 872.436 703.206C880.916 707.446 887.17 713.912 891.198 722.604C895.226 731.296 897.24 743.486 897.24 759.174C897.24 770.198 896.18 779.526 894.06 787.158C891.94 794.79 888.548 801.15 883.884 806.238C879.432 811.114 873.708 814.93 866.712 817.686C859.716 820.442 851.342 822.35 841.59 823.41C835.866 824.046 824.842 824.788 808.518 825.636C792.194 826.484 771.312 826.908 745.872 826.908C720.856 826.908 700.398 826.166 684.498 824.682C668.81 823.198 657.362 819.912 650.154 814.824C645.066 811.22 641.25 807.404 638.706 803.376C636.374 799.136 634.678 794.684 633.618 790.02C632.77 785.356 632.346 780.374 632.346 775.074C632.346 769.562 632.346 763.626 632.346 757.266H696.264C696.264 759.598 696.264 762.036 696.264 764.58C696.264 767.124 696.794 769.456 697.854 771.576C698.914 773.484 700.822 775.286 703.578 776.982C706.334 778.466 710.574 779.42 716.298 779.844C719.054 780.056 724.142 780.268 731.562 780.48C739.194 780.692 748.734 780.798 760.182 780.798C775.022 780.798 787.106 780.692 796.434 780.48C805.974 780.268 813.394 779.526 818.694 778.254C823.994 776.982 827.598 775.074 829.506 772.53C831.414 769.986 832.368 766.276 832.368 761.4C832.368 756.736 831.414 753.132 829.506 750.588C827.598 747.832 824.842 745.924 821.238 744.864C817.634 743.592 813.288 742.85 808.2 742.638C803.324 742.426 797.918 742.32 791.982 742.32C771.206 742.108 752.762 742.108 736.65 742.32C720.538 742.32 706.546 741.896 694.674 741.048C682.802 740.2 672.732 738.716 664.464 736.596C656.408 734.476 649.836 731.084 644.748 726.42C639.872 721.756 636.268 715.608 633.936 707.976C631.816 700.344 630.756 690.698 630.756 679.038C630.756 668.65 631.604 659.64 633.3 652.008C635.208 644.376 638.282 638.016 642.522 632.928C646.762 627.628 652.274 623.6 659.058 620.844C666.054 617.876 674.64 615.756 684.816 614.484C691.6 613.636 702.518 612.788 717.57 611.94C732.834 611.092 751.914 610.668 774.81 610.668C786.894 610.668 797.706 610.774 807.246 610.986C816.998 610.986 825.584 611.41 833.004 612.258C840.636 613.106 847.314 614.378 853.038 616.074C858.762 617.558 863.744 619.89 867.984 623.07C872.648 626.462 876.252 630.066 878.796 633.882C881.552 637.698 883.566 641.832 884.838 646.284C886.11 650.736 886.958 655.612 887.382 660.912C887.806 666 888.018 671.618 888.018 677.766H824.736ZM989.925 612.894V825H924.735V612.894H989.925ZM1083.83 709.884C1083.83 720.696 1083.93 729.812 1084.14 737.232C1084.57 744.652 1085.42 750.8 1086.69 755.676C1088.17 760.552 1090.29 764.262 1093.05 766.806C1096.02 769.35 1100.04 771.258 1105.13 772.53C1110.43 773.802 1116.9 774.544 1124.53 774.756C1132.37 774.968 1141.81 775.074 1152.83 775.074C1174.88 775.074 1192.05 774.862 1204.35 774.438C1216.64 773.802 1225.65 771.682 1231.38 768.078C1237.31 764.474 1240.92 758.644 1242.19 750.588C1243.46 742.32 1244.1 730.66 1244.1 715.608C1244.1 703.312 1243.46 693.666 1242.19 686.67C1241.13 679.462 1238.69 674.162 1234.88 670.77C1231.06 667.166 1225.44 664.94 1218.02 664.092C1210.6 663.244 1200.74 662.82 1188.45 662.82C1166.19 662.82 1148.17 662.82 1134.39 662.82C1120.61 662.82 1110.01 664.198 1102.59 666.954C1095.17 669.498 1090.19 674.056 1087.64 680.628C1085.1 687.2 1083.83 696.952 1083.83 709.884ZM1018 739.14C1018 719 1018.21 701.722 1018.64 687.306C1019.27 672.678 1021.29 660.382 1024.68 650.418C1028.28 640.454 1033.79 632.61 1041.21 626.886C1048.85 620.95 1059.66 616.71 1073.65 614.166C1083.19 612.47 1100.47 611.516 1125.48 611.304C1150.71 610.88 1183.68 610.668 1224.38 610.668C1237.74 610.668 1249.29 611.834 1259.04 614.166C1268.8 616.498 1276.96 620.208 1283.53 625.296C1290.31 630.172 1295.61 636.638 1299.43 644.694C1303.25 652.75 1305.9 662.502 1307.38 673.95C1308.23 679.886 1308.65 687.624 1308.65 697.164C1308.86 706.704 1308.97 717.834 1308.97 730.554C1308.97 746.03 1308.02 759.174 1306.11 769.986C1304.2 780.586 1300.91 789.49 1296.25 796.698C1291.59 803.906 1285.33 809.524 1277.49 813.552C1269.86 817.58 1260.21 820.654 1248.55 822.774C1236.89 824.682 1223.11 825.848 1207.21 826.272C1191.52 826.908 1173.18 827.226 1152.2 827.226C1128.45 827.226 1108.1 826.484 1091.14 825C1074.18 823.728 1060.29 820.23 1049.48 814.506C1038.67 808.57 1030.72 799.772 1025.63 788.112C1020.54 776.24 1018 759.916 1018 739.14Z" fill="#008DF0" fill-opacity="0.06"/>
</svg>
