<svg width="1375" height="654" viewBox="0 0 1375 654" fill="none" xmlns="http://www.w3.org/2000/svg">
<path d="M167.419 291.728C167.255 286.644 166.517 282.79 165.205 280.166C163.893 277.542 161.433 275.656 157.825 274.508C154.217 273.36 149.051 272.786 142.327 272.786C135.767 272.622 127.075 272.54 116.251 272.54C103.951 272.54 94.0287 272.704 86.4847 273.032C78.9407 273.196 73.0367 274.344 68.7727 276.476C64.5087 278.608 61.6387 282.216 60.1627 287.3C58.6867 292.22 57.9487 299.436 57.9487 308.948C57.9487 321.084 58.2767 330.514 58.9327 337.238C59.7527 343.798 61.9667 348.718 65.5747 351.998C69.3467 355.114 75.0867 357 82.7947 357.656C90.5027 358.148 101.245 358.394 115.021 358.394C125.353 358.394 133.963 358.394 140.851 358.394C147.739 358.394 153.151 357.738 157.087 356.426C161.187 355.114 164.057 352.9 165.697 349.784C167.501 346.504 168.403 341.666 168.403 335.27H217.603C217.603 336.582 217.603 337.812 217.603 338.96C217.767 339.944 217.849 341.092 217.849 342.404C217.849 350.768 217.275 358.148 216.127 364.544C215.143 370.94 213.339 376.352 210.715 380.78C208.091 385.208 204.565 388.734 200.137 391.358C195.709 393.982 190.215 395.622 183.655 396.278C172.995 397.426 162.909 398.246 153.397 398.738C144.049 399.394 135.439 399.722 127.567 399.722C101.819 399.722 77.7927 398.984 55.4887 397.508C46.7967 397.016 39.4167 395.13 33.3487 391.85C27.2807 388.57 22.3607 383.814 18.5887 377.582C14.8167 371.186 12.0287 363.232 10.2247 353.72C8.58467 344.208 7.76467 332.81 7.76467 319.526C7.76467 311.162 7.84667 303.536 8.01067 296.648C8.17467 289.596 8.74867 283.2 9.73267 277.46C10.8807 271.556 12.5207 266.226 14.6527 261.47C16.9487 256.55 20.1467 252.122 24.2467 248.186C28.3467 244.25 33.1027 241.216 38.5147 239.084C44.0907 236.952 50.5687 235.394 57.9487 234.41C65.3287 233.426 73.6927 232.852 83.0407 232.688C92.3887 232.36 102.885 232.196 114.529 232.196C134.701 232.196 151.265 232.606 164.221 233.426C177.341 234.246 187.673 236.542 195.217 240.314C202.761 244.086 208.009 249.99 210.961 258.026C213.913 266.062 215.471 277.296 215.635 291.728H167.419ZM402.376 292.958V233.918H452.806V398H402.376V335.516H289.462V398H239.032V233.918H289.462V292.958H402.376ZM525.702 308.948C525.702 317.312 525.784 324.364 525.948 330.104C526.276 335.844 526.932 340.6 527.916 344.372C529.064 348.144 530.704 351.014 532.836 352.982C535.132 354.95 538.248 356.426 542.184 357.41C546.284 358.394 551.286 358.968 557.19 359.132C563.258 359.296 570.556 359.378 579.084 359.378C596.14 359.378 609.424 359.214 618.936 358.886C628.448 358.394 635.418 356.754 639.846 353.966C644.438 351.178 647.226 346.668 648.21 340.436C649.194 334.04 649.686 325.02 649.686 313.376C649.686 303.864 649.194 296.402 648.21 290.99C647.39 285.414 645.504 281.314 642.552 278.69C639.6 275.902 635.254 274.18 629.514 273.524C623.774 272.868 616.148 272.54 606.636 272.54C589.416 272.54 575.476 272.54 564.816 272.54C554.156 272.54 545.956 273.606 540.216 275.738C534.476 277.706 530.622 281.232 528.654 286.316C526.686 291.4 525.702 298.944 525.702 308.948ZM474.78 331.58C474.78 316 474.944 302.634 475.272 291.482C475.764 280.166 477.322 270.654 479.946 262.946C482.734 255.238 486.998 249.17 492.738 244.742C498.642 240.15 507.006 236.87 517.83 234.902C525.21 233.59 538.576 232.852 557.928 232.688C577.444 232.36 602.946 232.196 634.434 232.196C644.766 232.196 653.704 233.098 661.248 234.902C668.792 236.706 675.106 239.576 680.19 243.512C685.438 247.284 689.538 252.286 692.49 258.518C695.442 264.75 697.492 272.294 698.64 281.15C699.296 285.742 699.624 291.728 699.624 299.108C699.788 306.488 699.87 315.098 699.87 324.938C699.87 336.91 699.132 347.078 697.656 355.442C696.18 363.642 693.638 370.53 690.03 376.106C686.422 381.682 681.584 386.028 675.516 389.144C669.612 392.26 662.15 394.638 653.13 396.278C644.11 397.754 633.45 398.656 621.15 398.984C609.014 399.476 594.828 399.722 578.592 399.722C560.224 399.722 544.48 399.148 531.36 398C518.24 397.016 507.498 394.31 499.134 389.882C490.77 385.29 484.62 378.484 480.684 369.464C476.748 360.28 474.78 347.652 474.78 331.58ZM766.177 308.948C766.177 317.312 766.259 324.364 766.423 330.104C766.751 335.844 767.407 340.6 768.391 344.372C769.539 348.144 771.179 351.014 773.311 352.982C775.607 354.95 778.723 356.426 782.659 357.41C786.759 358.394 791.761 358.968 797.665 359.132C803.733 359.296 811.031 359.378 819.559 359.378C836.615 359.378 849.899 359.214 859.411 358.886C868.923 358.394 875.893 356.754 880.321 353.966C884.913 351.178 887.701 346.668 888.685 340.436C889.669 334.04 890.161 325.02 890.161 313.376C890.161 303.864 889.669 296.402 888.685 290.99C887.865 285.414 885.979 281.314 883.027 278.69C880.075 275.902 875.729 274.18 869.989 273.524C864.249 272.868 856.623 272.54 847.111 272.54C829.891 272.54 815.951 272.54 805.291 272.54C794.631 272.54 786.431 273.606 780.691 275.738C774.951 277.706 771.097 281.232 769.129 286.316C767.161 291.4 766.177 298.944 766.177 308.948ZM715.255 331.58C715.255 316 715.419 302.634 715.747 291.482C716.239 280.166 717.797 270.654 720.421 262.946C723.209 255.238 727.473 249.17 733.213 244.742C739.117 240.15 747.481 236.87 758.305 234.902C765.685 233.59 779.051 232.852 798.403 232.688C817.919 232.36 843.421 232.196 874.909 232.196C885.241 232.196 894.179 233.098 901.723 234.902C909.267 236.706 915.581 239.576 920.665 243.512C925.913 247.284 930.013 252.286 932.965 258.518C935.917 264.75 937.967 272.294 939.115 281.15C939.771 285.742 940.099 291.728 940.099 299.108C940.263 306.488 940.345 315.098 940.345 324.938C940.345 336.91 939.607 347.078 938.131 355.442C936.655 363.642 934.113 370.53 930.505 376.106C926.897 381.682 922.059 386.028 915.991 389.144C910.087 392.26 902.625 394.638 893.605 396.278C884.585 397.754 873.925 398.656 861.625 398.984C849.489 399.476 835.303 399.722 819.067 399.722C800.699 399.722 784.955 399.148 771.835 398C758.715 397.016 747.973 394.31 739.609 389.882C731.245 385.29 725.095 378.484 721.159 369.464C717.223 360.28 715.255 347.652 715.255 331.58ZM1106.04 284.102C1105.87 280.33 1105.22 277.378 1104.07 275.246C1102.92 272.95 1100.87 271.31 1097.92 270.326C1095.13 269.178 1091.36 268.44 1086.6 268.112C1082.01 267.784 1076.02 267.62 1068.64 267.62C1067.33 267.62 1066.27 267.62 1065.45 267.62C1064.63 267.62 1063.56 267.702 1062.25 267.866C1051.59 268.358 1042.65 268.604 1035.43 268.604C1028.22 268.604 1022.4 269.014 1017.97 269.834C1013.54 270.49 1010.34 271.802 1008.37 273.77C1006.41 275.738 1005.42 279.018 1005.42 283.61C1005.42 287.71 1006.9 290.826 1009.85 292.958C1012.8 294.926 1016.9 295.992 1022.15 296.156C1029.53 296.32 1036.5 296.484 1043.06 296.648C1049.78 296.812 1056.02 296.894 1061.76 296.894C1065.2 296.894 1068.73 296.894 1072.33 296.894C1076.11 296.73 1079.63 296.648 1082.91 296.648C1096.52 296.648 1108.33 297.058 1118.34 297.878C1128.34 298.534 1136.54 300.502 1142.94 303.782C1149.5 307.062 1154.33 312.064 1157.45 318.788C1160.57 325.512 1162.12 334.942 1162.12 347.078C1162.12 355.606 1161.3 362.822 1159.66 368.726C1158.02 374.63 1155.4 379.55 1151.79 383.486C1148.35 387.258 1143.92 390.21 1138.51 392.342C1133.1 394.474 1126.62 395.95 1119.07 396.77C1114.65 397.262 1106.12 397.836 1093.49 398.492C1080.86 399.148 1064.71 399.476 1045.03 399.476C1025.68 399.476 1009.85 398.902 997.55 397.754C985.414 396.606 976.558 394.064 970.982 390.128C967.046 387.34 964.094 384.388 962.126 381.272C960.322 377.992 959.01 374.548 958.19 370.94C957.534 367.332 957.206 363.478 957.206 359.378C957.206 355.114 957.206 350.522 957.206 345.602H1006.65C1006.65 347.406 1006.65 349.292 1006.65 351.26C1006.65 353.228 1007.06 355.032 1007.88 356.672C1008.7 358.148 1010.18 359.542 1012.31 360.854C1014.44 362.002 1017.72 362.74 1022.15 363.068C1024.28 363.232 1028.22 363.396 1033.96 363.56C1039.86 363.724 1047.24 363.806 1056.1 363.806C1067.58 363.806 1076.93 363.724 1084.14 363.56C1091.52 363.396 1097.26 362.822 1101.36 361.838C1105.46 360.854 1108.25 359.378 1109.73 357.41C1111.2 355.442 1111.94 352.572 1111.94 348.8C1111.94 345.192 1111.2 342.404 1109.73 340.436C1108.25 338.304 1106.12 336.828 1103.33 336.008C1100.54 335.024 1097.18 334.45 1093.24 334.286C1089.47 334.122 1085.29 334.04 1080.7 334.04C1064.63 333.876 1050.36 333.876 1037.89 334.04C1025.43 334.04 1014.61 333.712 1005.42 333.056C996.238 332.4 988.448 331.252 982.052 329.612C975.82 327.972 970.736 325.348 966.8 321.74C963.028 318.132 960.24 313.376 958.436 307.472C956.796 301.568 955.976 294.106 955.976 285.086C955.976 277.05 956.632 270.08 957.944 264.176C959.42 258.272 961.798 253.352 965.078 249.416C968.358 245.316 972.622 242.2 977.87 240.068C983.282 237.772 989.924 236.132 997.796 235.148C1003.04 234.492 1011.49 233.836 1023.13 233.18C1034.94 232.524 1049.7 232.196 1067.41 232.196C1076.76 232.196 1085.13 232.278 1092.51 232.442C1100.05 232.442 1106.69 232.77 1112.43 233.426C1118.34 234.082 1123.5 235.066 1127.93 236.378C1132.36 237.526 1136.21 239.33 1139.49 241.79C1143.1 244.414 1145.89 247.202 1147.86 250.154C1149.99 253.106 1151.55 256.304 1152.53 259.748C1153.51 263.192 1154.17 266.964 1154.5 271.064C1154.83 275 1154.99 279.346 1154.99 284.102H1106.04ZM1179.95 398V233.918H1362.97V270.818H1229.39V299.354H1354.12V331.826H1229.39V361.1H1362.97V398H1179.95Z" fill="#008DF0" fill-opacity="0.06"/>
<path d="M167.419 77.728C167.255 72.644 166.517 68.79 165.205 66.166C163.893 63.542 161.433 61.656 157.825 60.508C154.217 59.36 149.051 58.786 142.327 58.786C135.767 58.622 127.075 58.54 116.251 58.54C103.951 58.54 94.0287 58.704 86.4847 59.032C78.9407 59.196 73.0367 60.344 68.7727 62.476C64.5087 64.608 61.6387 68.216 60.1627 73.3C58.6867 78.22 57.9487 85.436 57.9487 94.948C57.9487 107.084 58.2767 116.514 58.9327 123.238C59.7527 129.798 61.9667 134.718 65.5747 137.998C69.3467 141.114 75.0867 143 82.7947 143.656C90.5027 144.148 101.245 144.394 115.021 144.394C125.353 144.394 133.963 144.394 140.851 144.394C147.739 144.394 153.151 143.738 157.087 142.426C161.187 141.114 164.057 138.9 165.697 135.784C167.501 132.504 168.403 127.666 168.403 121.27H217.603C217.603 122.582 217.603 123.812 217.603 124.96C217.767 125.944 217.849 127.092 217.849 128.404C217.849 136.768 217.275 144.148 216.127 150.544C215.143 156.94 213.339 162.352 210.715 166.78C208.091 171.208 204.565 174.734 200.137 177.358C195.709 179.982 190.215 181.622 183.655 182.278C172.995 183.426 162.909 184.246 153.397 184.738C144.049 185.394 135.439 185.722 127.567 185.722C101.819 185.722 77.7927 184.984 55.4887 183.508C46.7967 183.016 39.4167 181.13 33.3487 177.85C27.2807 174.57 22.3607 169.814 18.5887 163.582C14.8167 157.186 12.0287 149.232 10.2247 139.72C8.58467 130.208 7.76467 118.81 7.76467 105.526C7.76467 97.162 7.84667 89.536 8.01067 82.648C8.17467 75.596 8.74867 69.2 9.73267 63.46C10.8807 57.556 12.5207 52.226 14.6527 47.47C16.9487 42.55 20.1467 38.122 24.2467 34.186C28.3467 30.25 33.1027 27.216 38.5147 25.084C44.0907 22.952 50.5687 21.394 57.9487 20.41C65.3287 19.426 73.6927 18.852 83.0407 18.688C92.3887 18.36 102.885 18.196 114.529 18.196C134.701 18.196 151.265 18.606 164.221 19.426C177.341 20.246 187.673 22.542 195.217 26.314C202.761 30.086 208.009 35.99 210.961 44.026C213.913 52.062 215.471 63.296 215.635 77.728H167.419ZM402.376 78.958V19.918H452.806V184H402.376V121.516H289.462V184H239.032V19.918H289.462V78.958H402.376ZM525.702 94.948C525.702 103.312 525.784 110.364 525.948 116.104C526.276 121.844 526.932 126.6 527.916 130.372C529.064 134.144 530.704 137.014 532.836 138.982C535.132 140.95 538.248 142.426 542.184 143.41C546.284 144.394 551.286 144.968 557.19 145.132C563.258 145.296 570.556 145.378 579.084 145.378C596.14 145.378 609.424 145.214 618.936 144.886C628.448 144.394 635.418 142.754 639.846 139.966C644.438 137.178 647.226 132.668 648.21 126.436C649.194 120.04 649.686 111.02 649.686 99.376C649.686 89.864 649.194 82.402 648.21 76.99C647.39 71.414 645.504 67.314 642.552 64.69C639.6 61.902 635.254 60.18 629.514 59.524C623.774 58.868 616.148 58.54 606.636 58.54C589.416 58.54 575.476 58.54 564.816 58.54C554.156 58.54 545.956 59.606 540.216 61.738C534.476 63.706 530.622 67.232 528.654 72.316C526.686 77.4 525.702 84.944 525.702 94.948ZM474.78 117.58C474.78 102 474.944 88.634 475.272 77.482C475.764 66.166 477.322 56.654 479.946 48.946C482.734 41.238 486.998 35.17 492.738 30.742C498.642 26.15 507.006 22.87 517.83 20.902C525.21 19.59 538.576 18.852 557.928 18.688C577.444 18.36 602.946 18.196 634.434 18.196C644.766 18.196 653.704 19.098 661.248 20.902C668.792 22.706 675.106 25.576 680.19 29.512C685.438 33.284 689.538 38.286 692.49 44.518C695.442 50.75 697.492 58.294 698.64 67.15C699.296 71.742 699.624 77.728 699.624 85.108C699.788 92.488 699.87 101.098 699.87 110.938C699.87 122.91 699.132 133.078 697.656 141.442C696.18 149.642 693.638 156.53 690.03 162.106C686.422 167.682 681.584 172.028 675.516 175.144C669.612 178.26 662.15 180.638 653.13 182.278C644.11 183.754 633.45 184.656 621.15 184.984C609.014 185.476 594.828 185.722 578.592 185.722C560.224 185.722 544.48 185.148 531.36 184C518.24 183.016 507.498 180.31 499.134 175.882C490.77 171.29 484.62 164.484 480.684 155.464C476.748 146.28 474.78 133.652 474.78 117.58ZM766.177 94.948C766.177 103.312 766.259 110.364 766.423 116.104C766.751 121.844 767.407 126.6 768.391 130.372C769.539 134.144 771.179 137.014 773.311 138.982C775.607 140.95 778.723 142.426 782.659 143.41C786.759 144.394 791.761 144.968 797.665 145.132C803.733 145.296 811.031 145.378 819.559 145.378C836.615 145.378 849.899 145.214 859.411 144.886C868.923 144.394 875.893 142.754 880.321 139.966C884.913 137.178 887.701 132.668 888.685 126.436C889.669 120.04 890.161 111.02 890.161 99.376C890.161 89.864 889.669 82.402 888.685 76.99C887.865 71.414 885.979 67.314 883.027 64.69C880.075 61.902 875.729 60.18 869.989 59.524C864.249 58.868 856.623 58.54 847.111 58.54C829.891 58.54 815.951 58.54 805.291 58.54C794.631 58.54 786.431 59.606 780.691 61.738C774.951 63.706 771.097 67.232 769.129 72.316C767.161 77.4 766.177 84.944 766.177 94.948ZM715.255 117.58C715.255 102 715.419 88.634 715.747 77.482C716.239 66.166 717.797 56.654 720.421 48.946C723.209 41.238 727.473 35.17 733.213 30.742C739.117 26.15 747.481 22.87 758.305 20.902C765.685 19.59 779.051 18.852 798.403 18.688C817.919 18.36 843.421 18.196 874.909 18.196C885.241 18.196 894.179 19.098 901.723 20.902C909.267 22.706 915.581 25.576 920.665 29.512C925.913 33.284 930.013 38.286 932.965 44.518C935.917 50.75 937.967 58.294 939.115 67.15C939.771 71.742 940.099 77.728 940.099 85.108C940.263 92.488 940.345 101.098 940.345 110.938C940.345 122.91 939.607 133.078 938.131 141.442C936.655 149.642 934.113 156.53 930.505 162.106C926.897 167.682 922.059 172.028 915.991 175.144C910.087 178.26 902.625 180.638 893.605 182.278C884.585 183.754 873.925 184.656 861.625 184.984C849.489 185.476 835.303 185.722 819.067 185.722C800.699 185.722 784.955 185.148 771.835 184C758.715 183.016 747.973 180.31 739.609 175.882C731.245 171.29 725.095 164.484 721.159 155.464C717.223 146.28 715.255 133.652 715.255 117.58ZM1106.04 70.102C1105.87 66.33 1105.22 63.378 1104.07 61.246C1102.92 58.95 1100.87 57.31 1097.92 56.326C1095.13 55.178 1091.36 54.44 1086.6 54.112C1082.01 53.784 1076.02 53.62 1068.64 53.62C1067.33 53.62 1066.27 53.62 1065.45 53.62C1064.63 53.62 1063.56 53.702 1062.25 53.866C1051.59 54.358 1042.65 54.604 1035.43 54.604C1028.22 54.604 1022.4 55.014 1017.97 55.834C1013.54 56.49 1010.34 57.802 1008.37 59.77C1006.41 61.738 1005.42 65.018 1005.42 69.61C1005.42 73.71 1006.9 76.826 1009.85 78.958C1012.8 80.926 1016.9 81.992 1022.15 82.156C1029.53 82.32 1036.5 82.484 1043.06 82.648C1049.78 82.812 1056.02 82.894 1061.76 82.894C1065.2 82.894 1068.73 82.894 1072.33 82.894C1076.11 82.73 1079.63 82.648 1082.91 82.648C1096.52 82.648 1108.33 83.058 1118.34 83.878C1128.34 84.534 1136.54 86.502 1142.94 89.782C1149.5 93.062 1154.33 98.064 1157.45 104.788C1160.57 111.512 1162.12 120.942 1162.12 133.078C1162.12 141.606 1161.3 148.822 1159.66 154.726C1158.02 160.63 1155.4 165.55 1151.79 169.486C1148.35 173.258 1143.92 176.21 1138.51 178.342C1133.1 180.474 1126.62 181.95 1119.07 182.77C1114.65 183.262 1106.12 183.836 1093.49 184.492C1080.86 185.148 1064.71 185.476 1045.03 185.476C1025.68 185.476 1009.85 184.902 997.55 183.754C985.414 182.606 976.558 180.064 970.982 176.128C967.046 173.34 964.094 170.388 962.126 167.272C960.322 163.992 959.01 160.548 958.19 156.94C957.534 153.332 957.206 149.478 957.206 145.378C957.206 141.114 957.206 136.522 957.206 131.602H1006.65C1006.65 133.406 1006.65 135.292 1006.65 137.26C1006.65 139.228 1007.06 141.032 1007.88 142.672C1008.7 144.148 1010.18 145.542 1012.31 146.854C1014.44 148.002 1017.72 148.74 1022.15 149.068C1024.28 149.232 1028.22 149.396 1033.96 149.56C1039.86 149.724 1047.24 149.806 1056.1 149.806C1067.58 149.806 1076.93 149.724 1084.14 149.56C1091.52 149.396 1097.26 148.822 1101.36 147.838C1105.46 146.854 1108.25 145.378 1109.73 143.41C1111.2 141.442 1111.94 138.572 1111.94 134.8C1111.94 131.192 1111.2 128.404 1109.73 126.436C1108.25 124.304 1106.12 122.828 1103.33 122.008C1100.54 121.024 1097.18 120.45 1093.24 120.286C1089.47 120.122 1085.29 120.04 1080.7 120.04C1064.63 119.876 1050.36 119.876 1037.89 120.04C1025.43 120.04 1014.61 119.712 1005.42 119.056C996.238 118.4 988.448 117.252 982.052 115.612C975.82 113.972 970.736 111.348 966.8 107.74C963.028 104.132 960.24 99.376 958.436 93.472C956.796 87.568 955.976 80.106 955.976 71.086C955.976 63.05 956.632 56.08 957.944 50.176C959.42 44.272 961.798 39.352 965.078 35.416C968.358 31.316 972.622 28.2 977.87 26.068C983.282 23.772 989.924 22.132 997.796 21.148C1003.04 20.492 1011.49 19.836 1023.13 19.18C1034.94 18.524 1049.7 18.196 1067.41 18.196C1076.76 18.196 1085.13 18.278 1092.51 18.442C1100.05 18.442 1106.69 18.77 1112.43 19.426C1118.34 20.082 1123.5 21.066 1127.93 22.378C1132.36 23.526 1136.21 25.33 1139.49 27.79C1143.1 30.414 1145.89 33.202 1147.86 36.154C1149.99 39.106 1151.55 42.304 1152.53 45.748C1153.51 49.192 1154.17 52.964 1154.5 57.064C1154.83 61 1154.99 65.346 1154.99 70.102H1106.04ZM1179.95 184V19.918H1362.97V56.818H1229.39V85.354H1354.12V117.826H1229.39V147.1H1362.97V184H1179.95Z" fill="#008DF0" fill-opacity="0.06"/>
<path d="M167.419 505.728C167.255 500.644 166.517 496.79 165.205 494.166C163.893 491.542 161.433 489.656 157.825 488.508C154.217 487.36 149.051 486.786 142.327 486.786C135.767 486.622 127.075 486.54 116.251 486.54C103.951 486.54 94.0287 486.704 86.4847 487.032C78.9407 487.196 73.0367 488.344 68.7727 490.476C64.5087 492.608 61.6387 496.216 60.1627 501.3C58.6867 506.22 57.9487 513.436 57.9487 522.948C57.9487 535.084 58.2767 544.514 58.9327 551.238C59.7527 557.798 61.9667 562.718 65.5747 565.998C69.3467 569.114 75.0867 571 82.7947 571.656C90.5027 572.148 101.245 572.394 115.021 572.394C125.353 572.394 133.963 572.394 140.851 572.394C147.739 572.394 153.151 571.738 157.087 570.426C161.187 569.114 164.057 566.9 165.697 563.784C167.501 560.504 168.403 555.666 168.403 549.27H217.603C217.603 550.582 217.603 551.812 217.603 552.96C217.767 553.944 217.849 555.092 217.849 556.404C217.849 564.768 217.275 572.148 216.127 578.544C215.143 584.94 213.339 590.352 210.715 594.78C208.091 599.208 204.565 602.734 200.137 605.358C195.709 607.982 190.215 609.622 183.655 610.278C172.995 611.426 162.909 612.246 153.397 612.738C144.049 613.394 135.439 613.722 127.567 613.722C101.819 613.722 77.7927 612.984 55.4887 611.508C46.7967 611.016 39.4167 609.13 33.3487 605.85C27.2807 602.57 22.3607 597.814 18.5887 591.582C14.8167 585.186 12.0287 577.232 10.2247 567.72C8.58467 558.208 7.76467 546.81 7.76467 533.526C7.76467 525.162 7.84667 517.536 8.01067 510.648C8.17467 503.596 8.74867 497.2 9.73267 491.46C10.8807 485.556 12.5207 480.226 14.6527 475.47C16.9487 470.55 20.1467 466.122 24.2467 462.186C28.3467 458.25 33.1027 455.216 38.5147 453.084C44.0907 450.952 50.5687 449.394 57.9487 448.41C65.3287 447.426 73.6927 446.852 83.0407 446.688C92.3887 446.36 102.885 446.196 114.529 446.196C134.701 446.196 151.265 446.606 164.221 447.426C177.341 448.246 187.673 450.542 195.217 454.314C202.761 458.086 208.009 463.99 210.961 472.026C213.913 480.062 215.471 491.296 215.635 505.728H167.419ZM402.376 506.958V447.918H452.806V612H402.376V549.516H289.462V612H239.032V447.918H289.462V506.958H402.376ZM525.702 522.948C525.702 531.312 525.784 538.364 525.948 544.104C526.276 549.844 526.932 554.6 527.916 558.372C529.064 562.144 530.704 565.014 532.836 566.982C535.132 568.95 538.248 570.426 542.184 571.41C546.284 572.394 551.286 572.968 557.19 573.132C563.258 573.296 570.556 573.378 579.084 573.378C596.14 573.378 609.424 573.214 618.936 572.886C628.448 572.394 635.418 570.754 639.846 567.966C644.438 565.178 647.226 560.668 648.21 554.436C649.194 548.04 649.686 539.02 649.686 527.376C649.686 517.864 649.194 510.402 648.21 504.99C647.39 499.414 645.504 495.314 642.552 492.69C639.6 489.902 635.254 488.18 629.514 487.524C623.774 486.868 616.148 486.54 606.636 486.54C589.416 486.54 575.476 486.54 564.816 486.54C554.156 486.54 545.956 487.606 540.216 489.738C534.476 491.706 530.622 495.232 528.654 500.316C526.686 505.4 525.702 512.944 525.702 522.948ZM474.78 545.58C474.78 530 474.944 516.634 475.272 505.482C475.764 494.166 477.322 484.654 479.946 476.946C482.734 469.238 486.998 463.17 492.738 458.742C498.642 454.15 507.006 450.87 517.83 448.902C525.21 447.59 538.576 446.852 557.928 446.688C577.444 446.36 602.946 446.196 634.434 446.196C644.766 446.196 653.704 447.098 661.248 448.902C668.792 450.706 675.106 453.576 680.19 457.512C685.438 461.284 689.538 466.286 692.49 472.518C695.442 478.75 697.492 486.294 698.64 495.15C699.296 499.742 699.624 505.728 699.624 513.108C699.788 520.488 699.87 529.098 699.87 538.938C699.87 550.91 699.132 561.078 697.656 569.442C696.18 577.642 693.638 584.53 690.03 590.106C686.422 595.682 681.584 600.028 675.516 603.144C669.612 606.26 662.15 608.638 653.13 610.278C644.11 611.754 633.45 612.656 621.15 612.984C609.014 613.476 594.828 613.722 578.592 613.722C560.224 613.722 544.48 613.148 531.36 612C518.24 611.016 507.498 608.31 499.134 603.882C490.77 599.29 484.62 592.484 480.684 583.464C476.748 574.28 474.78 561.652 474.78 545.58ZM766.177 522.948C766.177 531.312 766.259 538.364 766.423 544.104C766.751 549.844 767.407 554.6 768.391 558.372C769.539 562.144 771.179 565.014 773.311 566.982C775.607 568.95 778.723 570.426 782.659 571.41C786.759 572.394 791.761 572.968 797.665 573.132C803.733 573.296 811.031 573.378 819.559 573.378C836.615 573.378 849.899 573.214 859.411 572.886C868.923 572.394 875.893 570.754 880.321 567.966C884.913 565.178 887.701 560.668 888.685 554.436C889.669 548.04 890.161 539.02 890.161 527.376C890.161 517.864 889.669 510.402 888.685 504.99C887.865 499.414 885.979 495.314 883.027 492.69C880.075 489.902 875.729 488.18 869.989 487.524C864.249 486.868 856.623 486.54 847.111 486.54C829.891 486.54 815.951 486.54 805.291 486.54C794.631 486.54 786.431 487.606 780.691 489.738C774.951 491.706 771.097 495.232 769.129 500.316C767.161 505.4 766.177 512.944 766.177 522.948ZM715.255 545.58C715.255 530 715.419 516.634 715.747 505.482C716.239 494.166 717.797 484.654 720.421 476.946C723.209 469.238 727.473 463.17 733.213 458.742C739.117 454.15 747.481 450.87 758.305 448.902C765.685 447.59 779.051 446.852 798.403 446.688C817.919 446.36 843.421 446.196 874.909 446.196C885.241 446.196 894.179 447.098 901.723 448.902C909.267 450.706 915.581 453.576 920.665 457.512C925.913 461.284 930.013 466.286 932.965 472.518C935.917 478.75 937.967 486.294 939.115 495.15C939.771 499.742 940.099 505.728 940.099 513.108C940.263 520.488 940.345 529.098 940.345 538.938C940.345 550.91 939.607 561.078 938.131 569.442C936.655 577.642 934.113 584.53 930.505 590.106C926.897 595.682 922.059 600.028 915.991 603.144C910.087 606.26 902.625 608.638 893.605 610.278C884.585 611.754 873.925 612.656 861.625 612.984C849.489 613.476 835.303 613.722 819.067 613.722C800.699 613.722 784.955 613.148 771.835 612C758.715 611.016 747.973 608.31 739.609 603.882C731.245 599.29 725.095 592.484 721.159 583.464C717.223 574.28 715.255 561.652 715.255 545.58ZM1106.04 498.102C1105.87 494.33 1105.22 491.378 1104.07 489.246C1102.92 486.95 1100.87 485.31 1097.92 484.326C1095.13 483.178 1091.36 482.44 1086.6 482.112C1082.01 481.784 1076.02 481.62 1068.64 481.62C1067.33 481.62 1066.27 481.62 1065.45 481.62C1064.63 481.62 1063.56 481.702 1062.25 481.866C1051.59 482.358 1042.65 482.604 1035.43 482.604C1028.22 482.604 1022.4 483.014 1017.97 483.834C1013.54 484.49 1010.34 485.802 1008.37 487.77C1006.41 489.738 1005.42 493.018 1005.42 497.61C1005.42 501.71 1006.9 504.826 1009.85 506.958C1012.8 508.926 1016.9 509.992 1022.15 510.156C1029.53 510.32 1036.5 510.484 1043.06 510.648C1049.78 510.812 1056.02 510.894 1061.76 510.894C1065.2 510.894 1068.73 510.894 1072.33 510.894C1076.11 510.73 1079.63 510.648 1082.91 510.648C1096.52 510.648 1108.33 511.058 1118.34 511.878C1128.34 512.534 1136.54 514.502 1142.94 517.782C1149.5 521.062 1154.33 526.064 1157.45 532.788C1160.57 539.512 1162.12 548.942 1162.12 561.078C1162.12 569.606 1161.3 576.822 1159.66 582.726C1158.02 588.63 1155.4 593.55 1151.79 597.486C1148.35 601.258 1143.92 604.21 1138.51 606.342C1133.1 608.474 1126.62 609.95 1119.07 610.77C1114.65 611.262 1106.12 611.836 1093.49 612.492C1080.86 613.148 1064.71 613.476 1045.03 613.476C1025.68 613.476 1009.85 612.902 997.55 611.754C985.414 610.606 976.558 608.064 970.982 604.128C967.046 601.34 964.094 598.388 962.126 595.272C960.322 591.992 959.01 588.548 958.19 584.94C957.534 581.332 957.206 577.478 957.206 573.378C957.206 569.114 957.206 564.522 957.206 559.602H1006.65C1006.65 561.406 1006.65 563.292 1006.65 565.26C1006.65 567.228 1007.06 569.032 1007.88 570.672C1008.7 572.148 1010.18 573.542 1012.31 574.854C1014.44 576.002 1017.72 576.74 1022.15 577.068C1024.28 577.232 1028.22 577.396 1033.96 577.56C1039.86 577.724 1047.24 577.806 1056.1 577.806C1067.58 577.806 1076.93 577.724 1084.14 577.56C1091.52 577.396 1097.26 576.822 1101.36 575.838C1105.46 574.854 1108.25 573.378 1109.73 571.41C1111.2 569.442 1111.94 566.572 1111.94 562.8C1111.94 559.192 1111.2 556.404 1109.73 554.436C1108.25 552.304 1106.12 550.828 1103.33 550.008C1100.54 549.024 1097.18 548.45 1093.24 548.286C1089.47 548.122 1085.29 548.04 1080.7 548.04C1064.63 547.876 1050.36 547.876 1037.89 548.04C1025.43 548.04 1014.61 547.712 1005.42 547.056C996.238 546.4 988.448 545.252 982.052 543.612C975.82 541.972 970.736 539.348 966.8 535.74C963.028 532.132 960.24 527.376 958.436 521.472C956.796 515.568 955.976 508.106 955.976 499.086C955.976 491.05 956.632 484.08 957.944 478.176C959.42 472.272 961.798 467.352 965.078 463.416C968.358 459.316 972.622 456.2 977.87 454.068C983.282 451.772 989.924 450.132 997.796 449.148C1003.04 448.492 1011.49 447.836 1023.13 447.18C1034.94 446.524 1049.7 446.196 1067.41 446.196C1076.76 446.196 1085.13 446.278 1092.51 446.442C1100.05 446.442 1106.69 446.77 1112.43 447.426C1118.34 448.082 1123.5 449.066 1127.93 450.378C1132.36 451.526 1136.21 453.33 1139.49 455.79C1143.1 458.414 1145.89 461.202 1147.86 464.154C1149.99 467.106 1151.55 470.304 1152.53 473.748C1153.51 477.192 1154.17 480.964 1154.5 485.064C1154.83 489 1154.99 493.346 1154.99 498.102H1106.04ZM1179.95 612V447.918H1362.97V484.818H1229.39V513.354H1354.12V545.826H1229.39V575.1H1362.97V612H1179.95Z" fill="#008DF0" fill-opacity="0.06"/>
</svg>
