<svg width="622" height="340" viewBox="0 0 622 340" fill="none" xmlns="http://www.w3.org/2000/svg">
<mask id="path-1-inside-1_27_191" fill="white">
<path fill-rule="evenodd" clip-rule="evenodd" d="M468.448 227.157L603.419 92.1866L419.045 42.7839L424.062 61.5065L5.01662 173.789L44.2253 320.118L463.271 207.835L468.448 227.157Z"/>
</mask>
<path fill-rule="evenodd" clip-rule="evenodd" d="M468.448 227.157L603.419 92.1866L419.045 42.7839L424.062 61.5065L5.01662 173.789L44.2253 320.118L463.271 207.835L468.448 227.157Z" fill="#008DF0"/>
<path d="M603.419 92.1866L606.954 95.7221L613.078 89.5984L604.713 87.357L603.419 92.1866ZM468.448 227.157L463.618 228.451L465.86 236.817L471.984 230.693L468.448 227.157ZM419.045 42.7839L420.339 37.9543L411.974 35.7129L414.216 44.078L419.045 42.7839ZM424.062 61.5065L425.356 66.3361L430.186 65.042L428.892 60.2124L424.062 61.5065ZM5.01662 173.789L3.72252 168.96L-1.10711 170.254L0.186991 175.083L5.01662 173.789ZM44.2253 320.118L39.3956 321.412L40.6897 326.242L45.5193 324.948L44.2253 320.118ZM463.271 207.835L468.1 206.541L466.806 201.711L461.977 203.005L463.271 207.835ZM599.883 88.6511L464.913 223.622L471.984 230.693L606.954 95.7221L599.883 88.6511ZM417.751 47.6135L602.125 97.0162L604.713 87.357L420.339 37.9543L417.751 47.6135ZM428.892 60.2124L423.875 41.4898L414.216 44.078L419.232 62.8006L428.892 60.2124ZM6.31072 178.619L425.356 66.3361L422.768 56.6768L3.72252 168.96L6.31072 178.619ZM49.0549 318.824L9.84625 172.495L0.186991 175.083L39.3956 321.412L49.0549 318.824ZM461.977 203.005L42.9312 315.288L45.5193 324.948L464.565 212.665L461.977 203.005ZM473.278 225.863L468.1 206.541L458.441 209.129L463.618 228.451L473.278 225.863Z" fill="black" mask="url(#path-1-inside-1_27_191)"/>
<path d="M64.1984 243.15L84.0192 237.839C85.7192 237.384 87.0791 236.895 88.0988 236.373C89.1185 235.852 89.8443 235.16 90.2762 234.299C90.6977 233.399 90.8483 232.262 90.7281 230.886C90.5976 229.471 90.2373 227.663 89.6472 225.461C89.202 223.799 88.7365 222.371 88.2507 221.176C87.7649 219.981 87.1673 219.065 86.4579 218.426C85.7486 217.788 84.8978 217.395 83.9057 217.247C82.9135 217.099 81.6833 217.221 80.2151 217.615L58.8874 223.329L64.1984 243.15ZM54.8332 255.722L44.4908 217.124L78.6846 207.962C79.7278 207.682 80.9797 207.409 82.4403 207.142C83.9396 206.864 85.6231 206.579 87.4908 206.285C90.3451 205.81 92.946 206.708 95.2935 208.978C97.6306 211.209 99.4772 214.855 100.833 219.917C101.154 221.114 101.514 222.612 101.913 224.41C102.351 226.198 102.842 228.261 103.385 230.6C104.173 234.157 103.677 237.251 101.897 239.882C100.156 242.501 97.3147 244.339 93.3737 245.395L54.8332 255.722ZM139.541 191.593L151.422 188.41L157.945 212.751C158.949 216.499 159.103 219.625 158.408 222.131C157.713 224.636 156.046 226.76 153.407 228.502C151.89 229.488 149.969 230.355 147.643 231.102C145.317 231.85 142.628 232.632 139.576 233.45C136.369 234.31 133.447 235.072 130.809 235.737C128.221 236.431 125.871 236.936 123.761 237.253C121.68 237.521 119.808 237.567 118.146 237.391C116.512 237.166 115.062 236.623 113.796 235.762C112.519 234.861 111.411 233.585 110.471 231.931C109.531 230.278 108.709 228.138 108.005 225.511L101.638 201.749L113.519 198.566L118.955 218.85C119.389 220.473 119.79 221.815 120.158 222.876C120.553 223.888 120.998 224.7 121.494 225.313C121.989 225.926 122.573 226.328 123.246 226.521C123.957 226.703 124.836 226.737 125.882 226.622C126.928 226.507 128.19 226.273 129.669 225.918C131.137 225.524 132.914 225.048 135.001 224.489C136.546 224.075 137.918 223.708 139.116 223.387C140.313 223.066 141.346 222.748 142.214 222.432C143.11 222.068 143.837 221.687 144.393 221.289C144.977 220.843 145.409 220.292 145.689 219.637C146.139 218.689 146.247 217.624 146.014 216.445C145.819 215.254 145.489 213.79 145.023 212.051L139.541 191.593ZM199.462 200.881L187.133 187.786L182.887 205.322L199.462 200.881ZM205.894 207.73L180.915 214.423L178.969 222.46L165.871 225.97L177.073 181.537L192.952 177.282L224.406 210.285L211.424 213.764L205.894 207.73ZM230.166 167.31L237.946 196.346L264.548 189.218L267.126 198.839L228.643 209.15L218.285 170.494L230.166 167.31ZM292.058 171.908L294.697 181.761L267.806 188.966L265.166 179.114L292.058 171.908ZM322.074 153.057L329.839 182.035L317.958 185.218L310.193 156.241L292.864 160.884L290.271 151.205L336.52 138.813L339.113 148.491L322.074 153.057ZM352.643 134.493L363.001 173.149L351.12 176.333L340.762 137.676L352.643 134.493ZM424.93 115.123L435.288 153.78L424.16 156.761L416.272 127.32L407.121 161.327L397.675 163.858L372.979 138.92L380.868 168.362L369.74 171.343L359.382 132.687L378.102 127.671L399.165 149.483L406.326 120.108L424.93 115.123ZM441.203 152.195L430.845 113.538L473.964 101.985L476.294 110.678L444.824 119.11L446.625 125.833L476.009 117.96L478.059 125.61L448.675 133.483L450.523 140.38L481.993 131.948L484.322 140.641L441.203 152.195Z" fill="black"/>
</svg>
