<svg width="395" height="289" viewBox="0 0 395 289" fill="none" xmlns="http://www.w3.org/2000/svg">
<path d="M187.05 8.33332L181.284 38.3454L208.78 43.6282L206.87 53.5723L167.093 45.9301L174.77 5.97391L187.05 8.33332ZM209.837 54.1425L217.514 14.1862L262.083 22.7491L260.357 31.7348L227.829 25.4853L226.493 32.4342L256.865 38.2694L255.346 46.1768L224.974 40.3416L223.605 47.4702L256.133 53.7197L254.406 62.7054L209.837 54.1425ZM294.06 39.2662L288.306 69.2184L276.025 66.859L281.78 36.9068L263.869 33.4655L265.791 23.4615L313.594 32.6459L311.672 42.6499L294.06 39.2662ZM328.941 35.5945L326.801 46.7367C326.44 48.6137 325.99 50.2043 325.449 51.5084C324.949 52.8202 324.235 53.8425 323.307 54.5753C322.387 55.2682 321.19 55.68 319.715 55.8109C318.241 55.9417 316.365 55.7884 314.089 55.3511C313.61 55.259 313.095 55.1393 312.543 54.9919C311.992 54.8445 311.5 54.7087 311.069 54.5844L312.265 48.3543C312.497 48.4403 312.693 48.4986 312.853 48.5293C313.053 48.5677 313.272 48.6099 313.512 48.6559C314.99 48.9398 316.037 48.7684 316.654 48.1416C317.319 47.4825 317.806 46.458 318.115 45.0679L314.76 44.4234L316.901 33.2811L328.941 35.5945ZM365.882 55.3635C366.019 54.4373 365.997 53.6877 365.818 53.1148C365.645 52.502 365.223 52.0068 364.55 51.629C363.925 51.219 363.041 50.8628 361.898 50.5605C360.795 50.2657 359.345 49.9457 357.548 49.6005C357.229 49.5391 356.969 49.4892 356.769 49.4508C356.57 49.4125 356.306 49.3826 355.979 49.3611C353.36 48.9822 351.172 48.6239 349.415 48.2863C347.658 47.9487 346.221 47.7762 345.104 47.7687C343.995 47.7213 343.155 47.8911 342.584 48.2783C342.012 48.6655 341.619 49.4182 341.405 50.5364C341.213 51.5348 341.426 52.3626 342.045 53.0199C342.672 53.6372 343.621 54.0887 344.891 54.3741C346.681 54.7593 348.37 55.1254 349.96 55.4722C351.59 55.8267 353.103 56.1383 354.501 56.4068C355.34 56.568 356.198 56.7329 357.077 56.9017C358.003 57.0383 358.866 57.1833 359.664 57.3367C362.979 57.9736 365.835 58.6259 368.233 59.2936C370.639 59.9214 372.543 60.7843 373.947 61.8822C375.391 62.9879 376.335 64.4323 376.78 66.2154C377.224 67.9986 377.162 70.3678 376.594 73.3231C376.195 75.3998 375.658 77.1186 374.982 78.4796C374.307 79.8406 373.438 80.9159 372.375 81.7056C371.36 82.463 370.143 82.9747 368.726 83.2406C367.308 83.5066 365.662 83.5629 363.786 83.4097C362.685 83.3223 360.581 83.0631 357.476 82.632C354.37 82.201 350.421 81.5251 345.628 80.6043C340.916 79.6989 337.089 78.8187 334.147 77.9637C331.246 77.1164 329.208 76.083 328.034 74.8637C327.206 74.0006 326.626 73.1436 326.292 72.2928C326.006 71.4097 325.848 70.5096 325.817 69.5926C325.826 68.6834 325.927 67.7295 326.118 66.7311C326.318 65.6928 326.533 64.5745 326.763 63.3765L338.804 65.6898C338.719 66.1291 338.631 66.5884 338.539 67.0676C338.447 67.5469 338.462 68.0053 338.585 68.4431C338.716 68.8409 339.01 69.2494 339.468 69.6686C339.933 70.0479 340.698 70.3811 341.761 70.6681C342.272 70.8078 343.223 71.0319 344.613 71.3404C346.043 71.6565 347.836 72.0218 349.993 72.4361C352.788 72.9732 355.069 73.3906 356.833 73.6883C358.638 73.9936 360.063 74.1224 361.107 74.0746C362.152 74.0268 362.9 73.7978 363.351 73.3876C363.803 72.9774 364.117 72.3131 364.293 71.3946C364.462 70.516 364.413 69.8025 364.145 69.2542C363.886 68.666 363.436 68.2068 362.795 67.8767C362.162 67.5066 361.37 67.2096 360.42 66.9855C359.509 66.7691 358.494 66.5534 357.376 66.3386C353.47 65.5467 349.995 64.8792 346.953 64.336C343.917 63.7529 341.297 63.1666 339.091 62.5772C336.885 61.9877 335.042 61.3437 333.561 60.6451C332.121 59.9542 331.005 59.0773 330.216 58.0146C329.466 56.9595 329.01 55.6709 328.846 54.1488C328.723 52.6344 328.873 50.7789 329.295 48.5824C329.671 46.6255 330.157 44.959 330.752 43.5826C331.388 42.214 332.197 41.1271 333.18 40.3221C334.171 39.4772 335.355 38.9179 336.732 38.6442C338.158 38.3383 339.852 38.2497 341.815 38.3784C343.124 38.4642 345.211 38.6996 348.077 39.0846C350.983 39.4773 354.593 40.088 358.906 40.9167C361.182 41.354 363.215 41.7653 365.005 42.1505C366.842 42.5035 368.444 42.8941 369.811 43.3224C371.218 43.7584 372.43 44.2397 373.447 44.7663C374.471 45.2531 375.325 45.8727 376.009 46.6252C376.765 47.433 377.313 48.2423 377.654 49.0532C378.036 49.8718 378.265 50.7235 378.344 51.6082C378.422 52.4929 378.406 53.4421 378.294 54.4559C378.189 55.4297 378.026 56.4957 377.803 57.6538L365.882 55.3635Z" fill="black"/>
<path d="M290.029 163.314L260.907 232.107L239.763 223.157L268.886 154.363L290.029 163.314ZM341.969 205.613L320.138 257.182L298.995 248.232L320.826 196.662L289.987 183.607L297.279 166.383L379.584 201.225L372.292 218.45L341.969 205.613Z" fill="black"/>
<path d="M14.4742 186.711L4.83791 147.181L46.7379 136.967L48.9917 146.212L19.0038 153.523L20.8964 161.286L49.3434 154.352L51.5105 163.241L23.0635 170.176L26.3864 183.807L14.4742 186.711ZM87.1539 152.732L74.9243 139.137L70.2043 156.863L87.1539 152.732ZM93.5332 159.841L67.9902 166.068L65.8269 174.192L52.4331 177.457L64.8432 132.554L81.0817 128.595L112.29 162.866L99.015 166.102L93.5332 159.841ZM147.185 127.235C146.847 126.02 146.443 125.135 145.973 124.58C145.502 124.025 144.799 123.715 143.862 123.65C142.926 123.586 141.648 123.751 140.028 124.146C138.438 124.491 136.339 124.982 133.731 125.618C130.768 126.34 128.387 126.962 126.589 127.484C124.781 127.967 123.426 128.59 122.524 129.354C121.622 130.118 121.143 131.156 121.086 132.468C121.019 133.74 121.265 135.521 121.824 137.813C122.536 140.737 123.169 142.989 123.722 144.571C124.305 146.103 125.127 147.158 126.189 147.736C127.281 148.266 128.774 148.383 130.67 148.088C132.556 147.754 135.158 147.182 138.477 146.373C140.966 145.767 143.04 145.261 144.7 144.856C146.359 144.452 147.624 143.976 148.496 143.429C149.406 142.872 149.968 142.17 150.18 141.323C150.422 140.427 150.355 139.208 149.979 137.667L161.832 134.778C161.909 135.094 161.981 135.39 162.049 135.667C162.146 135.894 162.233 136.166 162.31 136.482C162.802 138.497 163.097 140.309 163.196 141.917C163.334 143.516 163.218 144.926 162.845 146.146C162.473 147.367 161.831 148.424 160.918 149.316C160.006 150.208 158.778 150.926 157.237 151.469C154.736 152.372 152.354 153.162 150.092 153.839C147.878 154.546 145.823 155.131 143.927 155.593C137.724 157.105 131.892 158.338 126.432 159.293C124.309 159.685 122.42 159.664 120.766 159.23C119.111 158.796 117.647 157.939 116.372 156.659C115.088 155.34 113.949 153.587 112.956 151.402C112.002 149.207 111.135 146.509 110.355 143.309C109.864 141.294 109.436 139.452 109.071 137.782C108.696 136.074 108.459 134.499 108.359 133.059C108.288 131.569 108.37 130.189 108.605 128.918C108.869 127.597 109.379 126.343 110.136 125.154C110.893 123.965 111.86 122.955 113.039 122.123C114.257 121.282 115.726 120.526 117.446 119.856C119.166 119.185 121.148 118.556 123.39 117.967C125.623 117.339 128.142 116.683 130.947 116C135.807 114.815 139.821 113.941 142.991 113.378C146.2 112.805 148.824 112.751 150.862 113.217C152.901 113.682 154.512 114.796 155.696 116.559C156.879 118.322 157.914 120.937 158.801 124.404L147.185 127.235ZM169.849 148.834L160.213 109.305L204.305 98.5561L206.473 107.446L174.292 115.291L175.968 122.165L206.015 114.841L207.922 122.663L177.875 129.988L179.594 137.041L211.775 129.196L213.942 138.086L169.849 148.834Z" fill="black"/>
<circle cx="385.613" cy="125.118" r="9" fill="black"/>
<circle cx="194.613" cy="203.118" r="9" fill="black"/>
<circle cx="121.613" cy="73.1176" r="9" fill="black"/>
</svg>
