<svg width="629" height="340" viewBox="0 0 629 340" fill="none" xmlns="http://www.w3.org/2000/svg">
<mask id="path-1-inside-1_27_190" fill="white">
<path fill-rule="evenodd" clip-rule="evenodd" d="M209.075 42.784L24.7014 92.1867L159.672 227.157L164.689 208.435L583.734 320.718L622.943 174.389L203.897 62.1063L209.075 42.784Z"/>
</mask>
<path fill-rule="evenodd" clip-rule="evenodd" d="M209.075 42.784L24.7014 92.1867L159.672 227.157L164.689 208.435L583.734 320.718L622.943 174.389L203.897 62.1063L209.075 42.784Z" fill="#008DF0"/>
<path d="M24.7014 92.1867L23.4073 87.3571L15.0421 89.5985L21.1658 95.7222L24.7014 92.1867ZM209.075 42.784L213.904 44.0781L216.146 35.7129L207.781 37.9544L209.075 42.784ZM159.672 227.157L156.137 230.693L162.26 236.817L164.502 228.451L159.672 227.157ZM164.689 208.435L165.983 203.605L161.153 202.311L159.859 207.141L164.689 208.435ZM583.734 320.718L582.44 325.547L587.27 326.841L588.564 322.012L583.734 320.718ZM622.943 174.389L627.772 175.683L629.067 170.854L624.237 169.56L622.943 174.389ZM203.897 62.1063L199.068 60.8122L197.774 65.6418L202.603 66.9359L203.897 62.1063ZM25.9955 97.0163L210.369 47.6136L207.781 37.9544L23.4073 87.3571L25.9955 97.0163ZM163.208 223.622L28.2369 88.6512L21.1658 95.7222L156.137 230.693L163.208 223.622ZM159.859 207.141L154.842 225.863L164.502 228.451L169.518 209.729L159.859 207.141ZM585.028 315.888L165.983 203.605L163.395 213.264L582.44 325.547L585.028 315.888ZM618.113 173.095L578.905 319.424L588.564 322.012L627.772 175.683L618.113 173.095ZM202.603 66.9359L621.649 179.219L624.237 169.56L205.191 57.2766L202.603 66.9359ZM204.245 41.4899L199.068 60.8122L208.727 63.4004L213.904 44.0781L204.245 41.4899Z" fill="black" mask="url(#path-1-inside-1_27_190)"/>
<path d="M206.856 143.594L208.829 136.233L235.314 143.33C234.478 146.295 233.741 148.892 233.102 151.123C232.501 153.364 231.863 155.284 231.186 156.883C230.558 158.454 229.804 159.722 228.924 160.688C228.055 161.614 226.947 162.27 225.602 162.655C224.305 163.011 222.674 163.071 220.708 162.834C218.781 162.608 216.408 162.117 213.587 161.361C212.351 161.03 211.1 160.674 209.836 160.294C208.599 159.962 207.382 159.636 206.184 159.315L202.591 158.353C198.302 157.203 194.682 156.109 191.731 155.07C188.818 154.041 186.56 152.732 184.956 151.143C183.353 149.554 182.421 147.544 182.161 145.114C181.902 142.684 182.3 139.498 183.356 135.557C183.676 134.36 184.145 132.766 184.76 130.778C185.386 128.751 186.154 126.348 187.065 123.569C187.435 122.343 188.026 121.218 188.839 120.193C189.652 119.168 190.564 118.315 191.575 117.634C192.624 116.963 193.729 116.472 194.889 116.161C196.097 115.823 197.302 115.731 198.503 115.887C200.904 116.199 203.279 116.608 205.628 117.113C207.977 117.619 210.311 118.182 212.629 118.803C215.759 119.642 218.56 120.392 221.033 121.055C223.544 121.728 225.745 122.4 227.636 123.072C229.526 123.745 231.115 124.46 232.402 125.219C233.7 125.94 234.714 126.791 235.445 127.774C236.147 128.707 236.646 129.628 236.941 130.535C237.236 131.443 237.381 132.372 237.375 133.322C237.368 134.273 237.245 135.275 237.004 136.329C236.802 137.393 236.54 138.524 236.219 139.721L224.686 136.631C224.878 135.606 224.93 134.792 224.843 134.189C224.767 133.547 224.456 133.008 223.91 132.572C223.413 132.107 222.634 131.692 221.573 131.325C220.551 130.968 219.209 130.567 217.547 130.122L214.592 129.33C213.549 129.05 212.525 128.776 211.52 128.507C210.526 128.199 209.604 127.931 208.754 127.703C206.822 127.186 205.208 126.795 203.912 126.53C202.666 126.238 201.583 126.258 200.666 126.592C199.748 126.926 198.969 127.67 198.329 128.823C197.699 129.938 197.073 131.655 196.452 133.973C195.882 136.098 195.445 137.886 195.139 139.336C194.872 140.796 194.793 142.018 194.903 143C195.012 143.981 195.353 144.797 195.924 145.447C196.506 146.059 197.35 146.616 198.457 147.12C199.603 147.634 201.046 148.124 202.784 148.59C204.562 149.066 206.706 149.641 209.218 150.314C211.072 150.811 212.695 151.245 214.086 151.618C215.477 151.991 216.672 152.166 217.672 152.144C218.672 152.122 219.467 151.859 220.057 151.355C220.697 150.822 221.188 149.918 221.529 148.643C221.591 148.411 221.619 148.232 221.611 148.106C221.642 147.99 221.689 147.816 221.751 147.585L206.856 143.594ZM266.084 154.743L263.445 164.595L236.553 157.39L239.193 147.537L266.084 154.743ZM308.175 157.511C308.375 156.612 308.406 155.875 308.27 155.3C308.145 154.687 307.766 154.171 307.132 153.753C306.548 153.307 305.706 152.895 304.606 152.517C303.545 152.15 302.145 151.733 300.406 151.268C300.097 151.185 299.846 151.117 299.653 151.066C299.46 151.014 299.203 150.966 298.884 150.922C296.341 150.365 294.22 149.858 292.52 149.403C290.82 148.947 289.423 148.677 288.328 148.59C287.243 148.465 286.407 148.572 285.819 148.912C285.231 149.251 284.792 149.962 284.502 151.044C284.243 152.01 284.395 152.837 284.955 153.526C285.527 154.176 286.425 154.685 287.651 155.055C289.38 155.56 291.011 156.039 292.546 156.491C294.12 156.954 295.583 157.367 296.936 157.729C297.747 157.947 298.578 158.169 299.428 158.397C300.327 158.597 301.163 158.8 301.935 159.007C305.142 159.866 307.898 160.708 310.203 161.533C312.519 162.319 314.326 163.3 315.626 164.477C316.964 165.664 317.789 167.148 318.098 168.928C318.408 170.709 318.18 173.029 317.413 175.888C316.875 177.897 316.226 179.546 315.467 180.833C314.708 182.121 313.779 183.114 312.681 183.813C311.632 184.485 310.402 184.901 308.992 185.061C307.583 185.222 305.963 185.161 304.134 184.878C303.06 184.714 301.015 184.311 297.998 183.668C294.982 183.026 291.155 182.083 286.519 180.841C281.96 179.619 278.267 178.485 275.442 177.438C272.656 176.402 270.73 175.244 269.664 173.964C268.913 173.059 268.404 172.177 268.137 171.319C267.919 170.432 267.827 169.538 267.862 168.636C267.935 167.745 268.101 166.816 268.36 165.85C268.629 164.846 268.919 163.764 269.23 162.605L280.879 165.726C280.765 166.151 280.646 166.595 280.522 167.059C280.397 167.523 280.38 167.974 280.47 168.412C280.57 168.811 280.829 169.233 281.249 169.677C281.679 170.082 282.405 170.463 283.427 170.819C283.919 170.993 284.836 171.28 286.178 171.681C287.559 172.092 289.292 172.577 291.379 173.136C294.083 173.861 296.291 174.432 298.001 174.849C299.75 175.276 301.139 175.503 302.167 175.53C303.195 175.557 303.945 175.385 304.417 175.015C304.889 174.644 305.244 174.015 305.482 173.126C305.71 172.276 305.712 171.573 305.488 171.016C305.275 170.42 304.866 169.938 304.261 169.569C303.666 169.161 302.91 168.814 301.993 168.526C301.115 168.25 300.135 167.966 299.053 167.677C295.277 166.623 291.916 165.723 288.969 164.974C286.033 164.188 283.503 163.427 281.381 162.693C279.259 161.958 277.496 161.196 276.093 160.406C274.728 159.626 273.696 158.687 272.996 157.589C272.335 156.501 271.979 155.204 271.926 153.699C271.913 152.205 272.191 150.395 272.76 148.27C273.267 146.377 273.862 144.776 274.544 143.468C275.264 142.17 276.135 141.161 277.156 140.441C278.188 139.682 279.389 139.217 280.76 139.046C282.18 138.847 283.848 138.88 285.765 139.145C287.043 139.322 289.074 139.7 291.859 140.281C294.682 140.872 298.18 141.726 302.353 142.844C304.555 143.434 306.52 143.982 308.249 144.486C310.026 144.962 311.57 145.459 312.881 145.976C314.23 146.503 315.385 147.061 316.346 147.65C317.316 148.2 318.111 148.868 318.728 149.655C319.412 150.501 319.893 151.333 320.171 152.153C320.486 152.983 320.652 153.835 320.666 154.708C320.68 155.582 320.597 156.512 320.415 157.499C320.244 158.447 320.008 159.481 319.708 160.601L308.175 157.511ZM364.323 174.792L368.05 160.883L379.931 164.066L369.573 202.723L357.692 199.539L361.637 184.818L335.035 177.691L331.091 192.411L319.21 189.228L329.568 150.571L341.449 153.755L337.722 167.664L364.323 174.792ZM392.369 186.344C391.841 188.315 391.415 189.981 391.091 191.344C390.806 192.717 390.66 193.879 390.654 194.83C390.686 195.791 390.892 196.571 391.27 197.169C391.686 197.777 392.327 198.322 393.192 198.802C394.096 199.293 395.238 199.744 396.619 200.155C398.038 200.577 399.752 201.057 401.761 201.595C405.78 202.672 408.92 203.472 411.181 203.995C413.453 204.479 415.199 204.533 416.418 204.156C417.676 203.789 418.618 202.902 419.243 201.496C419.878 200.051 420.564 197.958 421.299 195.214C421.899 192.973 422.254 191.184 422.364 189.847C422.523 188.482 422.337 187.397 421.808 186.592C421.288 185.749 420.373 185.069 419.062 184.552C417.751 184.035 415.975 183.477 413.734 182.876C409.677 181.789 406.393 180.909 403.882 180.236C401.37 179.563 399.371 179.297 397.884 179.437C396.408 179.538 395.277 180.125 394.493 181.199C393.708 182.272 393 183.988 392.369 186.344ZM378.943 188.462C379.927 184.791 380.809 181.653 381.59 179.046C382.421 176.411 383.388 174.269 384.493 172.618C385.636 170.978 387.024 169.818 388.656 169.137C390.336 168.428 392.514 168.183 395.188 168.403C397.01 168.56 400.205 169.23 404.775 170.412C409.393 171.567 415.412 173.138 422.83 175.126C425.264 175.778 427.313 176.555 428.976 177.456C430.64 178.358 431.946 179.432 432.895 180.681C433.894 181.9 434.544 183.338 434.846 184.992C435.148 186.647 435.155 188.554 434.866 190.712C434.731 191.836 434.43 193.267 433.964 195.005C433.537 196.754 433.013 198.788 432.392 201.106C431.636 203.927 430.82 206.276 429.945 208.153C429.079 209.992 428.045 211.454 426.843 212.54C425.641 213.626 424.227 214.344 422.601 214.695C421.013 215.057 419.105 215.146 416.877 214.963C414.659 214.741 412.09 214.281 409.172 213.581C406.281 212.931 402.924 212.094 399.099 211.069C394.771 209.909 391.099 208.78 388.08 207.681C385.051 206.621 382.691 205.306 381 203.735C379.32 202.125 378.3 200.133 377.943 197.76C377.595 195.347 377.929 192.248 378.943 188.462ZM475.726 204.332C476.008 203.124 476.078 202.169 475.934 201.468C475.791 200.767 475.33 200.167 474.553 199.669C473.775 199.171 472.594 198.71 471.01 198.285C469.475 197.832 467.432 197.264 464.882 196.581C461.985 195.805 459.637 195.217 457.839 194.818C456.051 194.38 454.588 194.278 453.448 194.511C452.309 194.744 451.405 195.413 450.737 196.518C450.078 197.584 449.449 199.237 448.849 201.478C448.082 204.337 447.564 206.58 447.295 208.205C447.074 209.802 447.285 211.101 447.928 212.102C448.62 213.074 449.853 213.881 451.627 214.522C453.412 215.124 455.927 215.86 459.173 216.73C461.607 217.382 463.635 217.926 465.258 218.361C466.881 218.795 468.197 218.982 469.208 218.922C470.256 218.872 471.072 218.531 471.655 217.901C472.287 217.242 472.805 216.159 473.209 214.652L484.8 217.758C484.717 218.067 484.64 218.357 484.567 218.627C484.544 218.869 484.491 219.145 484.408 219.454C483.88 221.425 483.279 223.127 482.604 224.561C481.969 226.006 481.202 227.167 480.304 228.045C479.407 228.922 478.353 229.53 477.145 229.869C475.936 230.208 474.538 230.247 472.951 229.988C470.367 229.585 467.939 229.142 465.667 228.657C463.423 228.222 461.374 227.755 459.52 227.259C453.454 225.633 447.84 223.943 442.678 222.187C440.662 221.522 439.042 220.612 437.82 219.456C436.597 218.3 435.738 216.869 435.243 215.163C434.758 213.418 434.603 211.368 434.779 209.013C434.993 206.669 435.519 203.932 436.358 200.802C436.886 198.832 437.387 197.04 437.86 195.428C438.344 193.777 438.883 192.306 439.477 191.016C440.12 189.698 440.843 188.545 441.645 187.56C442.497 186.545 443.53 185.704 444.744 185.036C445.959 184.367 447.271 183.953 448.68 183.792C450.129 183.642 451.753 183.684 453.554 183.918C455.355 184.152 457.361 184.544 459.574 185.096C461.797 185.609 464.28 186.233 467.023 186.968C471.776 188.241 475.652 189.383 478.653 190.394C481.692 191.416 483.981 192.609 485.52 193.974C487.06 195.339 487.923 197.061 488.111 199.14C488.3 201.22 487.957 203.965 487.085 207.375L475.726 204.332ZM507.954 198.37L504.056 212.917L510.141 214.547L529.977 204.271L546.204 208.619L518.941 221.812L538.222 247.912L521.01 243.3L507.625 223.936L501.54 222.305L497.596 237.026L485.947 233.905L496.305 195.248L507.954 198.37Z" fill="black"/>
</svg>
