<svg width="380" height="151" viewBox="0 0 380 151" fill="none" xmlns="http://www.w3.org/2000/svg">
<rect x="0.5" y="0.5" width="379" height="150" rx="40.5" fill="#008DF0" stroke="#008DF0"/>
<mask id="mask0_27_266" style="mask-type:alpha" maskUnits="userSpaceOnUse" x="1" y="1" width="378" height="149">
<rect x="1" y="1" width="378" height="149" rx="40" fill="#D9D9D9"/>
</mask>
<g mask="url(#mask0_27_266)">
<rect x="1.5" y="1.5" width="377" height="148" rx="39.5" fill="#008DF0" stroke="#008DF0"/>
<rect x="-28" y="-37" width="64" height="253" fill="black"/>
</g>
<path d="M61.448 43.656V59.688H76.136V65H54.888V43.656H61.448ZM84.7292 43.656V65H78.1693V43.656H84.7292ZM103.971 51.56L110.243 55.56C110.264 55.304 110.275 55.0373 110.275 54.76C110.275 54.4613 110.275 54.184 110.275 53.928C110.275 52.6907 110.221 51.72 110.115 51.016C110.008 50.312 109.731 49.7893 109.283 49.448C108.856 49.1067 108.216 48.8933 107.363 48.808C106.509 48.7227 105.336 48.68 103.843 48.68C101.539 48.68 99.7358 48.712 98.4345 48.776C97.1332 48.84 96.1625 49.0427 95.5225 49.384C94.9038 49.704 94.5198 50.2267 94.3705 50.952C94.2425 51.6773 94.1785 52.6907 94.1785 53.992C94.1785 55.2293 94.1998 56.2427 94.2425 57.032C94.3065 57.8 94.4878 58.408 94.7865 58.856C95.1065 59.304 95.5972 59.6133 96.2585 59.784C96.9412 59.9333 97.8905 60.008 99.1065 60.008C101.517 60.008 103.469 59.9973 104.963 59.976C106.477 59.9333 107.555 59.816 108.195 59.624L101.315 55.784L103.971 51.56ZM119.267 60.776L116.995 65.064L114.467 63.336C113.976 63.6773 113.517 63.9547 113.091 64.168C112.664 64.36 112.259 64.5093 111.875 64.616C111.491 64.7227 111.107 64.808 110.723 64.872C110.36 64.9147 109.987 64.9467 109.603 64.968C108.792 65.0533 107.565 65.1173 105.923 65.16C104.301 65.224 102.285 65.256 99.8745 65.256C97.4638 65.256 95.4692 65.1813 93.8905 65.032C92.3118 64.8827 91.0532 64.4773 90.1145 63.816C89.1758 63.1547 88.5145 62.152 88.1305 60.808C87.7465 59.4427 87.5545 57.5547 87.5545 55.144C87.5545 53.4373 87.5972 51.944 87.6825 50.664C87.7678 49.3627 88.0025 48.2533 88.3865 47.336C88.7918 46.3973 89.3892 45.6507 90.1785 45.096C90.9892 44.52 92.1092 44.104 93.5385 43.848C94.2425 43.72 95.4585 43.624 97.1865 43.56C98.9145 43.4747 101.144 43.432 103.875 43.432C105.261 43.432 106.616 43.4747 107.939 43.56C109.283 43.6453 110.595 43.7733 111.875 43.944C113.624 44.1787 114.883 45.0747 115.651 46.632C116.419 48.168 116.803 50.3653 116.803 53.224C116.803 54.248 116.792 55.2613 116.771 56.264C116.749 57.2667 116.664 58.2587 116.515 59.24L119.267 60.776ZM142.285 43.656H148.845V57.096C148.845 59.1653 148.493 60.7973 147.789 61.992C147.085 63.1867 145.933 64.0507 144.333 64.584C143.415 64.8827 142.306 65.064 141.005 65.128C139.703 65.192 138.21 65.224 136.525 65.224C134.754 65.224 133.143 65.2133 131.693 65.192C130.263 65.192 128.983 65.128 127.853 65C126.743 64.8507 125.773 64.616 124.941 64.296C124.13 63.9547 123.458 63.4747 122.925 62.856C122.391 62.216 121.997 61.4053 121.741 60.424C121.485 59.4427 121.357 58.2267 121.357 56.776V43.656H127.917V54.856C127.917 55.752 127.938 56.4987 127.981 57.096C128.045 57.672 128.162 58.152 128.333 58.536C128.503 58.92 128.749 59.208 129.069 59.4C129.41 59.592 129.858 59.7307 130.413 59.816C130.967 59.9013 131.65 59.9547 132.461 59.976C133.271 59.976 134.253 59.976 135.405 59.976C136.258 59.976 137.015 59.976 137.677 59.976C138.338 59.976 138.914 59.9547 139.405 59.912C139.917 59.848 140.343 59.752 140.685 59.624C141.047 59.4747 141.346 59.2507 141.581 58.952C141.943 58.5253 142.146 57.992 142.189 57.352C142.253 56.712 142.285 55.912 142.285 54.952V43.656ZM159.135 43.656V65H152.576V43.656H159.135ZM169.417 59.816H180.361C181.299 59.816 182.067 59.752 182.665 59.624C183.262 59.496 183.731 59.24 184.073 58.856C184.414 58.4507 184.649 57.8853 184.777 57.16C184.905 56.4133 184.969 55.432 184.969 54.216C184.969 53.2987 184.926 52.4987 184.841 51.816C184.755 51.1333 184.574 50.5787 184.297 50.152C184.019 49.7253 183.635 49.4053 183.145 49.192C182.654 48.9787 182.003 48.872 181.193 48.872H169.417V59.816ZM162.857 65V43.688H181.737C182.313 43.688 182.995 43.72 183.785 43.784C184.595 43.848 185.502 43.9333 186.505 44.04C188.041 44.1893 189.257 45.0107 190.153 46.504C191.049 47.976 191.497 50.1093 191.497 52.904C191.497 53.5653 191.475 54.3867 191.433 55.368C191.411 56.3493 191.379 57.48 191.337 58.76C191.251 60.7013 190.569 62.2267 189.289 63.336C188.03 64.4453 186.313 65 184.137 65H162.857ZM200.979 43.656V65H194.419V43.656H200.979ZM219.357 49V65H212.797V49H203.229V43.656H228.765V49H219.357ZM245.059 52.456L252.227 43.656H260.387L248.419 57.512V65H241.763V57.512L229.635 43.656H237.827L245.059 52.456Z" fill="black"/>
<path d="M61.448 83.656V99.688H76.136V105H54.888V83.656H61.448ZM83.8973 93.416C83.8973 94.504 83.9079 95.4213 83.9293 96.168C83.9719 96.9147 84.0573 97.5333 84.1853 98.024C84.3346 98.5147 84.5479 98.888 84.8253 99.144C85.1239 99.4 85.5293 99.592 86.0413 99.72C86.5746 99.848 87.2253 99.9227 87.9933 99.944C88.7826 99.9653 89.7319 99.976 90.8413 99.976C93.0599 99.976 94.7879 99.9547 96.0253 99.912C97.2626 99.848 98.1693 99.6347 98.7453 99.272C99.3426 98.9093 99.7053 98.3227 99.8333 97.512C99.9613 96.68 100.025 95.5067 100.025 93.992C100.025 92.7547 99.9613 91.784 99.8333 91.08C99.7266 90.3547 99.4813 89.8213 99.0973 89.48C98.7133 89.1173 98.1479 88.8933 97.4013 88.808C96.6546 88.7227 95.6626 88.68 94.4253 88.68C92.1853 88.68 90.3719 88.68 88.9853 88.68C87.5986 88.68 86.5319 88.8187 85.7853 89.096C85.0386 89.352 84.5373 89.8107 84.2812 90.472C84.0253 91.1333 83.8973 92.1147 83.8973 93.416ZM77.2733 96.36C77.2733 94.3333 77.2946 92.5947 77.3372 91.144C77.4013 89.672 77.6039 88.4347 77.9453 87.432C78.3079 86.4293 78.8626 85.64 79.6093 85.064C80.3773 84.4667 81.4653 84.04 82.8733 83.784C83.8333 83.6133 85.5719 83.5173 88.0893 83.496C90.6279 83.4533 93.9453 83.432 98.0413 83.432C99.3853 83.432 100.548 83.5493 101.529 83.784C102.511 84.0187 103.332 84.392 103.993 84.904C104.676 85.3947 105.209 86.0453 105.593 86.856C105.977 87.6667 106.244 88.648 106.393 89.8C106.479 90.3973 106.521 91.176 106.521 92.136C106.543 93.096 106.553 94.216 106.553 95.496C106.553 97.0533 106.457 98.376 106.265 99.464C106.073 100.531 105.743 101.427 105.273 102.152C104.804 102.877 104.175 103.443 103.385 103.848C102.617 104.253 101.647 104.563 100.473 104.776C99.2999 104.968 97.9133 105.085 96.3133 105.128C94.7346 105.192 92.8893 105.224 90.7773 105.224C88.3879 105.224 86.3399 105.149 84.6333 105C82.9266 104.872 81.5293 104.52 80.4413 103.944C79.3533 103.347 78.5533 102.461 78.0413 101.288C77.5293 100.093 77.2733 98.4507 77.2733 96.36ZM129.323 91.176C129.301 90.5147 129.205 90.0133 129.035 89.672C128.864 89.3307 128.544 89.0853 128.075 88.936C127.605 88.7867 126.933 88.712 126.059 88.712C125.205 88.6907 124.075 88.68 122.667 88.68C121.067 88.68 119.776 88.7013 118.795 88.744C117.813 88.7653 117.045 88.9147 116.491 89.192C115.936 89.4693 115.563 89.9387 115.371 90.6C115.179 91.24 115.083 92.1787 115.083 93.416C115.083 94.9947 115.125 96.2213 115.211 97.096C115.317 97.9493 115.605 98.5893 116.075 99.016C116.565 99.4213 117.312 99.6667 118.315 99.752C119.317 99.816 120.715 99.848 122.507 99.848C123.851 99.848 124.971 99.848 125.867 99.848C126.763 99.848 127.467 99.7627 127.979 99.592C128.512 99.4213 128.885 99.1333 129.099 98.728C129.333 98.3013 129.451 97.672 129.451 96.84H135.851C135.851 97.0107 135.851 97.1707 135.851 97.32C135.872 97.448 135.883 97.5973 135.883 97.768C135.883 98.856 135.808 99.816 135.659 100.648C135.531 101.48 135.296 102.184 134.955 102.76C134.613 103.336 134.155 103.795 133.579 104.136C133.003 104.477 132.288 104.691 131.435 104.776C130.048 104.925 128.736 105.032 127.499 105.096C126.283 105.181 125.163 105.224 124.139 105.224C120.789 105.224 117.664 105.128 114.763 104.936C113.632 104.872 112.672 104.627 111.883 104.2C111.093 103.773 110.453 103.155 109.963 102.344C109.472 101.512 109.109 100.477 108.875 99.24C108.661 98.0027 108.555 96.52 108.555 94.792C108.555 93.704 108.565 92.712 108.587 91.816C108.608 90.8987 108.683 90.0667 108.811 89.32C108.96 88.552 109.173 87.8587 109.451 87.24C109.749 86.6 110.165 86.024 110.699 85.512C111.232 85 111.851 84.6053 112.555 84.328C113.28 84.0507 114.123 83.848 115.083 83.72C116.043 83.592 117.131 83.5173 118.347 83.496C119.563 83.4533 120.928 83.432 122.443 83.432C125.067 83.432 127.221 83.4853 128.907 83.592C130.613 83.6987 131.957 83.9973 132.939 84.488C133.92 84.9787 134.603 85.7467 134.987 86.792C135.371 87.8373 135.573 89.2987 135.595 91.176H129.323ZM145.102 83.656V91.688H148.462L157.262 83.656H166.222L153.998 94.216L167.534 105H158.03L148.462 96.872H145.102V105H138.67V83.656H145.102ZM168.409 105V83.656H192.217V88.456H174.841V92.168H191.065V96.392H174.841V100.2H192.217V105H168.409ZM202.229 99.816H213.173C214.112 99.816 214.88 99.752 215.477 99.624C216.075 99.496 216.544 99.24 216.885 98.856C217.227 98.4507 217.461 97.8853 217.589 97.16C217.717 96.4133 217.781 95.432 217.781 94.216C217.781 93.2987 217.739 92.4987 217.653 91.816C217.568 91.1333 217.387 90.5787 217.109 90.152C216.832 89.7253 216.448 89.4053 215.957 89.192C215.467 88.9787 214.816 88.872 214.005 88.872H202.229V99.816ZM195.669 105V83.688H214.549C215.125 83.688 215.808 83.72 216.597 83.784C217.408 83.848 218.315 83.9333 219.317 84.04C220.853 84.1893 222.069 85.0107 222.965 86.504C223.861 87.976 224.309 90.1093 224.309 92.904C224.309 93.5653 224.288 94.3867 224.245 95.368C224.224 96.3493 224.192 97.48 224.149 98.76C224.064 100.701 223.381 102.227 222.101 103.336C220.843 104.445 219.125 105 216.949 105H195.669Z" fill="black"/>
</svg>
