<svg width="378" height="149" viewBox="0 0 378 149" fill="none" xmlns="http://www.w3.org/2000/svg">
<mask id="mask0_27_264" style="mask-type:alpha" maskUnits="userSpaceOnUse" x="0" y="0" width="378" height="149">
<rect width="378" height="149" rx="40" fill="#D9D9D9"/>
</mask>
<g mask="url(#mask0_27_264)">
<rect x="0.5" y="0.5" width="377" height="148" rx="39.5" stroke="#008DF0"/>
<rect x="-29" y="-38" width="64" height="253" fill="#008DF0"/>
</g>
<path d="M69.0128 48V64H62.4528V48H52.8848V42.656H78.4208V48H69.0128ZM86.491 52.416C86.491 53.504 86.5017 54.4213 86.523 55.168C86.5657 55.9147 86.651 56.5333 86.779 57.024C86.9283 57.5147 87.1417 57.888 87.419 58.144C87.7177 58.4 88.123 58.592 88.635 58.72C89.1683 58.848 89.819 58.9227 90.587 58.944C91.3763 58.9653 92.3257 58.976 93.435 58.976C95.6537 58.976 97.3817 58.9547 98.619 58.912C99.8563 58.848 100.763 58.6347 101.339 58.272C101.936 57.9093 102.299 57.3227 102.427 56.512C102.555 55.68 102.619 54.5067 102.619 52.992C102.619 51.7547 102.555 50.784 102.427 50.08C102.32 49.3547 102.075 48.8213 101.691 48.48C101.307 48.1173 100.742 47.8933 99.995 47.808C99.2483 47.7227 98.2563 47.68 97.019 47.68C94.779 47.68 92.9657 47.68 91.579 47.68C90.1923 47.68 89.1257 47.8187 88.379 48.096C87.6323 48.352 87.131 48.8107 86.875 49.472C86.619 50.1333 86.491 51.1147 86.491 52.416ZM79.867 55.36C79.867 53.3333 79.8883 51.5947 79.931 50.144C79.995 48.672 80.1977 47.4347 80.539 46.432C80.9017 45.4293 81.4563 44.64 82.203 44.064C82.971 43.4667 84.059 43.04 85.467 42.784C86.427 42.6133 88.1657 42.5173 90.683 42.496C93.2217 42.4533 96.539 42.432 100.635 42.432C101.979 42.432 103.142 42.5493 104.123 42.784C105.104 43.0187 105.926 43.392 106.587 43.904C107.27 44.3947 107.803 45.0453 108.187 45.856C108.571 46.6667 108.838 47.648 108.987 48.8C109.072 49.3973 109.115 50.176 109.115 51.136C109.136 52.096 109.147 53.216 109.147 54.496C109.147 56.0533 109.051 57.376 108.859 58.464C108.667 59.5307 108.336 60.4267 107.867 61.152C107.398 61.8773 106.768 62.4427 105.979 62.848C105.211 63.2533 104.24 63.5627 103.067 63.776C101.894 63.968 100.507 64.0853 98.907 64.128C97.3283 64.192 95.483 64.224 93.371 64.224C90.9817 64.224 88.9337 64.1493 87.227 64C85.5203 63.872 84.123 63.52 83.035 62.944C81.947 62.3467 81.147 61.4613 80.635 60.288C80.123 59.0933 79.867 57.4507 79.867 55.36ZM126.7 48V64H120.14V48H110.572V42.656H136.108V48H126.7ZM152.278 55.712L147.734 47.264L143.126 55.712H152.278ZM154.646 60.128H140.854L138.742 64H131.51L143.414 42.656H152.182L163.83 64H156.662L154.646 60.128ZM172.729 42.656V58.688H187.417V64H166.169V42.656H172.729ZM215.138 49.184C215.116 48.6933 215.031 48.3093 214.882 48.032C214.732 47.7333 214.466 47.52 214.082 47.392C213.719 47.2427 213.228 47.1467 212.61 47.104C212.012 47.0613 211.234 47.04 210.274 47.04C210.103 47.04 209.964 47.04 209.858 47.04C209.751 47.04 209.612 47.0507 209.442 47.072C208.055 47.136 206.892 47.168 205.954 47.168C205.015 47.168 204.258 47.2213 203.682 47.328C203.106 47.4133 202.69 47.584 202.434 47.84C202.178 48.096 202.05 48.5227 202.05 49.12C202.05 49.6533 202.242 50.0587 202.626 50.336C203.01 50.592 203.543 50.7307 204.226 50.752C205.186 50.7733 206.092 50.7947 206.946 50.816C207.82 50.8373 208.631 50.848 209.378 50.848C209.826 50.848 210.284 50.848 210.754 50.848C211.244 50.8267 211.703 50.816 212.13 50.816C213.9 50.816 215.436 50.8693 216.738 50.976C218.039 51.0613 219.106 51.3173 219.938 51.744C220.791 52.1707 221.42 52.8213 221.826 53.696C222.231 54.5707 222.434 55.7973 222.434 57.376C222.434 58.4853 222.327 59.424 222.114 60.192C221.9 60.96 221.559 61.6 221.09 62.112C220.642 62.6027 220.066 62.9867 219.362 63.264C218.658 63.5413 217.815 63.7333 216.834 63.84C216.258 63.904 215.148 63.9787 213.506 64.064C211.863 64.1493 209.762 64.192 207.202 64.192C204.684 64.192 202.626 64.1173 201.026 63.968C199.447 63.8187 198.295 63.488 197.57 62.976C197.058 62.6133 196.674 62.2293 196.418 61.824C196.183 61.3973 196.012 60.9493 195.906 60.48C195.82 60.0107 195.778 59.5093 195.778 58.976C195.778 58.4213 195.778 57.824 195.778 57.184H202.21C202.21 57.4187 202.21 57.664 202.21 57.92C202.21 58.176 202.263 58.4107 202.37 58.624C202.476 58.816 202.668 58.9973 202.946 59.168C203.223 59.3173 203.65 59.4133 204.226 59.456C204.503 59.4773 205.015 59.4987 205.762 59.52C206.53 59.5413 207.49 59.552 208.642 59.552C210.135 59.552 211.351 59.5413 212.29 59.52C213.25 59.4987 213.996 59.424 214.53 59.296C215.063 59.168 215.426 58.976 215.618 58.72C215.81 58.464 215.906 58.0907 215.906 57.6C215.906 57.1307 215.81 56.768 215.618 56.512C215.426 56.2347 215.148 56.0427 214.786 55.936C214.423 55.808 213.986 55.7333 213.474 55.712C212.983 55.6907 212.439 55.68 211.842 55.68C209.751 55.6587 207.895 55.6587 206.274 55.68C204.652 55.68 203.244 55.6373 202.05 55.552C200.855 55.4667 199.842 55.3173 199.01 55.104C198.199 54.8907 197.538 54.5493 197.026 54.08C196.535 53.6107 196.172 52.992 195.938 52.224C195.724 51.456 195.618 50.4853 195.618 49.312C195.618 48.2667 195.703 47.36 195.874 46.592C196.066 45.824 196.375 45.184 196.802 44.672C197.228 44.1387 197.783 43.7333 198.466 43.456C199.17 43.1573 200.034 42.944 201.058 42.816C201.74 42.7307 202.839 42.6453 204.354 42.56C205.89 42.4747 207.81 42.432 210.114 42.432C211.33 42.432 212.418 42.4427 213.378 42.464C214.359 42.464 215.223 42.5067 215.97 42.592C216.738 42.6773 217.41 42.8053 217.986 42.976C218.562 43.1253 219.063 43.36 219.49 43.68C219.959 44.0213 220.322 44.384 220.578 44.768C220.855 45.152 221.058 45.568 221.186 46.016C221.314 46.464 221.399 46.9547 221.442 47.488C221.484 48 221.506 48.5653 221.506 49.184H215.138ZM246.129 42.656H252.689V56.096C252.689 58.1653 252.337 59.7973 251.633 60.992C250.929 62.1867 249.777 63.0507 248.177 63.584C247.259 63.8827 246.15 64.064 244.849 64.128C243.547 64.192 242.054 64.224 240.369 64.224C238.598 64.224 236.987 64.2133 235.537 64.192C234.107 64.192 232.827 64.128 231.697 64C230.587 63.8507 229.617 63.616 228.785 63.296C227.974 62.9547 227.302 62.4747 226.769 61.856C226.235 61.216 225.841 60.4053 225.585 59.424C225.329 58.4427 225.201 57.2267 225.201 55.776V42.656H231.76V53.856C231.76 54.752 231.782 55.4987 231.825 56.096C231.889 56.672 232.006 57.152 232.177 57.536C232.347 57.92 232.593 58.208 232.913 58.4C233.254 58.592 233.702 58.7307 234.257 58.816C234.811 58.9013 235.494 58.9547 236.305 58.976C237.115 58.976 238.097 58.976 239.249 58.976C240.102 58.976 240.859 58.976 241.521 58.976C242.182 58.976 242.758 58.9547 243.249 58.912C243.761 58.848 244.187 58.752 244.529 58.624C244.891 58.4747 245.19 58.2507 245.425 57.952C245.787 57.5253 245.99 56.992 246.033 56.352C246.097 55.712 246.129 54.912 246.129 53.952V42.656ZM262.979 53.504H272.963C273.987 53.504 274.713 53.312 275.139 52.928C275.566 52.5227 275.779 51.7867 275.779 50.72C275.779 49.696 275.587 48.96 275.203 48.512C274.819 48.0427 274.073 47.808 272.963 47.808H262.979V53.504ZM256.419 64V42.624H273.731C275.267 42.624 276.579 42.72 277.667 42.912C278.755 43.0827 279.673 43.5093 280.419 44.192C281.166 44.8747 281.667 45.7387 281.923 46.784C282.179 47.808 282.307 49.056 282.307 50.528C282.307 52.1067 282.19 53.4187 281.955 54.464C281.721 55.5093 281.294 56.352 280.675 56.992C280.078 57.6107 279.267 58.0587 278.243 58.336C277.219 58.592 275.918 58.72 274.339 58.72C274.105 58.72 273.891 58.72 273.699 58.72C273.529 58.6987 273.326 58.688 273.091 58.688H262.979V64H256.419ZM291.448 53.504H301.432C302.456 53.504 303.181 53.312 303.608 52.928C304.035 52.5227 304.248 51.7867 304.248 50.72C304.248 49.696 304.056 48.96 303.672 48.512C303.288 48.0427 302.541 47.808 301.432 47.808H291.448V53.504ZM284.888 64V42.624H302.2C303.736 42.624 305.048 42.72 306.136 42.912C307.224 43.0827 308.141 43.5093 308.888 44.192C309.635 44.8747 310.136 45.7387 310.392 46.784C310.648 47.808 310.776 49.056 310.776 50.528C310.776 52.1067 310.659 53.4187 310.424 54.464C310.189 55.5093 309.763 56.352 309.144 56.992C308.547 57.6107 307.736 58.0587 306.712 58.336C305.688 58.592 304.387 58.72 302.808 58.72C302.573 58.72 302.36 58.72 302.168 58.72C301.997 58.6987 301.795 58.688 301.56 58.688H291.448V64H284.888ZM319.917 42.656V58.688H334.605V64H313.357V42.656H319.917ZM342.778 51.456L349.946 42.656H358.106L346.138 56.512V64H339.482V56.512L327.354 42.656H335.546L342.778 51.456Z" fill="#008DF0"/>
<path d="M84.528 87.616L68.272 99.072H84.848V104H58.864V99.072L74.96 87.616H59.28V82.656H84.528V87.616ZM112.434 87.616L96.1783 99.072H112.754V104H86.7703V99.072L102.866 87.616H87.1863V82.656H112.434V87.616ZM140.341 87.616L124.085 99.072H140.661V104H114.677V99.072L130.773 87.616H115.093V82.656H140.341V87.616Z" fill="#008DF0"/>
</svg>
