<svg width="265" height="77" viewBox="0 0 265 77" fill="none" xmlns="http://www.w3.org/2000/svg">
<mask id="path-1-outside-1_16_38" maskUnits="userSpaceOnUse" x="0" y="0" width="265" height="77" fill="black">
<rect fill="white" width="265" height="77"/>
<path d="M1 11C1 5.47715 5.47715 1 11 1H250C255.523 1 260 5.47715 260 11V62C260 67.5229 255.523 72 250 72H11C5.47715 72 1 67.5229 1 62V11Z"/>
</mask>
<path d="M1 11C1 5.47715 5.47715 1 11 1H250C255.523 1 260 5.47715 260 11V62C260 67.5229 255.523 72 250 72H11C5.47715 72 1 67.5229 1 62V11Z" fill="black"/>
<path d="M0 11C0 4.92487 4.92487 0 11 0H254C260.075 0 265 4.92487 265 11H255C255 6.02944 252.761 2 250 2H11C6.02944 2 2 6.02944 2 11H0ZM265 62C265 70.2843 258.284 77 250 77H11C4.92487 77 0 72.0751 0 66L2 62C2 64.7614 6.02944 67 11 67H250C252.761 67 255 64.7614 255 62H265ZM11 77C4.92487 77 0 72.0751 0 66V11C0 4.92487 4.92487 0 11 0V2C6.02944 2 2 6.02944 2 11V62C2 64.7614 6.02944 67 11 67V77ZM254 0C260.075 0 265 4.92487 265 11V62C265 70.2843 258.284 77 250 77V67C252.761 67 255 64.7614 255 62V11C255 6.02944 252.761 2 250 2L254 0Z" fill="#0068B1" mask="url(#path-1-outside-1_16_38)"/>
<path d="M47.8512 32V45H42.5212V32H34.7472V27.658H55.4952V32H47.8512ZM57.0343 45V27.658H76.3783V31.558H62.2603V34.574H75.4423V38.006H62.2603V41.1H76.3783V45H57.0343ZM84.5134 27.658V40.684H96.4474V45H79.1834V27.658H84.5134ZM97.7354 45V27.658H117.079V31.558H102.961V34.574H116.143V38.006H102.961V41.1H117.079V45H97.7354ZM129.921 38.5V35.198H141.803C141.785 36.5327 141.768 37.7027 141.751 38.708C141.751 39.7133 141.699 40.5887 141.595 41.334C141.508 42.062 141.335 42.6773 141.075 43.18C140.815 43.6653 140.425 44.064 139.905 44.376C139.402 44.6707 138.726 44.8787 137.877 45C137.045 45.1213 135.996 45.182 134.731 45.182C134.176 45.182 133.613 45.1733 133.041 45.156C132.486 45.156 131.94 45.156 131.403 45.156H129.791C127.867 45.156 126.229 45.104 124.877 45C123.542 44.896 122.45 44.6013 121.601 44.116C120.751 43.6307 120.136 42.894 119.755 41.906C119.373 40.918 119.183 39.54 119.183 37.772C119.183 37.2347 119.2 36.5153 119.235 35.614C119.269 34.6953 119.321 33.6033 119.391 32.338C119.408 31.7833 119.529 31.246 119.755 30.726C119.98 30.206 120.266 29.7467 120.613 29.348C120.977 28.9493 121.384 28.62 121.835 28.36C122.303 28.0827 122.797 27.9093 123.317 27.84C124.357 27.7013 125.397 27.606 126.437 27.554C127.477 27.502 128.517 27.476 129.557 27.476C130.961 27.476 132.217 27.476 133.327 27.476C134.453 27.476 135.45 27.5107 136.317 27.58C137.183 27.6493 137.929 27.7707 138.553 27.944C139.177 28.1 139.697 28.3427 140.113 28.672C140.511 28.984 140.823 29.3133 141.049 29.66C141.274 30.0067 141.439 30.3793 141.543 30.778C141.647 31.1767 141.707 31.61 141.725 32.078C141.759 32.546 141.777 33.0487 141.777 33.586H136.603C136.568 33.1353 136.499 32.7887 136.395 32.546C136.291 32.286 136.1 32.0953 135.823 31.974C135.563 31.8353 135.19 31.7487 134.705 31.714C134.237 31.6793 133.63 31.662 132.885 31.662H131.559C131.091 31.662 130.631 31.662 130.181 31.662C129.73 31.6447 129.314 31.636 128.933 31.636C128.066 31.636 127.347 31.6533 126.775 31.688C126.22 31.7053 125.769 31.8353 125.423 32.078C125.076 32.3207 124.833 32.7193 124.695 33.274C124.556 33.8113 124.487 34.6 124.487 35.64C124.487 36.5933 124.504 37.3907 124.539 38.032C124.591 38.6733 124.695 39.1933 124.851 39.592C125.007 39.9907 125.241 40.294 125.553 40.502C125.865 40.6927 126.281 40.8313 126.801 40.918C127.338 41.0047 127.997 41.048 128.777 41.048C129.574 41.048 130.536 41.048 131.663 41.048C132.495 41.048 133.223 41.048 133.847 41.048C134.471 41.048 134.991 40.9873 135.407 40.866C135.823 40.7447 136.126 40.5453 136.317 40.268C136.525 39.9733 136.629 39.54 136.629 38.968C136.629 38.864 136.62 38.786 136.603 38.734C136.603 38.682 136.603 38.604 136.603 38.5H129.921ZM149.514 36.316H157.444C157.583 36.316 157.695 36.3247 157.782 36.342C157.869 36.342 157.981 36.342 158.12 36.342C158.744 36.342 159.229 36.3073 159.576 36.238C159.94 36.1687 160.209 36.0473 160.382 35.874C160.573 35.6833 160.685 35.432 160.72 35.12C160.772 34.808 160.798 34.4093 160.798 33.924C160.798 33.456 160.746 33.092 160.642 32.832C160.555 32.5547 160.399 32.3467 160.174 32.208C159.949 32.052 159.645 31.9567 159.264 31.922C158.883 31.8873 158.406 31.87 157.834 31.87H149.514V36.316ZM149.514 40.528V45H144.184V27.658H160.304C161.379 27.658 162.28 27.762 163.008 27.97C163.753 28.1607 164.351 28.4727 164.802 28.906C165.27 29.3393 165.599 29.9027 165.79 30.596C165.998 31.2893 166.102 32.1387 166.102 33.144C166.102 34.184 166.015 35.0073 165.842 35.614C165.686 36.2207 165.443 36.6973 165.114 37.044C164.802 37.3907 164.412 37.6507 163.944 37.824C163.476 37.9973 162.947 38.1707 162.358 38.344C162.843 38.448 163.303 38.5433 163.736 38.63C164.169 38.6993 164.542 38.8467 164.854 39.072C165.183 39.2973 165.435 39.6267 165.608 40.06C165.799 40.476 165.894 41.0827 165.894 41.88V45H160.564V42.712C160.564 41.9667 160.408 41.4207 160.096 41.074C159.801 40.71 159.195 40.528 158.276 40.528H149.514ZM184.414 38.266L180.722 31.402L176.978 38.266H184.414ZM186.338 41.854H175.132L173.416 45H167.54L177.212 27.658H184.336L193.8 45H187.976L186.338 41.854ZM225.107 27.658V45H220.115V31.792L212.471 45H208.233L200.693 31.792V45H195.701V27.658H204.099L210.469 39.15L216.761 27.658H225.107Z" fill="#008DF0"/>
</svg>
