<svg width="264" height="76" viewBox="0 0 264 76" fill="none" xmlns="http://www.w3.org/2000/svg">
<mask id="path-1-outside-1_27_280" maskUnits="userSpaceOnUse" x="0" y="0" width="264" height="76" fill="black">
<rect fill="white" width="264" height="76"/>
<path d="M0 10C0 4.47715 4.47715 0 10 0H249C254.523 0 259 4.47715 259 10V61C259 66.5229 254.523 71 249 71H10C4.47715 71 0 66.5229 0 61V10Z"/>
</mask>
<path d="M0 10C0 4.47715 4.47715 0 10 0H249C254.523 0 259 4.47715 259 10V61C259 66.5229 254.523 71 249 71H10C4.47715 71 0 66.5229 0 61V10Z" fill="#008DF0"/>
<path d="M0 0H259H0ZM264 61C264 69.2843 257.284 76 249 76H15C6.71573 76 0 69.2843 0 61C0 63.7614 4.47715 66 10 66H249C251.761 66 254 63.7614 254 61H264ZM0 71V0V71ZM249 0C257.284 0 264 6.71573 264 15V61C264 69.2843 257.284 76 249 76V66C251.761 66 254 63.7614 254 61V10C254 4.47715 251.761 0 249 0Z" fill="#0068B1" mask="url(#path-1-outside-1_27_280)"/>
<path d="M46.7756 40.074H56.3176C56.6643 40.074 56.9763 40.0567 57.2536 40.022C57.5483 39.9873 57.7996 39.918 58.0076 39.814C58.2156 39.6927 58.3716 39.5193 58.4756 39.294C58.597 39.0687 58.6576 38.7653 58.6576 38.384C58.6576 37.7773 58.4756 37.3787 58.1116 37.188C57.7476 36.9973 57.1756 36.902 56.3956 36.902H46.7756V40.074ZM46.7756 33.47H55.8236C56.517 33.47 57.0456 33.3747 57.4096 33.184C57.791 32.9933 57.9816 32.5687 57.9816 31.91C57.9816 30.9393 57.4703 30.454 56.4476 30.454H46.7756V33.47ZM41.5496 43.974V26.658H57.9036C59.741 26.658 61.093 27.0047 61.9596 27.698C62.8436 28.374 63.2856 29.518 63.2856 31.13C63.2856 31.8407 63.225 32.4213 63.1036 32.872C62.9823 33.3227 62.7916 33.6953 62.5316 33.99C62.289 34.2847 61.977 34.5187 61.5956 34.692C61.2143 34.8653 60.755 35.0213 60.2176 35.16C60.7896 35.2467 61.3096 35.3507 61.7776 35.472C62.2456 35.5933 62.6356 35.7927 62.9476 36.07C63.277 36.33 63.5283 36.694 63.7016 37.162C63.875 37.63 63.9616 38.2453 63.9616 39.008C63.9616 39.944 63.849 40.7327 63.6236 41.374C63.4156 41.998 63.0776 42.5093 62.6096 42.908C62.1416 43.2893 61.535 43.5667 60.7896 43.74C60.0616 43.896 59.1863 43.974 58.1636 43.974H41.5496ZM83.3857 26.658H88.7157V37.578C88.7157 39.2593 88.4297 40.5853 87.8577 41.556C87.2857 42.5267 86.3497 43.2287 85.0497 43.662C84.3043 43.9047 83.403 44.052 82.3457 44.104C81.2883 44.156 80.075 44.182 78.7057 44.182C77.267 44.182 75.9583 44.1733 74.7797 44.156C73.6183 44.156 72.5783 44.104 71.6597 44C70.7583 43.8787 69.9697 43.688 69.2937 43.428C68.635 43.1507 68.089 42.7607 67.6557 42.258C67.2223 41.738 66.9017 41.0793 66.6937 40.282C66.4857 39.4847 66.3817 38.4967 66.3817 37.318V26.658H71.7117V35.758C71.7117 36.486 71.729 37.0927 71.7637 37.578C71.8157 38.046 71.911 38.436 72.0497 38.748C72.1883 39.06 72.3877 39.294 72.6477 39.45C72.925 39.606 73.289 39.7187 73.7397 39.788C74.1903 39.8573 74.745 39.9007 75.4037 39.918C76.0623 39.918 76.8597 39.918 77.7957 39.918C78.489 39.918 79.1043 39.918 79.6417 39.918C80.179 39.918 80.647 39.9007 81.0457 39.866C81.4617 39.814 81.8083 39.736 82.0857 39.632C82.3803 39.5107 82.623 39.3287 82.8137 39.086C83.1083 38.7393 83.273 38.306 83.3077 37.786C83.3597 37.266 83.3857 36.616 83.3857 35.836V26.658ZM103.083 33.808L108.907 26.658H115.537L105.813 37.916V44H100.405V37.916L90.5509 26.658H97.2069L103.083 33.808ZM146.946 26.658V44H138.548L128.122 30.974V44H123.13V26.658H131.528L141.954 39.658V26.658H146.946ZM154.647 34.588C154.647 35.472 154.656 36.2173 154.673 36.824C154.708 37.4307 154.777 37.9333 154.881 38.332C155.002 38.7307 155.176 39.034 155.401 39.242C155.644 39.45 155.973 39.606 156.389 39.71C156.822 39.814 157.351 39.8747 157.975 39.892C158.616 39.9093 159.388 39.918 160.289 39.918C162.092 39.918 163.496 39.9007 164.501 39.866C165.506 39.814 166.243 39.6407 166.711 39.346C167.196 39.0513 167.491 38.5747 167.595 37.916C167.699 37.24 167.751 36.2867 167.751 35.056C167.751 34.0507 167.699 33.262 167.595 32.69C167.508 32.1007 167.309 31.6673 166.997 31.39C166.685 31.0953 166.226 30.9133 165.619 30.844C165.012 30.7747 164.206 30.74 163.201 30.74C161.381 30.74 159.908 30.74 158.781 30.74C157.654 30.74 156.788 30.8527 156.181 31.078C155.574 31.286 155.167 31.6587 154.959 32.196C154.751 32.7333 154.647 33.5307 154.647 34.588ZM149.265 36.98C149.265 35.3333 149.282 33.9207 149.317 32.742C149.369 31.546 149.534 30.5407 149.811 29.726C150.106 28.9113 150.556 28.27 151.163 27.802C151.787 27.3167 152.671 26.97 153.815 26.762C154.595 26.6233 156.008 26.5453 158.053 26.528C160.116 26.4933 162.811 26.476 166.139 26.476C167.231 26.476 168.176 26.5713 168.973 26.762C169.77 26.9527 170.438 27.256 170.975 27.672C171.53 28.0707 171.963 28.5993 172.275 29.258C172.587 29.9167 172.804 30.714 172.925 31.65C172.994 32.1353 173.029 32.768 173.029 33.548C173.046 34.328 173.055 35.238 173.055 36.278C173.055 37.5433 172.977 38.618 172.821 39.502C172.665 40.3687 172.396 41.0967 172.015 41.686C171.634 42.2753 171.122 42.7347 170.481 43.064C169.857 43.3933 169.068 43.6447 168.115 43.818C167.162 43.974 166.035 44.0693 164.735 44.104C163.452 44.156 161.953 44.182 160.237 44.182C158.296 44.182 156.632 44.1213 155.245 44C153.858 43.896 152.723 43.61 151.839 43.142C150.955 42.6567 150.305 41.9373 149.889 40.984C149.473 40.0133 149.265 38.6787 149.265 36.98ZM210.535 26.658L203.385 44H196.209L192.361 31.702L188.357 44H181.259L174.213 26.658H179.647L184.691 39.814L189.241 26.658H195.611L199.927 39.814L205.153 26.658H210.535ZM217.915 26.658L217.629 36.902H213.027L212.793 26.658H217.915ZM217.889 39.164V44H212.663V39.164H217.889Z" fill="black"/>
</svg>
